<?xml version="1.0" standalone="no"?>
<!DOCTYPE svg PUBLIC "-//W3C//DTD SVG 1.1//EN" "http://www.w3.org/Graphics/SVG/1.1/DTD/svg11.dtd" >
<svg>
<metadata>
Created by FontForge 20090914 at Wed Dec 27 15:01:51 2017
 By www-data
Copyright (c) 1981 Linotype AG and/or its subsidiaries.
</metadata>
<defs>
<font id="Cochin-Italic" horiz-adv-x="259" >
  <font-face 
    font-family="Cochin"
    font-weight="500"
    font-style="italic"
    font-stretch="normal"
    units-per-em="1000"
    panose-1="2 0 6 3 2 0 0 9 0 3"
    ascent="800"
    descent="-200"
    x-height="376"
    cap-height="654.001"
    bbox="-191 -234.001 1032 886"
    underline-thickness="50"
    underline-position="-75"
    slope="-20"
    unicode-range="U+0008-U+FB02"
  />
<missing-glyph horiz-adv-x="574" 
d="M60 3h475v655h-475v-655zM87 27v607h421v-607h-421z" />
    <glyph glyph-name=".notdef" horiz-adv-x="574" 
d="M60 3h475v655h-475v-655zM87 27v607h421v-607h-421z" />
    <glyph glyph-name=".null" horiz-adv-x="0" 
 />
    <glyph glyph-name=".null" horiz-adv-x="0" 
 />
    <glyph glyph-name=".null" horiz-adv-x="0" 
 />
    <glyph glyph-name="nonmarkingreturn" unicode="&#x9;" horiz-adv-x="500" 
 />
    <glyph glyph-name="nonmarkingreturn" unicode="&#xd;" horiz-adv-x="500" 
 />
    <glyph glyph-name="nonmarkingreturn" unicode="&#xa;" horiz-adv-x="500" 
 />
    <glyph glyph-name="space" unicode=" " horiz-adv-x="222" 
 />
    <glyph glyph-name="space" unicode="&#xa0;" horiz-adv-x="222" 
 />
    <glyph glyph-name="exclam" unicode="!" horiz-adv-x="333" 
d="M140 153c4 30.667 11.668 59.8311 23.001 87.498s24.166 54.834 38.499 81.501s29.333 52.834 45 78.501s30.5 51.834 44.5 78.501s26 54.167 36 82.5s16 57.833 18 88.5h-86c-4 -43.333 -12.5 -85.5 -25.5 -126.5s-26.833 -81.833 -41.5 -122.5
s-28.167 -81.334 -40.5 -122.001s-19.5 -82.667 -21.5 -126h10zM121.001 123.997c-18.667 0 -33.5 -7.16699 -44.5 -21.5s-16.5 -31.166 -16.5 -50.499c0 -16 4.33301 -28.667 13 -38s20 -14 34 -14c18.667 0 33.5 7.16699 44.5 21.5s16.5 31.166 16.5 50.499
c0 16 -4.33301 28.667 -13 38s-20 14 -34 14z" />
    <glyph glyph-name="quotedbl" unicode="&#x22;" horiz-adv-x="333" 
d="M323 589c0.666992 6 1.1709 13.667 1.50391 23s-0.333984 18.333 -2.00098 27s-4.83398 16 -9.50098 22s-11.667 9 -21 9s-16.333 -3 -21 -9s-7.83398 -13.333 -9.50098 -22s-2.33398 -17.667 -2.00098 -27s0.833008 -17 1.5 -23l16 -204c0 -2 0.166992 -4.66699 0.5 -8
s1 -6.83301 2 -10.5s2.33301 -6.66699 4 -9s4.5 -3.5 8.5 -3.5s6.83301 1.16699 8.5 3.5s3 5.33301 4 9s1.66699 7.16699 2 10.5s0.5 6 0.5 8zM196.004 589c0.666992 6 1.1709 13.667 1.50391 23s-0.333984 18.333 -2.00098 27s-4.83398 16 -9.50098 22s-11.667 9 -21 9
s-16.333 -3 -21 -9s-7.83398 -13.333 -9.50098 -22s-2.33398 -17.667 -2.00098 -27s0.833008 -17 1.5 -23l16 -204c0 -2 0.166992 -4.66699 0.5 -8s1 -6.83301 2 -10.5s2.33301 -6.66699 4 -9s4.5 -3.5 8.5 -3.5s6.83301 1.16699 8.5 3.5s3 5.33301 4 9
s1.66699 7.16699 2 10.5s0.5 6 0.5 8z" />
    <glyph glyph-name="numbersign" unicode="#" horiz-adv-x="444" 
d="M440 252h-104l21 146h103l6 41h-104l30 211h-46l-30 -211h-131l30 211h-47l-29 -211h-102l-6 -41h102l-20 -146h-102l-6 -41h102l-30 -211h47l29 211h131l-29 -211h46l30 211h103zM310 398l-20 -146h-131l20 146h131z" />
    <glyph glyph-name="dollar" unicode="$" horiz-adv-x="444" 
d="M88 -91l28.9951 0.00488281l29 88c4.66699 0 9.83398 -0.166992 15.501 -0.5s12.167 -0.5 19.5 -0.5c22.667 0 45 4.66699 67 14s41.833 22 59.5 38s31.834 34.667 42.501 56s16 44 16 68c0 20 -3 39.167 -9 57.5s-13.5 35.833 -22.5 52.5s-19 32.667 -30 48l-32.5 44
l85 252c14 -6.66699 24.667 -15.834 32 -27.501s12.666 -24.334 15.999 -38.001s5.33301 -28 6 -43s1 -29.833 1 -44.5h10c4.66699 23.333 9.83398 46.666 15.501 69.999s12.5 46.333 20.5 69c-14.667 9.33301 -30 16.5 -46 21.5l-47 14.5l31 94h-28l-31 -92
c-23.333 0 -46.666 -3.33301 -69.999 -10s-44.5 -16.834 -63.5 -30.501s-34.5 -30.334 -46.5 -50.001s-18 -42.5 -18 -68.5c0 -16.667 2.66699 -33.167 8 -49.5s12.333 -32 21 -47s18 -29.167 28 -42.5l29 -38l-98 -289c-19.333 8 -34.166 19.667 -44.499 35
s-18 32.333 -23 51s-7.83301 38 -8.5 58s-1 38.667 -1 56h-10l-40 -187c20.667 -5.33301 41.334 -11.5 62.001 -18.5s39.667 -12.833 57 -17.5zM244.995 291.005c13.333 -18.667 25.834 -39.5 37.501 -62.5s17.5 -47.5 17.5 -73.5c0 -16 -2.66699 -32.5 -8 -49.5
s-12.833 -32.5 -22.5 -46.5s-21.667 -25.5 -36 -34.5s-30.5 -13.5 -48.5 -13.5c-6 0 -11.833 0.166992 -17.5 0.5s-10.834 1.83301 -15.501 4.5zM251.996 396.005c-11.333 16.667 -22.001 35.333 -32.001 56s-15 42.667 -15 66c0 18 3.33301 34 10 48
s15.834 25.833 27.501 35.5s25.167 17 40.5 22s31.333 7.5 48 7.5z" />
    <glyph glyph-name="percent" unicode="%" horiz-adv-x="833" 
d="M341 650c-22.667 0 -44.667 -4.66699 -66 -14s-41.333 -21.833 -60 -37.5s-36 -33.667 -52 -54s-29.667 -41.666 -41 -63.999s-20.166 -44.666 -26.499 -66.999s-9.5 -43.5 -9.5 -63.5c0 -25.333 6 -46.333 18 -63s33 -25 63 -25c22.667 0 44.667 4.66699 66 14
s41.333 21.833 60 37.5s36 33.667 52 54s29.667 41.666 41 63.999s20.166 44.666 26.499 66.999s9.5 43.5 9.5 63.5c0 25.333 -6 46.333 -18 63s-33 25 -63 25zM313 630c10 0 18 -2.5 24 -7.5s10.833 -11.167 14.5 -18.5s6 -15.333 7 -24s1.5 -17 1.5 -25
c0 -12.667 -1.83301 -28.334 -5.5 -47.001s-8.83398 -38 -15.501 -58s-14.834 -40 -24.501 -60s-20.667 -38 -33 -54s-25.666 -29 -39.999 -39s-29.833 -15 -46.5 -15c-10 0 -18 2.33301 -24 7s-10.833 10.667 -14.5 18s-6 15.333 -7 24s-1.5 17 -1.5 25
c0 12.667 1.83301 28.334 5.5 47.001s8.83398 38.167 15.501 58.5s14.834 40.5 24.501 60.5s20.667 38 33 54s25.666 29 39.999 39s29.833 15 46.5 15zM653 650l-479 -660h42l478 660h-41zM704 378c-22.667 0 -44.667 -4.66699 -66 -14s-41.333 -21.833 -60 -37.5
s-36 -33.667 -52 -54s-29.667 -41.666 -41 -63.999s-20.166 -44.666 -26.499 -66.999s-9.5 -43.5 -9.5 -63.5c0 -25.333 6 -46.333 18 -63s33 -25 63 -25c22.667 0 44.667 4.66699 66 14s41.333 21.833 60 37.5s36 33.667 52 54s29.667 41.666 41 63.999
s20.166 44.666 26.499 66.999s9.5 43.5 9.5 63.5c0 25.333 -6 46.333 -18 63s-33 25 -63 25zM676 358c10 0 18 -2.5 24 -7.5s10.833 -11.167 14.5 -18.5s6 -15.333 7 -24s1.5 -17 1.5 -25c0 -12.667 -1.83301 -28.334 -5.5 -47.001s-8.83398 -38 -15.501 -58
s-14.834 -40 -24.501 -60s-20.667 -38 -33 -54s-25.666 -29 -39.999 -39s-29.833 -15 -46.5 -15c-10 0 -18 2.33301 -24 7s-10.833 10.667 -14.5 18s-6 15.333 -7 24s-1.5 17 -1.5 25c0 12.667 1.83301 28.334 5.5 47.001s8.83398 38.167 15.501 58.5
s14.834 40.5 24.501 60.5s20.667 38 33 54s25.666 29 39.999 39s29.833 15 46.5 15z" />
    <glyph glyph-name="ampersand" unicode="&#x26;" horiz-adv-x="870" 
d="M499 250c2 12.667 5.33496 24.833 10.002 36.5s11 22 19 31s17.5 16.333 28.5 22s23.5 8.5 37.5 8.5c32 0 57.333 -8.83301 76 -26.5s28 -43.167 28 -76.5c0 -40 -11 -74.667 -33 -104s-49.5 -53.5 -82.5 -72.5s-68.667 -33.167 -107 -42.5s-74.166 -14 -107.499 -14
c-20.667 0 -43.667 2 -69 6s-49 11 -71 21s-40.5 23.5 -55.5 40.5s-22.5 38.833 -22.5 65.5c0 8.66699 0.666992 17.167 2 25.5s4.33301 19.5 9 33.5l69 24c26.667 9.33301 52.167 20 76.5 32s45 25 62 39s25.5 29 25.5 45c0 18.667 -6 32.667 -18 42s-26 14 -42 14
c-14.667 0 -31.334 -3.33301 -50.001 -10s-37.5 -16 -56.5 -28s-37.833 -26.167 -56.5 -42.5s-35.167 -34.333 -49.5 -54s-25.833 -40.5 -34.5 -62.5s-13 -44.333 -13 -67c0 -30.667 8.5 -56 25.5 -76s38.167 -35.667 63.5 -47s52.5 -19.333 81.5 -24s55.5 -7 79.5 -7
c26.667 0 56.167 3.33301 88.5 10s65 16.167 98 28.5s65.167 27.333 96.5 45s59.333 37.334 84 59.001s44.334 45.167 59.001 70.5s22 51.666 22 78.999c0 16.667 -3.16699 32 -9.5 46s-15 26 -26 36s-24.167 17.833 -39.5 23.5s-32 8.5 -50 8.5
c-32.667 0 -61.667 -7.66699 -87 -23l-2 2c12 18 28.667 32.5 50 43.5s44.666 20.667 69.999 29l76.5 24.5c25.667 8 49.167 17.5 70.5 28.5s38.666 24.833 51.999 41.5s20 38 20 64c0 28 -7.83301 50.333 -23.5 67s-37.834 25 -66.501 25c-11.333 0 -23.333 -1.5 -36 -4.5
s-24.5 -7.66699 -35.5 -14s-20.167 -14.333 -27.5 -24s-11 -21.167 -11 -34.5c0 -7.33301 1.66699 -13.166 5 -17.499s7.83301 -7.66602 13.5 -9.99902s11.667 -3.83301 18 -4.5s12.5 -1 18.5 -1c-4.66699 6.66699 -9.33398 16 -14.001 28s-7 21.667 -7 29
c0 10 3.33301 17 10 21s14.334 6 23.001 6c20 0 36.5 -5.83301 49.5 -17.5s19.5 -27.834 19.5 -48.501c0 -26.667 -7.33301 -48.834 -22 -66.501s-32.5 -32.5 -53.5 -44.5s-43.167 -22 -66.5 -30s-43.666 -15.667 -60.999 -23c-19.333 -8 -37.5 -18.833 -54.5 -32.5
s-31.833 -28.834 -44.5 -45.501s-22.834 -34.167 -30.501 -52.5s-11.5 -36.166 -11.5 -53.499h10zM310.002 332.999c0 -12.667 -5.33398 -25.333 -16.001 -38s-23.667 -24.167 -39 -34.5s-31.166 -19.166 -47.499 -26.499s-30.166 -12 -41.499 -14
c1.33301 11.333 5.5 25.166 12.5 41.499s16 32.333 27 48s23.667 29 38 40s29.166 16.5 44.499 16.5c8 0 13.667 -4 17 -12s5 -15 5 -21z" />
    <glyph glyph-name="quotesingle" unicode="'" horiz-adv-x="222" 
d="M212 589c0.666992 6 1.1709 13.667 1.50391 23s-0.333984 18.333 -2.00098 27s-4.83398 16 -9.50098 22s-11.667 9 -21 9s-16.333 -3 -21 -9s-7.83398 -13.333 -9.50098 -22s-2.33398 -17.667 -2.00098 -27s0.833008 -17 1.5 -23l16 -204c0 -2 0.166992 -4.66699 0.5 -8
s1 -6.83301 2 -10.5s2.33301 -6.66699 4 -9s4.5 -3.5 8.5 -3.5s6.83301 1.16699 8.5 3.5s3 5.33301 4 9s1.66699 7.16699 2 10.5s0.5 6 0.5 8z" />
    <glyph glyph-name="parenleft" unicode="(" horiz-adv-x="444" 
d="M564 686c-38.667 -8 -76.665 -21.5 -113.998 -40.5s-72.5 -41.833 -105.5 -68.5s-63.333 -56.667 -91 -90s-51.5 -68.666 -71.5 -105.999s-35.5 -76 -46.5 -116s-16.5 -80 -16.5 -120c0 -70.667 14 -134.5 42 -191.5s68 -108.833 120 -155.5l7 10
c-16 14 -29.833 30.333 -41.5 49s-21.334 38.5 -29.001 59.5s-13.334 42.5 -17.001 64.5s-5.5 43.333 -5.5 64c0 40 3 81.833 9 125.5s15.5 86.834 28.5 129.501s29.333 84 49 124s43.167 76.667 70.5 110s58.5 62.166 93.5 86.499s74.167 42.166 117.5 53.499z" />
    <glyph glyph-name="parenright" unicode=")" horiz-adv-x="444" 
d="M-130 -202c38.667 8 76.665 21.5 113.998 40.5s72.5 41.833 105.5 68.5s63.333 56.667 91 90s51.5 68.666 71.5 105.999s35.5 76 46.5 116s16.5 80 16.5 120c0 70.667 -14 134.5 -42 191.5s-68 108.833 -120 155.5l-7 -10c16 -14 29.833 -30.333 41.5 -49
s21.334 -38.5 29.001 -59.5s13.334 -42.333 17.001 -64s5.5 -43.167 5.5 -64.5c0 -40 -3 -81.833 -9 -125.5s-15.5 -86.834 -28.5 -129.501s-29.333 -84 -49 -124s-43.167 -76.667 -70.5 -110s-58.5 -62.166 -93.5 -86.499s-74.167 -42.166 -117.5 -53.499z" />
    <glyph glyph-name="asterisk" unicode="*" horiz-adv-x="500" 
d="M269 452c-8 -4 -17.501 -8 -28.501 -12s-21.5 -8.66699 -31.5 -14s-18.5 -11.5 -25.5 -18.5s-10.5 -15.167 -10.5 -24.5c0 -7.33301 3.33301 -14.333 10 -21s13.667 -10 21 -10c8.66699 0 16.834 3.5 24.501 10.5s14.5 15.5 20.5 25.5s11.167 20.167 15.5 30.5l10.5 25.5
zM274.999 533l-10 27.5c-4 11 -8.66699 21.5 -14 31.5s-11.5 18.5 -18.5 25.5s-14.833 10.5 -23.5 10.5c-7.33301 0 -14.5 -3.33301 -21.5 -10s-10.5 -13.667 -10.5 -21c0 -10 3.5 -18.667 10.5 -26s15.333 -14 25 -20s19.667 -11 30 -15l26.5 -10zM318.999 548
c3.33301 6 6.66699 12.833 10 20.5s6.5 15.5 9.5 23.5s5.5 16 7.5 24s3 15.333 3 22c0 21.333 -10 32 -30 32c-10 0 -18.167 -3 -24.5 -9s-9.5 -13.667 -9.5 -23c0 -16 3 -31.5 9 -46.5l17 -43.5h8zM308 430l-9.5 -20.5c-3.66699 -7.66699 -7 -15.5 -10 -23.5
s-5.5 -16 -7.5 -24s-3 -15.333 -3 -22c0 -21.333 10 -32 30 -32c10 0 18.167 3 24.5 9s9.5 13.667 9.5 23c0 16 -3 31.5 -9 46.5l-17 43.5h-8zM256 495c-16.667 7.33301 -32.332 13.667 -46.999 19s-31 8 -49 8c-8.66699 0 -15.5 -3.33301 -20.5 -10s-7.5 -13.667 -7.5 -21
c0 -9.33301 3.16699 -16.833 9.5 -22.5s14.166 -8.5 23.499 -8.5c16 0 31.333 3.16699 46 9.5s29.667 11.5 45 15.5v10zM373.002 483.001c16.667 -7.33301 32.332 -13.667 46.999 -19s31 -8 49 -8c8.66699 0 15.5 3.33301 20.5 10s7.5 13.667 7.5 21
c0 9.33301 -3.16699 16.833 -9.5 22.5s-14.166 8.5 -23.499 8.5c-16 0 -31.333 -3.16699 -46 -9.5s-29.667 -11.5 -45 -15.5v-10zM353 444c3.33301 -7.33301 6.83301 -16.5 10.5 -27.5s8.16699 -21.5 13.5 -31.5s11.5 -18.5 18.5 -25.5s14.833 -10.5 23.5 -10.5
c7.33301 0 14.5 3.33301 21.5 10s10.5 13.667 10.5 21c0 10 -3.5 18.667 -10.5 26s-15.333 14 -25 20s-19.667 11 -30 15l-26.5 10zM360 526c8 4 17.501 8 28.501 12s21.5 8.66699 31.5 14s18.5 11.5 25.5 18.5s10.5 15.167 10.5 24.5c0 7.33301 -3.33301 14.333 -10 21
s-13.667 10 -21 10c-8.66699 0 -16.667 -3.5 -24 -10.5s-14 -15.5 -20 -25.5s-11.333 -20.167 -16 -30.5s-8.33398 -18.833 -11.001 -25.5z" />
    <glyph glyph-name="plus" unicode="+" horiz-adv-x="500" 
d="M206 213h-162v-50h162v-163h50v163h162v50h-162v163h-50v-163z" />
    <glyph glyph-name="comma" unicode="," horiz-adv-x="222" 
d="M-79 -148c18.667 12 38.835 26.166 60.502 42.499s41.667 34.333 60 54s33.666 40.834 45.999 63.501s18.5 46.334 18.5 71.001c0 11.333 -4.5 21 -13.5 29s-19.167 12 -30.5 12c-14 0 -27.167 -3.33301 -39.5 -10s-22.5 -15.667 -30.5 -27
c9.33301 -8.66699 17 -17.334 23 -26.001s9 -19.667 9 -33c0 -16 -3.33301 -32 -10 -48s-15.334 -31.5 -26.001 -46.5s-22.5 -28.667 -35.5 -41s-25.833 -22.833 -38.5 -31.5z" />
    <glyph glyph-name="hyphen" unicode="-" horiz-adv-x="333" 
d="M275 225c-8.66699 -1.33301 -15.334 -2.66797 -20.001 -4.00098s-9.66699 -2.66602 -15 -3.99902s-12.166 -2.33301 -20.499 -3s-20.833 -1 -37.5 -1c-15.333 0 -30.5 1.16699 -45.5 3.5s-30.167 3.5 -45.5 3.5c-8 0 -17 -1 -27 -3s-15.333 -4 -16 -6
c-3.33301 -12 -7.16602 -23.5 -11.499 -34.5s-8.16602 -21.167 -11.499 -30.5c13.333 6.66699 25.666 11.167 36.999 13.5s24.666 3.5 39.999 3.5c18 0 36 -1.5 54 -4.5s36 -4.5 54 -4.5c12.667 0 25 1 37 3z" />
    <glyph glyph-name="hyphen" unicode="&#xad;" horiz-adv-x="333" 
d="M275 225c-8.66699 -1.33301 -15.334 -2.66797 -20.001 -4.00098s-9.66699 -2.66602 -15 -3.99902s-12.166 -2.33301 -20.499 -3s-20.833 -1 -37.5 -1c-15.333 0 -30.5 1.16699 -45.5 3.5s-30.167 3.5 -45.5 3.5c-8 0 -17 -1 -27 -3s-15.333 -4 -16 -6
c-3.33301 -12 -7.16602 -23.5 -11.499 -34.5s-8.16602 -21.167 -11.499 -30.5c13.333 6.66699 25.666 11.167 36.999 13.5s24.666 3.5 39.999 3.5c18 0 36 -1.5 54 -4.5s36 -4.5 54 -4.5c12.667 0 25 1 37 3z" />
    <glyph glyph-name="period" unicode="." horiz-adv-x="222" 
d="M59 124c-18.667 0 -33.5 -7.16699 -44.5 -21.5s-16.5 -31.166 -16.5 -50.499c0 -16 4.33301 -28.667 13 -38s20 -14 34 -14c18.667 0 33.5 7.16699 44.5 21.5s16.5 31.166 16.5 50.499c0 16 -4.33301 28.667 -13 38s-20 14 -34 14z" />
    <glyph glyph-name="slash" unicode="/" horiz-adv-x="278" 
d="M11 -20l333 690h-51l-333 -690h51z" />
    <glyph glyph-name="zero" unicode="0" horiz-adv-x="444" 
d="M10 98c0 -34 7.66699 -61.834 23 -83.501s38 -32.5 68 -32.5c27.333 0 55.333 8.16699 84 24.5s56.334 38.5 83.001 66.5s51.667 60.667 75 98s43.833 77.333 61.5 120s31.5 86.667 41.5 132s15 89.666 15 132.999c0 34 -7.66699 61.167 -23 81.5s-38 30.5 -68 30.5
c-27.333 0 -55.333 -8 -84 -24s-56.334 -37.833 -83.001 -65.5s-51.667 -60 -75 -97s-43.833 -76.667 -61.5 -119s-31.5 -86.166 -41.5 -131.499s-15 -89.666 -15 -132.999zM90 106.999c0 22.667 2.5 51.332 7.5 85.999s12.333 71.5 22 110.5s21.5 78.167 35.5 117.5
s29.833 74.833 47.5 106.5s37 57.334 58 77.001s43.5 29.5 67.5 29.5c11.333 0 20.5 -2.66699 27.5 -8s12.333 -12.333 16 -21s6.16699 -18.167 7.5 -28.5s2 -20.166 2 -29.499c0 -22.667 -2.5 -51.5 -7.5 -86.5s-12.333 -72.167 -22 -111.5s-21.5 -78.833 -35.5 -118.5
s-29.833 -75.334 -47.5 -107.001s-37 -57.5 -58 -77.5s-43.5 -30 -67.5 -30c-11.333 0 -20.5 3 -27.5 9s-12.333 13.5 -16 22.5s-6.16699 18.833 -7.5 29.5s-2 20.667 -2 30z" />
    <glyph glyph-name="one" unicode="1" horiz-adv-x="444" 
d="M-1 -4c21.333 1.33301 42.334 2.33691 63.001 3.00391s41.667 1 63 1c24 0 48 -0.333008 72 -1s48 -1.66699 72 -3v14c-6 1.33301 -14.167 2.66602 -24.5 3.99902s-20.333 3.16602 -30 5.49902s-18.167 5.33301 -25.5 9s-11 8.83398 -11 15.501
c0 2 2.83301 11.833 8.5 29.5l22 68.5l31.5 94.5l37 107.5l38.5 109l35.5 97.5l28 73.5c8 20 13.667 32.333 17 37l-7 7c-64 -22 -129.667 -37 -197 -45v-14c9.33301 0 18.5 0.833008 27.5 2.5s18.167 2.5 27.5 2.5c11.333 0 21.166 -0.833008 29.499 -2.5
s12.5 -6.83398 12.5 -15.501c0 -2.66699 -2.5 -12.334 -7.5 -29.001s-12 -38.334 -21 -65.001l-31.5 -92l-39 -110l-43.5 -119l-45.5 -119c-4 -10 -8.5 -17.833 -13.5 -23.5s-11.333 -10.167 -19 -13.5s-17.167 -6 -28.5 -8l-41 -7v-14z" />
    <glyph glyph-name="two" unicode="2" horiz-adv-x="444" 
d="M-2 65c22.667 24 49.4971 46.832 80.4971 68.499l96.5 65l99 66c32.667 22.333 61.834 46.166 87.501 71.499s46.334 52.833 62.001 82.5s23.5 62.5 23.5 98.5c0 46 -13.167 82.667 -39.5 110s-63.166 41 -110.499 41c-20.667 0 -41.667 -3.5 -63 -10.5
s-40.666 -17 -57.999 -30s-31.666 -29 -42.999 -48s-17.333 -40.167 -18 -63.5l74 -21c2 4 4.66699 14.167 8 30.5s8.83301 33.5 16.5 51.5s18 34.333 31 49s29.833 22 50.5 22c32 0 53.333 -11.333 64 -34s16 -52.667 16 -90c0 -29.333 -7.5 -58.333 -22.5 -87
s-34.833 -57.167 -59.5 -85.5s-52.667 -56.333 -84 -84l-97 -83l-98 -84c-32 -28.333 -61 -57.166 -87 -86.499v-2l4 -16h2c2.66699 0.666992 5.66699 1.33398 9 2.00098s7.83301 1.16699 13.5 1.5s13.167 0.5 22.5 0.5h34h281c6.66699 24.667 15.167 48.5 25.5 71.5
s21.166 45.5 32.499 67.5l-8 7l-23.5 -36.5c-7 -10.333 -14.167 -18.833 -21.5 -25.5s-15.333 -11.5 -24 -14.5s-19.334 -4.5 -32.001 -4.5h-244z" />
    <glyph glyph-name="three" unicode="3" horiz-adv-x="444" 
d="M-80 -18c27.333 2.66699 57.5 7.16602 90.5 13.499s66.167 14.833 99.5 25.5s65.666 23.667 96.999 39s59 33.5 83 54.5s43.333 44.833 58 71.5s22 56.667 22 90c0 18.667 -2.33301 36.834 -7 54.501s-11.667 33.5 -21 47.5s-21.5 25.833 -36.5 35.5
s-32.5 15.5 -52.5 17.5l241 193l-7 26h-295l-76 -124l14 -2c3.33301 4 7.5 9.33301 12.5 16s11.5 13.167 19.5 19.5s17.667 12 29 17s24.333 7.5 39 7.5h187l2 -2l-278 -219v-10c8.66699 5.33301 17.5 10.333 26.5 15s18.5 7 28.5 7c30.667 0 53.834 -10.167 69.501 -30.5
s23.5 -44.833 23.5 -73.5c0 -44 -12.5 -82 -37.5 -114s-56.333 -59 -94 -81s-78 -39.167 -121 -51.5s-82.5 -20.5 -118.5 -24.5z" />
    <glyph glyph-name="four" unicode="4" horiz-adv-x="444" 
d="M266 0l88.5 269.505l92.5 267.5l-79 -30l-77 -228h-234c11.333 14 25.333 30.167 42 48.5l49.5 53l45 45.5c13.667 13.333 22.834 21.666 27.501 24.999c20 15.333 38.833 31.166 56.5 47.499s35.834 31.166 54.501 44.499s39 24.333 61 33s47.333 13 76 13
c1.33301 3.33301 3.16602 9 5.49902 17s4.66602 16.667 6.99902 26l6.5 26c2 8 3 13 3 15c0 3.33301 -1.5 6.16602 -4.5 8.49902s-6.16699 3.5 -9.5 3.5c-9.33301 0 -25 -7.83301 -47 -23.5s-47.667 -36.334 -77 -62.001l-95 -87.5l-101 -99.5l-95 -98l-77 -83.5v-10h286
l-78 -221h73z" />
    <glyph glyph-name="five" unicode="5" horiz-adv-x="444" 
d="M-45 -18c29.333 1.33301 60.5039 5.16602 93.5039 11.499s65.5 15.166 97.5 26.499s62.667 25.5 92 42.5s55.166 36.833 77.499 59.5s40.166 48.334 53.499 77.001s20 60.334 20 95.001c0 24 -4.16699 45.667 -12.5 65s-20 36 -35 50s-32.833 24.833 -53.5 32.5
s-43.667 11.5 -69 11.5c-12 0 -24 -0.833008 -36 -2.5s-23.667 -4.5 -35 -8.5l64 159c12 -15.333 28.667 -27.333 50 -36s41.666 -13 60.999 -13c36.667 0 69 8.33301 97 25s52.667 39.334 74 68.001l-13 13c-16.667 -18.667 -32.334 -33.334 -47.001 -44.001
s-35 -16 -61 -16c-16 0 -32 4.83301 -48 14.5s-26.667 22.167 -32 37.5h-108c2 -13.333 6.33301 -24.666 13 -33.999l-48.5 -128c-15.667 -42.667 -33.167 -85 -52.5 -127l11 -8c14.667 13.333 28.667 23.166 42 29.499s30 9.5 50 9.5c36 0 63.167 -10.333 81.5 -31
s27.5 -48.667 27.5 -84c0 -46.667 -10.833 -87 -32.5 -121s-49.667 -62.167 -84 -84.5s-72.5 -39.5 -114.5 -51.5s-83 -19 -123 -21v-17z" />
    <glyph glyph-name="six" unicode="6" horiz-adv-x="444" 
d="M507 668c-44 -2.66699 -86.165 -11.5039 -126.498 -26.5039s-77.833 -34.5 -112.5 -58.5s-66.167 -52 -94.5 -84s-52.5 -66.333 -72.5 -103s-35.5 -74.667 -46.5 -114s-16.5 -78.333 -16.5 -117c0 -20.667 2.33301 -41.834 7 -63.501s12.334 -41.334 23.001 -59.001
s24.334 -32.167 41.001 -43.5s37.334 -17 62.001 -17c30 0 58 9.83301 84 29.5s48.667 43.834 68 72.501s34.666 59.334 45.999 92.001s17 62 17 88c0 18 -2.16699 35.167 -6.5 51.5s-11.333 30.833 -21 43.5s-21.834 22.834 -36.501 30.501s-32 11.5 -52 11.5
c-16 0 -31.833 -1.83301 -47.5 -5.5s-30.5 -9.16699 -44.5 -16.5c13.333 34 30.666 66.833 51.999 98.5s46.166 59.834 74.499 84.501s59.666 44.834 93.999 60.501s70.5 24.834 108.5 27.501v18zM102.002 91.9961c0 36 4.33301 71.498 13 106.498s18.667 69.5 30 103.5
c4.66699 14 9 25.833 13 35.5s8.83301 17.334 14.5 23.001s13 9.83398 22 12.501s20.5 4 34.5 4c28.667 0 49 -9 61 -27s18 -40 18 -66c0 -18 -4 -42.5 -12 -73.5s-19 -61.667 -33 -92s-30.333 -56.5 -49 -78.5s-39 -33 -61 -33c-12 0 -21.333 2.66699 -28 8
s-11.667 12.333 -15 21s-5.5 18 -6.5 28s-1.5 19.333 -1.5 28z" />
    <glyph glyph-name="seven" unicode="7" horiz-adv-x="444" 
d="M156 0c15.333 54 36.6689 111.001 64.002 171.001s57.166 118.5 89.499 175.5s65.333 110.5 99 160.5s64.5 91.667 92.5 125l-3 18h-334l-51 -185h14c9.33301 23.333 16.666 42.666 21.999 57.999s11 27.333 17 36s13.167 14.667 21.5 18s19.833 5 34.5 5h224l-106 -137
c-38 -48 -74.5 -96.833 -109.5 -146.5s-66.5 -99.667 -94.5 -150s-48.667 -99.833 -62 -148.5h82z" />
    <glyph glyph-name="eight" unicode="8" horiz-adv-x="444" 
d="M400 559c0 -37.333 -10.5 -72.167 -31.5 -104.5s-48.167 -56.833 -81.5 -73.5c-6.66699 10 -13.5 21.167 -20.5 33.5s-13.333 25.166 -19 38.499s-10.167 26.833 -13.5 40.5s-5 26.834 -5 39.501c0 13.333 1.83301 26.833 5.5 40.5s9.16699 26 16.5 37s16.5 20 27.5 27
s24.167 10.5 39.5 10.5c26.667 0 47 -8.5 61 -25.5s21 -38.167 21 -63.5zM464 535.999c0 18.667 -3.00391 35.998 -9.00391 51.998s-14.5 30 -25.5 42s-24.5 21.333 -40.5 28s-33.667 10 -53 10c-52.667 0 -95 -14.833 -127 -44.5s-48 -71.5 -48 -125.5
c0 -28 5.16699 -53.833 15.5 -77.5s22.5 -46.834 36.5 -69.501l-67 -39.5c-23.333 -13.667 -44.666 -29.167 -63.999 -46.5s-35.166 -37 -47.499 -59s-18.5 -47.333 -18.5 -76c0 -21.333 4.33301 -41 13 -59s20.334 -33.667 35.001 -47s31.5 -23.666 50.5 -30.999
s38.5 -11 58.5 -11c26.667 0 51.334 5 74.001 15s42.5 23.667 59.5 41s30.333 37.666 40 60.999s14.5 48 14.5 74c0 36 -7.16699 70.333 -21.5 103s-29.833 64.334 -46.5 95.001c18 6.66699 37 14.834 57 24.501s38.5 21.334 55.5 35.001s31 29.167 42 46.5s16.5 37 16.5 59
zM288.996 154.997c0 -18.667 -2.33203 -36.999 -6.99902 -54.999s-11.667 -34.333 -21 -49s-21.5 -26.5 -36.5 -35.5s-33.167 -13.5 -54.5 -13.5c-13.333 0 -25 4 -35 12s-18.333 17.833 -25 29.5s-11.667 24.167 -15 37.5s-5 25.666 -5 36.999
c0 22.667 3.33301 44.667 10 66s15.834 41.5 27.501 60.5s25.5 36.667 41.5 53s33 30.5 51 42.5l24.5 -44c8.33301 -14.667 15.666 -29.5 21.999 -44.5s11.666 -30.5 15.999 -46.5s6.5 -32.667 6.5 -50z" />
    <glyph glyph-name="nine" unicode="9" horiz-adv-x="444" 
d="M-45 -18c67.333 10 130.17 29.333 188.503 58s109.166 65.167 152.499 109.5s77.5 96 102.5 155s37.5 123.833 37.5 194.5c0 19.333 -2.16699 39 -6.5 59s-11.333 38.167 -21 54.5s-21.834 29.666 -36.501 39.999s-32.667 15.5 -54 15.5c-33.333 0 -64 -9.5 -92 -28.5
s-52 -42.667 -72 -71s-35.667 -59 -47 -92s-17 -63.5 -17 -91.5c0 -41.333 10.167 -74 30.5 -98s52.166 -36 95.499 -36c13.333 0 27.5 2.33301 42.5 7s28.5 9.66699 40.5 15c-16 -35.333 -36.167 -68.166 -60.5 -98.499s-51.833 -57.166 -82.5 -80.499
s-64 -42.833 -100 -58.5s-73 -26.834 -111 -33.501zM168.004 368c0 18 4 42.501 12 73.501s19 61.5 33 91.5s30.333 56 49 78s39 33 61 33c12 0 21.333 -2.66699 28 -8s11.667 -12.166 15 -20.499s5.5 -17.333 6.5 -27s1.5 -19.167 1.5 -28.5
c0 -36 -4.33301 -71.5 -13 -106.5s-18.667 -69.5 -30 -103.5c-4.66699 -14 -9 -25.833 -13 -35.5s-8.83301 -17.334 -14.5 -23.001s-13 -9.83398 -22 -12.501s-20.5 -4 -34.5 -4c-28.667 0 -49 9 -61 27s-18 40 -18 66z" />
    <glyph glyph-name="colon" unicode=":" horiz-adv-x="222" 
d="M59 124c-18.667 0 -33.5 -7.16699 -44.5 -21.5s-16.5 -31.166 -16.5 -50.499c0 -16 4.33301 -28.667 13 -38s20 -14 34 -14c18.667 0 33.5 7.16699 44.5 21.5s16.5 31.166 16.5 50.499c0 16 -4.33301 28.667 -13 38s-20 14 -34 14zM143 384
c-18.667 0 -33.5 -7.16699 -44.5 -21.5s-16.5 -31.166 -16.5 -50.499c0 -16 4.33301 -28.667 13 -38s20 -14 34 -14c18.667 0 33.5 7.16699 44.5 21.5s16.5 31.166 16.5 50.499c0 16 -4.33301 28.667 -13 38s-20 14 -34 14z" />
    <glyph glyph-name="semicolon" unicode=";" horiz-adv-x="222" 
d="M-79 -148c18.667 12 38.835 26.166 60.502 42.499s41.667 34.333 60 54s33.666 40.834 45.999 63.501s18.5 46.334 18.5 71.001c0 11.333 -4.5 21 -13.5 29s-19.167 12 -30.5 12c-14 0 -27.167 -3.33301 -39.5 -10s-22.5 -15.667 -30.5 -27
c9.33301 -8.66699 17 -17.334 23 -26.001s9 -19.667 9 -33c0 -16 -3.33301 -32 -10 -48s-15.334 -31.5 -26.001 -46.5s-22.5 -28.667 -35.5 -41s-25.833 -22.833 -38.5 -31.5zM143.001 383.999c-18.667 0 -33.5 -7.16699 -44.5 -21.5s-16.5 -31.166 -16.5 -50.499
c0 -16 4.33301 -28.667 13 -38s20 -14 34 -14c18.667 0 33.5 7.16699 44.5 21.5s16.5 31.166 16.5 50.499c0 16 -4.33301 28.667 -13 38s-20 14 -34 14z" />
    <glyph glyph-name="semicolon" unicode="&#x37e;" horiz-adv-x="222" 
d="M-79 -148c18.667 12 38.835 26.166 60.502 42.499s41.667 34.333 60 54s33.666 40.834 45.999 63.501s18.5 46.334 18.5 71.001c0 11.333 -4.5 21 -13.5 29s-19.167 12 -30.5 12c-14 0 -27.167 -3.33301 -39.5 -10s-22.5 -15.667 -30.5 -27
c9.33301 -8.66699 17 -17.334 23 -26.001s9 -19.667 9 -33c0 -16 -3.33301 -32 -10 -48s-15.334 -31.5 -26.001 -46.5s-22.5 -28.667 -35.5 -41s-25.833 -22.833 -38.5 -31.5zM143.001 383.999c-18.667 0 -33.5 -7.16699 -44.5 -21.5s-16.5 -31.166 -16.5 -50.499
c0 -16 4.33301 -28.667 13 -38s20 -14 34 -14c18.667 0 33.5 7.16699 44.5 21.5s16.5 31.166 16.5 50.499c0 16 -4.33301 28.667 -13 38s-20 14 -34 14z" />
    <glyph glyph-name="less" unicode="&#x3c;" horiz-adv-x="500" 
d="M414 47l-320 135l320 146v50l-366 -171v-50l366 -159v49z" />
    <glyph glyph-name="equal" unicode="=" horiz-adv-x="500" 
d="M418 284h-374v-50h374v50zM418 143h-374v-50h374v50z" />
    <glyph glyph-name="greater" unicode="&#x3e;" horiz-adv-x="500" 
d="M48 -2l366 159v50l-366 171v-50l320 -146l-320 -135v-49z" />
    <glyph glyph-name="question" unicode="?" horiz-adv-x="389" 
d="M144 161c8 29.333 19.834 55.667 35.501 79s32.667 45.166 51 65.499s37.166 39.833 56.499 58.5s36.833 37.667 52.5 57s28.5 39.5 38.5 60.5s15 44.167 15 69.5c0 17.333 -3.16699 33.333 -9.5 48s-15 27.334 -26 38.001s-24 18.834 -39 24.501s-31.167 8.5 -48.5 8.5
c-8.66699 0 -20 -1.83301 -34 -5.5s-27.5 -8.5 -40.5 -14.5s-24.333 -12.833 -34 -20.5s-14.5 -15.5 -14.5 -23.5c0 -4 1.83301 -8.83301 5.5 -14.5s8 -11 13 -16s10.333 -9.33301 16 -13s10.5 -5.5 14.5 -5.5l16 31.5c5.33301 11 11.5 21.167 18.5 30.5
s15 17.166 24 23.499s19.5 9.5 31.5 9.5c8 0 14.833 -1.83301 20.5 -5.5s10.167 -8.5 13.5 -14.5s5.66602 -12.333 6.99902 -19s2 -13 2 -19c0 -20 -4.5 -40.5 -13.5 -61.5s-20.333 -42.833 -34 -65.5s-28.667 -46 -45 -70s-31.666 -48.667 -45.999 -74
s-26.833 -51.5 -37.5 -78.5s-17 -54.833 -19 -83.5h10zM119.001 124.001c-18.667 0 -33.5 -7.16699 -44.5 -21.5s-16.5 -31.166 -16.5 -50.499c0 -16 4.33301 -28.667 13 -38s20 -14 34 -14c18.667 0 33.5 7.16699 44.5 21.5s16.5 31.166 16.5 50.499
c0 16 -4.33301 28.667 -13 38s-20 14 -34 14z" />
    <glyph glyph-name="at" unicode="@" horiz-adv-x="800" 
d="M346 262c0 31.333 5.16797 59.165 15.501 83.498s22.833 45 37.5 62s30.167 29.833 46.5 38.5s30.5 13 42.5 13c28.667 0 43 -21 43 -63c-3.33301 -36 -9.33301 -67.5 -18 -94.5s-18.834 -49.667 -30.501 -68s-23.667 -32.166 -36 -41.499s-23.5 -14 -33.5 -14
c-18.667 0 -34.5 6.33301 -47.5 19s-19.5 34.334 -19.5 65.001zM547.001 448.999l-10.0049 18.5029c-3.33301 6.33301 -7.66602 12 -12.999 17s-11.833 9 -19.5 12s-17.167 4.5 -28.5 4.5c-34 0 -63.333 -9.16699 -88 -27.5s-45.167 -40.333 -61.5 -66s-28.5 -52 -36.5 -79
s-12 -49.167 -12 -66.5c0 -28.667 3.83301 -51.334 11.5 -68.001s16.834 -29.167 27.501 -37.5s21.334 -13.5 32.001 -15.5s19.334 -3 26.001 -3c14.667 1.33301 28.334 5 41.001 11s24 12.667 34 20s18.5 14.666 25.5 21.999s11.833 13 14.5 17h2
c0 -3.33301 1.5 -8.83301 4.5 -16.5s8 -15.5 15 -23.5s16.167 -15.167 27.5 -21.5s25.333 -9.5 42 -9.5c30 0 56.5 7.66699 79.5 23s42.5 34.833 58.5 58.5s28 49.5 36 77.5s12 54.667 12 80c0 42 -8.5 81 -25.5 117s-40.167 67 -69.5 93s-64 46.5 -104 61.5
s-83 22.5 -129 22.5c-49.333 0 -96.166 -8.66699 -140.499 -26s-83.166 -41.833 -116.499 -73.5s-59.666 -69.5 -78.999 -113.5s-29 -93 -29 -147c0 -34 7.33301 -70.167 22 -108.5s37.167 -74 67.5 -107s69.166 -60.333 116.499 -82s103.666 -32.5 168.999 -32.5
c39.333 0 76.166 5.83301 110.499 17.5s67.833 24.5 100.5 38.5l-14 26c-14 -6.66699 -28.167 -12.834 -42.5 -18.501s-29.166 -10.667 -44.499 -15s-32.166 -7.83301 -50.499 -10.5s-38.5 -4 -60.5 -4c-45.333 0 -86.333 8.16699 -123 24.5s-67.834 37.833 -93.501 64.5
s-45.334 57 -59.001 91s-20.5 69 -20.5 105c0 55.333 7.33301 104.5 22 147.5s35 79.167 61 108.5s56.5 51.5 91.5 66.5s72.5 22.5 112.5 22.5c46.667 0 88.334 -8.66699 125.001 -26s67.5 -39.166 92.5 -65.499s44 -55.333 57 -87s19.5 -61.834 19.5 -90.501
c0 -22 -3 -45.167 -9 -69.5s-14.833 -46.5 -26.5 -66.5s-25.834 -36.667 -42.501 -50s-36 -20 -58 -20c-12 0 -20.833 2.66699 -26.5 8s-9.5 11.5 -11.5 18.5s-2.5 13.833 -1.5 20.5s1.83301 11.667 2.5 15l65 258h-67z" />
    <glyph glyph-name="A" unicode="A" horiz-adv-x="593" 
d="M199 308c29.333 46.667 59.833 92.332 91.5 136.999s65.167 87.334 100.5 128.001v-265h-192zM391 279.998v-185.998c0 -12 -1.5 -22.333 -4.5 -31s-8.5 -16 -16.5 -22s-18.833 -11.333 -32.5 -16s-31.167 -9.66699 -52.5 -15v-14c24 2 48 3.16699 72 3.5s48 0.5 72 0.5
c19.333 -0 38.833 -0.166992 58.5 -0.5s39.167 -1.5 58.5 -3.5v14c-7.33301 3.33301 -15.166 6.16602 -23.499 8.49902s-15.833 5.33301 -22.5 9s-12.167 8.33398 -16.5 14.001s-6.5 13.5 -6.5 23.5v599l-23 6c-22.667 -22 -46.667 -47.833 -72 -77.5l-76 -93.5l-74 -100
l-68 -97l-57.5 -85l-41.5 -64l-43 -62c-12 -16.667 -23.667 -30.334 -35 -41.001s-23.166 -19 -35.499 -25s-27.5 -11 -45.5 -15v-14c19.333 1.33301 38.166 2.33301 56.499 3s37.166 1 56.499 1c20.667 0 41 -0.166992 61 -0.5s40.333 -1.5 61 -3.5v14
c-6 2 -13.167 3.66699 -21.5 5s-16.333 3.33301 -24 6s-14.167 6.5 -19.5 11.5s-8 11.5 -8 19.5c0 9.33301 5 24.833 15 46.5s21.5 44.667 34.5 69s25.833 47.166 38.5 68.499s22 36 28 44h207z" />
    <glyph glyph-name="B" unicode="B" horiz-adv-x="593" 
d="M162 636c5.33301 -0.666992 12.499 -1.49902 21.499 -2.49902s17.833 -2.83301 26.5 -5.5s16.167 -6.33398 22.5 -11.001s9.5 -11 9.5 -19c0 -3.33301 -2.16699 -12.5 -6.5 -27.5s-10.166 -33.667 -17.499 -56l-25.5 -75l-30 -85.5l-31 -87.5l-29 -81l-23.5 -65.5
l-15 -41c-4.66699 -12.667 -9.33398 -22.834 -14.001 -30.501s-10.5 -13.667 -17.5 -18s-16 -8 -27 -11s-24.833 -6.16699 -41.5 -9.5l-2 -14c22.667 2 45.167 3.16699 67.5 3.5s44.833 0.5 67.5 0.5s46 -0.666992 70 -2s54 -2 90 -2c28.667 0 59.5 4.5 92.5 13.5
s63.5 22.833 91.5 41.5s51.333 42.334 70 71.001s28 62.334 28 101.001c0 46 -13.167 80.333 -39.5 103s-61.166 36 -104.499 40v3c23.333 5.33301 45 11.666 65 18.999s37.167 16.5 51.5 27.5s25.5 24.333 33.5 40s12 34.834 12 57.501c0 25.333 -4.66699 46.833 -14 64.5
s-22 32.167 -38 43.5s-34.5 19.666 -55.5 24.999s-43.167 8 -66.5 8c-42.667 0 -80.667 -0.666992 -114 -2s-68.333 -2 -105 -2zM250.999 356.001c28.667 0 54.832 -1.83301 78.499 -5.5s44 -10.334 61 -20.001s30.333 -22.667 40 -39s14.5 -37.166 14.5 -62.499
c0 -30 -5.16699 -57.833 -15.5 -83.5s-24.5 -48.167 -42.5 -67.5s-39.167 -34.5 -63.5 -45.5s-50.166 -16.5 -77.499 -16.5c-42 0 -74.667 10.667 -98 32zM346.997 628.001c4.66699 2 10.667 3.50098 18 4.50098s12.333 1.5 15 1.5c30 0 53 -7.5 69 -22.5s24 -33.5 24 -55.5
c0 -38.667 -5.33301 -69.834 -16 -93.501s-25.5 -42 -44.5 -55s-41.833 -21.5 -68.5 -25.5s-56 -6 -88 -6z" />
    <glyph glyph-name="C" unicode="C" horiz-adv-x="630" 
d="M593 448c6 32 12.334 64 19.001 96s14 64 22 96c-18.667 9.33301 -39 16.666 -61 21.999s-43.667 8 -65 8c-62 0 -120.5 -13.5 -175.5 -40.5s-103.167 -62.833 -144.5 -107.5s-74 -95.5 -98 -152.5s-36 -115.167 -36 -174.5c0 -30.667 4.83301 -59.167 14.5 -85.5
s23.5 -49.166 41.5 -68.499s39.833 -34.333 65.5 -45s54.167 -16 85.5 -16c32 0 63.833 6.83301 95.5 20.5s61.334 31.334 89.001 53.001s52.834 46 75.501 73s41 54.167 55 81.5l-13 9c-14.667 -22.667 -31 -45.167 -49 -67.5s-37.833 -42.5 -59.5 -60.5
s-45.167 -32.667 -70.5 -44s-52.666 -17 -81.999 -17c-28 0 -51.833 4.83301 -71.5 14.5s-35.5 23 -47.5 40s-20.833 36.667 -26.5 59s-8.5 46.166 -8.5 71.499c0 26 3.16699 54.667 9.5 86s15.333 63 27 95s26 63 43 93s36.5 56.667 58.5 80s46.333 42 73 56s55 21 85 21
c27.333 0 49.666 -5.83301 66.999 -17.5s31.166 -26.834 41.499 -45.501s17.666 -39.667 21.999 -63s7.16602 -46.666 8.49902 -69.999h10z" />
    <glyph glyph-name="D" unicode="D" horiz-adv-x="667" 
d="M165 0l35.0039 0.000976562c13.333 0 27.166 0.333008 41.499 1s28.666 1.66699 42.999 3s27.166 3.33301 38.499 6c48 10 92.167 29 132.5 57s75.166 61.833 104.499 101.5s52.333 83.5 69 131.5s25 97 25 147c0 74.667 -19.833 128.834 -59.5 162.501
s-94.834 50.5 -165.501 50.5c-17.333 0 -36.166 -0.333008 -56.499 -1s-40.833 -1.5 -61.5 -2.5s-41 -1.83301 -61 -2.5s-38.667 -1.33398 -56 -2.00098l-71 -2v-10c6 -0.666992 15 -1.83398 27 -3.50098s24 -4 36 -7s22.5 -7.16699 31.5 -12.5s13.5 -12.333 13.5 -21
c0 -10 -4.16699 -29.833 -12.5 -59.5s-18.833 -63.5 -31.5 -101.5l-41.5 -120l-42 -116.5l-33.5 -89.5c-9.33301 -24 -14.333 -37.333 -15 -40c-1.33301 -4 -3.83301 -8.83301 -7.5 -14.5s-9.5 -11.334 -17.5 -17.001s-18.667 -10.667 -32 -15s-31 -7.16602 -53 -8.49902
l-2 -14h222zM560.004 448.001c0 -49.333 -6.99902 -99.334 -20.999 -150.001s-34.833 -96.667 -62.5 -138s-62.334 -75 -104.001 -101s-90.5 -39 -146.5 -39c-14.667 0 -29.5 1 -44.5 3s-29.167 6 -42.5 12l97.5 299.5l102.5 297.5c25.333 5.33301 50.333 8 75 8
c27.333 0 50.333 -5 69 -15s33.667 -23.667 45 -41s19.5 -37.666 24.5 -60.999s7.5 -48.333 7.5 -75z" />
    <glyph glyph-name="E" unicode="E" horiz-adv-x="593" 
d="M-48 -4c21.333 1.33301 43.0029 2.33301 65.0029 3s43.667 1 65 1h112c41.333 -0 81.5 -0.166992 120.5 -0.5s74 -0.833008 105 -1.5s52.833 -1.33398 65.5 -2.00098l35 90c11.333 30 24.666 59.333 39.999 88l-8 10c-28.667 -23.333 -55.167 -49.333 -79.5 -78
s-48.5 -58.667 -72.5 -90c-16.667 0 -36.834 1 -60.501 3s-48 4.16699 -73 6.5s-49 4.83301 -72 7.5s-41.833 4.66699 -56.5 6l98 295h123c5.33301 0 10 -2.5 14 -7.5s6 -13.167 6 -24.5c0 -18.667 -0.666992 -37 -2 -55s-3 -36.333 -5 -55h19c14 48 29.5 95 46.5 141
s35.167 92 54.5 138h-21c-16 -26 -29.167 -46.5 -39.5 -61.5s-22.833 -26.167 -37.5 -33.5s-33.334 -12.166 -56.001 -14.499s-54.334 -3.5 -95.001 -3.5l100 268h94c31.333 0 63 -2 95 -6l8 -33c3.33301 -14 7.5 -28.5 12.5 -43.5s10.5 -29.167 16.5 -42.5
s12.333 -23.666 19 -30.999h12l-2 45.5c-0.666992 15 -1 30.167 -1 45.5s0.333008 30.166 1 44.499l2 44.5h-454v-14c5.33301 -0.666992 12.833 -2 22.5 -4s19.334 -4.83301 29.001 -8.5s18.167 -7.66699 25.5 -12s11 -9.5 11 -15.5c0 -3.33301 -3.83301 -17.333 -11.5 -42
l-29 -90.5l-39 -117l-42.5 -121.5l-38.5 -104c-11.667 -30.667 -20.5 -52 -26.5 -64c-8 -16 -20.667 -26.833 -38 -32.5s-36.333 -11.5 -57 -17.5v-11z" />
    <glyph glyph-name="F" unicode="F" horiz-adv-x="556" 
d="M336 628l186.996 -4.00488c4 -27.333 8.33301 -49.166 13 -65.499s9.83398 -30 15.501 -41s11.334 -21 17.001 -30s11.167 -19.833 16.5 -32.5h12c-1.33301 18 -2.16602 36.167 -2.49902 54.5s-0.5 36.833 -0.5 55.5c0 14 0.166992 28.167 0.5 42.5
s1.16602 28.5 2.49902 42.5h-486l-2 -14c6 -1.33301 15.667 -3.33301 29 -6s26.833 -6 40.5 -10s25.5 -9.16699 35.5 -15.5s15 -14.166 15 -23.499c0 -6.66699 -3.33301 -21.334 -10 -44.001s-15.334 -50 -26.001 -82l-35.5 -104l-38 -109l-34.5 -98l-25 -71
c-4 -11.333 -8.16699 -20.166 -12.5 -26.499s-10.166 -11.5 -17.499 -15.5s-16.833 -7.5 -28.5 -10.5s-26.5 -6.5 -44.5 -10.5l-2 -14c24 1.33301 48.167 2.33301 72.5 3s48.5 1 72.5 1c32.667 0 65 -0.333008 97 -1s64.333 -1.66699 97 -3v14c-6 0.666992 -16.667 2 -32 4
s-31 5 -47 9s-30.167 9 -42.5 15s-18.5 13 -18.5 21c0 6 1.83301 16 5.5 30s8.33398 30.167 14.001 48.5s12 37.833 19 58.5l20.5 60.5l18 54c5.33301 16.333 9.33301 29.5 12 39.5c31.333 0 56 -0.833008 74 -2.5s31.667 -5.5 41 -11.5s15.333 -14.667 18 -26s4 -27 4 -47
c0 -13.333 -0.666992 -24.833 -2 -34.5s-1.66602 -19.167 -0.999023 -28.5h11c11.333 43.333 24.833 85.833 40.5 127.5s32.5 82.834 50.5 123.501l-8 10c-14.667 -21.333 -27.667 -38.166 -39 -50.499s-24.5 -21.666 -39.5 -27.999s-33.5 -10.333 -55.5 -12
s-51 -2.5 -87 -2.5z" />
    <glyph glyph-name="G" unicode="G" horiz-adv-x="685" 
d="M696 624c-28 12.667 -58.166 23.502 -90.499 32.502s-70.166 13.5 -113.499 13.5c-54.667 0 -108.667 -12 -162 -36s-100.833 -56.833 -142.5 -98.5s-75.334 -90.5 -101.001 -146.5s-38.5 -116 -38.5 -180c0 -36.667 6.33301 -69.167 19 -97.5s30.167 -52.333 52.5 -72
s48.666 -34.5 78.999 -44.5s62.833 -15 97.5 -15c22.667 0 45.167 2.16699 67.5 6.5s44.5 10 66.5 17s43.667 14.667 65 23l63 23.5v10c-6.66699 -0.666992 -13.167 -0.333984 -19.5 0.999023l-18.5 4c12 47.333 22.5 84.5 31.5 111.5s18.5 47.667 28.5 62s21.667 24 35 29
s30.666 9.16699 51.999 12.5v12c-21.333 -1.33301 -42.666 -2.5 -63.999 -3.5s-42.666 -1.5 -63.999 -1.5c-23.333 0 -46.833 0.5 -70.5 1.5s-47.167 2.16699 -70.5 3.5v-12c4 -2 10.833 -4.16699 20.5 -6.5s19.5 -5 29.5 -8s18.833 -6.66699 26.5 -11s11.5 -9.5 11.5 -15.5
c0 -2 -2.16699 -10.333 -6.5 -25l-14.5 -48l-15.5 -50c-5 -16 -8.16699 -26.333 -9.5 -31c-4.66699 -15.333 -12 -28.166 -22 -38.499s-21.167 -18.666 -33.5 -24.999s-25.833 -10.833 -40.5 -13.5s-29.334 -4 -44.001 -4c-29.333 0 -54 5 -74 15s-36.333 23.667 -49 41
s-21.667 37.666 -27 60.999s-8 48.333 -8 75c0 28.667 3.66699 59.5 11 92.5s18 66.167 32 99.5s31 65.5 51 96.5s42.333 58.5 67 82.5s51.5 43.167 80.5 57.5s59.833 21.5 92.5 21.5c30.667 0 55.5 -4.83301 74.5 -14.5s34 -22.834 45 -39.501s18.5 -36.334 22.5 -59.001
s6.33301 -47 7 -73h12z" />
    <glyph glyph-name="H" unicode="H" horiz-adv-x="722" 
d="M211 10c-4 0 -9.99316 0.830078 -17.9932 2.49707s-16 4 -24 7s-15.167 6.83301 -21.5 11.5s-9.5 10 -9.5 16c0 4.66699 2 13.5 6 26.5s9 28.167 15 45.5l19.5 56.5l20.5 58l17.5 49.5c5 14.667 8.16699 25.667 9.5 33h284l-73 -203c-8 -21.333 -15 -38.166 -21 -50.499
s-13 -22 -21 -29s-17.833 -12 -29.5 -15s-27.167 -5.83301 -46.5 -8.5v-14c25.333 1.33301 51 2.33301 77 3s51.667 1 77 1c22 0 43.833 -0.333008 65.5 -1s43.5 -1.66699 65.5 -3v14c-5.33301 0 -13 1 -23 3s-20 4.83301 -30 8.5s-18.833 8.33398 -26.5 14.001
s-11.5 12.167 -11.5 19.5c0 2 2.5 11.333 7.5 28s11.667 37.667 20 63l28.5 86l33.5 98l35 98c11.667 32 22.667 60.833 33 86.5s19.333 46.667 27 63s13.167 25.833 16.5 28.5c15.333 10 29.666 17.5 42.999 22.5s28.666 8.83301 45.999 11.5v14
c-22.667 -0.666992 -45.334 -1.5 -68.001 -2.5s-45.334 -1.5 -68.001 -1.5c-24 0 -48 0.333008 -72 1s-48 1.66699 -72 3v-14c6.66699 -1.33301 14.5 -2.66602 23.5 -3.99902s17.667 -3.5 26 -6.5s15.5 -7 21.5 -12s9 -12.167 9 -21.5
c0 -4.66699 -1.83301 -13.167 -5.5 -25.5s-8.33398 -26.666 -14.001 -42.999l-18.5 -53l-19 -54l-16 -46c-4.66699 -13.667 -8 -23.834 -10 -30.501h-284c11.333 36 23.666 71.833 36.999 107.5l42 107.5c6 15.333 12.667 27.666 20 36.999s15.5 17 24.5 23
s19.333 10.5 31 13.5s25.167 5.5 40.5 7.5v14c-24 -1.33301 -47.833 -2.33301 -71.5 -3s-47.5 -1 -71.5 -1c-22.667 0 -45.167 0.333008 -67.5 1s-44.833 1.66699 -67.5 3v-14c22 -4 40.333 -8.33301 55 -13s22 -13.667 22 -27c0 -6 -4 -22 -12 -48l-30 -93.5l-40 -117
l-42 -117.5l-35 -96c-10 -27.333 -16.667 -44.666 -20 -51.999c-4.66699 -12 -9.33398 -21.5 -14.001 -28.5s-10.5 -12.5 -17.5 -16.5s-16.167 -7.33301 -27.5 -10s-26.333 -5.66699 -45 -9v-16c22.667 1.33301 45.167 2.33301 67.5 3s44.5 1 66.5 1
c21.333 0 43 -0.333008 65 -1s43.667 -1.66699 65 -3v14z" />
    <glyph glyph-name="I" unicode="I" horiz-adv-x="370" 
d="M-43 -4c22 1.33301 43.8311 2.33301 65.498 3s43.5 1 65.5 1c23.333 0 46.833 -0.333008 70.5 -1s47.167 -1.66699 70.5 -3v14c-4 0.666992 -10.667 1.5 -20 2.5s-18.833 2.5 -28.5 4.5s-18 4.83301 -25 8.5s-10.5 8.83398 -10.5 15.501c0 4.66699 3.66699 19 11 43
s16.833 53.167 28.5 87.5l39 112l41 115.5l35.5 98c10.667 28.667 18.334 48.667 23.001 60c7.33301 17.333 13.833 31 19.5 41s12.334 17.833 20.001 23.5s17 9.66699 28 12s25.5 4.5 43.5 6.5l3 14c-21.333 -1.33301 -44 -2.33301 -68 -3s-46.667 -1 -68 -1
c-23.333 0 -46.833 0.333008 -70.5 1s-47.167 1.66699 -70.5 3v-14c6 0 13.5 -0.666992 22.5 -2s17.833 -3.5 26.5 -6.5s16.167 -6.83301 22.5 -11.5s9.5 -10.334 9.5 -17.001c0 -7.33301 -3.83301 -23.666 -11.5 -48.999s-17.5 -55.666 -29.5 -90.999l-39.5 -113
l-41.5 -115l-35.5 -97.5l-21.5 -59.5c-4 -10.667 -8 -19.334 -12 -26.001s-9.5 -12.334 -16.5 -17.001s-16.5 -8.66699 -28.5 -12l-48 -13v-14z" />
    <glyph glyph-name="J" unicode="J" horiz-adv-x="500" 
d="M269 640c5.33301 0 14.5049 -0.5 27.5049 -1.5s26.167 -2.83301 39.5 -5.5s25.333 -6.5 36 -11.5s16 -11.5 16 -19.5c0 -2 -1.66699 -9 -5 -21s-7.83301 -27.333 -13.5 -46l-19.5 -62.5l-22.5 -71l-23 -71.5l-21.5 -63l-15 -46c-6 -18 -13 -37 -21 -57
s-16.833 -39.667 -26.5 -59s-20.334 -36.833 -32.001 -52.5s-24.5 -28.334 -38.5 -38.001s-29.333 -14.5 -46 -14.5c-22.667 0 -39.834 5.16699 -51.501 15.5s-17.834 27.166 -18.501 50.499c14 0 28 4.66699 42 14s21 21.666 21 36.999c0 16 -4.66699 28.167 -14 36.5
s-22 12.5 -38 12.5c-10 0 -19.167 -2.5 -27.5 -7.5s-15.166 -11.167 -20.499 -18.5s-9.5 -15.666 -12.5 -24.999s-4.5 -18.666 -4.5 -27.999c0 -17.333 3.33301 -32.666 10 -45.999s15.667 -24.5 27 -33.5s24.166 -15.833 38.499 -20.5s29.5 -7 45.5 -7
c23.333 0 47 5.5 71 16.5s46.5 25 67.5 42s39.667 35.833 56 56.5s28.166 41 35.499 61c19.333 53.333 39 111.333 59 174s40.667 123.667 62 183c7.33301 20 13.5 37.5 18.5 52.5s11.5 27.5 19.5 37.5s19.167 18 33.5 24s34.166 10.333 59.499 13v14
c-28.667 -1.33301 -57.167 -2.33301 -85.5 -3s-56.833 -1 -85.5 -1c-24 0 -47.833 0.333008 -71.5 1s-47.5 1.66699 -71.5 3v-14z" />
    <glyph glyph-name="K" unicode="K" horiz-adv-x="685" 
d="M-50 -4c24 1.33301 47.834 2.33105 71.501 2.99805s47.5 1 71.5 1c28 0 56.167 -0.333008 84.5 -1s56.5 -1.66699 84.5 -3v14c-4.66699 0.666992 -13.5 2.33398 -26.5 5.00098s-26.167 6 -39.5 10s-25.333 8.16699 -36 12.5s-16 8.5 -16 12.5
c0 9.33301 2.66699 23.333 8 42s12 39.5 20 62.5l25 70.5l23 64l114 76l31 -88.5l32 -95.5c10 -30.667 18.5 -57.834 25.5 -81.501s10.5 -39.167 10.5 -46.5c0 -6 -3.16699 -11.167 -9.5 -15.5s-14 -8.16602 -23 -11.499s-18 -6.33301 -27 -9s-16.167 -5 -21.5 -7v-14
c23.333 1.33301 46.5 2.33301 69.5 3s46.167 1 69.5 1c24.667 0 49 -0.333008 73 -1s48.333 -1.66699 73 -3v14c-10.667 4 -21.5 7.33301 -32.5 10s-21.333 6 -31 10s-18.5 9.16699 -26.5 15.5s-14.667 15.166 -20 26.499l-16.5 40.5l-23 60l-25.5 70l-24.5 70l-20.5 60.5
c-6 18 -10.333 31.333 -13 40c29.333 20 58.333 40.833 87 62.5l87 63.5c29.333 20.667 59 39.834 89 57.501s60.667 32.167 92 43.5v14c-22.667 -1.33301 -45.334 -2.33301 -68.001 -3s-45.334 -1 -68.001 -1s-45.167 0.333008 -67.5 1s-44.833 1.66699 -67.5 3v-14l21 -3
c9.33301 -1.33301 18.833 -3 28.5 -5s18.167 -4.83301 25.5 -8.5s11 -8.5 11 -14.5c0 -8.66699 -6.83301 -20.667 -20.5 -36s-31.167 -32.166 -52.5 -50.499s-45.166 -37.666 -71.499 -57.999l-77.5 -58l-70.5 -50l-50.5 -34.5l-2 2l95 259c3.33301 11.333 9 20.5 17 27.5
s17.333 12.5 28 16.5s21.834 6.83301 33.501 8.5l32.5 4.5v14c-21.333 -0.666992 -43 -1.5 -65 -2.5s-43.667 -1.5 -65 -1.5c-28 0 -55.5 0.333008 -82.5 1s-54.167 1.66699 -81.5 3v-14c4 -0.666992 11.167 -2 21.5 -4s20.833 -4.83301 31.5 -8.5
s20.167 -7.83398 28.5 -12.501s12.5 -10.667 12.5 -18c0 -2.66699 -3.66699 -15.667 -11 -39l-28 -87l-38.5 -114l-42.5 -121l-39.5 -108c-12.333 -32.667 -22.5 -57.667 -30.5 -75c-2.66699 -6 -8 -11.167 -16 -15.5s-16.667 -8 -26 -11s-18.833 -5.5 -28.5 -7.5
s-17.834 -4 -24.501 -6v-17z" />
    <glyph glyph-name="L" unicode="L" horiz-adv-x="574" 
d="M-55 -4c21.333 1.33301 42.334 2.33594 63.001 3.00293s41.667 1 63 1h161c44 0 80.833 -0.166992 110.5 -0.5s53.167 -0.5 70.5 -0.5s30.833 -0.166992 40.5 -0.5s16.667 -0.666016 21 -0.999023s8.5 -0.833008 12.5 -1.5c9.33301 46 20 91.667 32 137
s31.667 87.666 59 126.999l-12 9c-34 -36 -66 -73.333 -96 -112s-57 -79.334 -81 -122.001c-10.667 -2 -23.5 -3.83301 -38.5 -5.5s-30.333 -2.83398 -46 -3.50098s-30.834 -1.16699 -45.501 -1.5s-27.667 -0.5 -39 -0.5c-9.33301 0 -18.833 0.166992 -28.5 0.5
s-18.5 0.833008 -26.5 1.5s-14.5 2 -19.5 4s-7.5 4.33301 -7.5 7c0 4.66699 3.83301 19.5 11.5 44.5s17.5 55.5 29.5 91.5l40 117.5l43 121.5l38 104c11.333 30.667 19.666 52.667 24.999 66c6.66699 15.333 23.667 27.5 51 36.5s68 16.167 122 21.5v14
c-30.667 -1.33301 -61.167 -2.33301 -91.5 -3s-60.833 -1 -91.5 -1c-27.333 0 -54.166 0.5 -80.499 1.5s-52.833 1.83301 -79.5 2.5v-14c6 -2.66699 13.333 -5 22 -7s17 -4.66699 25 -8s14.667 -7.5 20 -12.5s8 -11.5 8 -19.5c0 -2.66699 -3.5 -15.334 -10.5 -38.001
l-27 -83.5l-36 -107.5l-38 -111l-33.5 -94l-21 -57c-6 -16 -12.5 -29 -19.5 -39s-15 -18.333 -24 -25s-19.667 -12 -32 -16s-26.833 -8 -43.5 -12v-14z" />
    <glyph glyph-name="M" unicode="M" horiz-adv-x="852" 
d="M-78 -4c15.333 2 30.667 3.16602 46 3.49902s30.666 0.5 45.999 0.5c21.333 0 42.5 -0.333008 63.5 -1s42.167 -1.66699 63.5 -3v14c-4.66699 2 -12.5 3.83301 -23.5 5.5s-22.333 4.16699 -34 7.5s-21.834 7.83301 -30.501 13.5s-13 12.834 -13 21.501
c0 7.33301 7.16699 23.333 21.5 48s32.5 53.834 54.5 87.501l73 108.5l77 110.5l66.5 93.5l41.5 58l2 -2c-4 -28 -9.83301 -61 -17.5 -99l-25 -118.5l-27.5 -121.5l-25 -109.5l-18 -82c-4.66699 -21.667 -7 -34.834 -7 -39.501c0 -2 0.333008 -4.5 1 -7.5s3 -4.5 7 -4.5
c1.33301 0 8.33301 7.5 21 22.5l49.5 60l69.5 86.5l80.5 102l82.5 105.5l76 97.5l61 79l37 49l2 -3c-10 -23.333 -20.667 -50.333 -32 -81l-34.5 -97l-35.5 -102.5l-33.5 -97l-29 -82c-9 -24.333 -16.5 -42.833 -22.5 -55.5c-4.66699 -10 -9.83398 -17.667 -15.501 -23
s-12.167 -9.66602 -19.5 -12.999s-16 -6.16602 -26 -8.49902s-21.333 -5.5 -34 -9.5l-3 -14c22 1.33301 44 2.33301 66 3s44 1 66 1c25.333 0 50.5 -0.166992 75.5 -0.5s50.167 -1.5 75.5 -3.5v14c-4.66699 0.666992 -12.167 2.16699 -22.5 4.5s-20.833 5.33301 -31.5 9
s-20.167 7.83398 -28.5 12.501s-12.5 9.66699 -12.5 15c0 6 4 21.833 12 47.5l30 93l40 117l42 118.5l36 98.5l21 56.5c2.66699 6 6.16699 11.667 10.5 17s10.5 10.166 18.5 14.499s18.333 8.66602 31 12.999s28.667 8.83301 48 13.5v14
c-14.667 -1.33301 -29.334 -2.33301 -44.001 -3s-29.334 -1 -44.001 -1c-16.667 0 -33 0.5 -49 1.5s-32.333 1.83301 -49 2.5l-4 -15.5c-1.33301 -5 -3.33301 -10.167 -6 -15.5c-4.66699 -8.66699 -14.167 -23.167 -28.5 -43.5l-52.5 -72l-69 -89.5l-77.5 -97.5l-78 -96.5
l-69.5 -86l-2 2c12 43.333 22.833 87 32.5 131l28 130.5l28 128c9.66699 42.333 20.834 83.833 33.501 124.5c-17.333 -0.666992 -34.666 -1.5 -51.999 -2.5s-34.666 -1.5 -51.999 -1.5c-21.333 0 -43 0.333008 -65 1s-43.667 1.66699 -65 3v-14
c6 -1.33301 15.167 -2.83301 27.5 -4.5s24.833 -4.33398 37.5 -8.00098s23.834 -8.5 33.501 -14.5s14.5 -13.667 14.5 -23c0 -2 -4.83301 -10.333 -14.5 -25l-39 -56.5l-57 -79l-69 -92l-74 -96l-72 -92l-63.5 -78c-19.333 -23 -35.666 -41.5 -48.999 -55.5z" />
    <glyph glyph-name="N" unicode="N" horiz-adv-x="704" 
d="M-80 -4c22.667 1.33301 45.3281 2.33105 67.9951 2.99805s45.334 1 68.001 1s45.167 -0.333008 67.5 -1s44.5 -1.66699 66.5 -3v14c-7.33301 2 -16.5 4.66699 -27.5 8s-21.833 7.16602 -32.5 11.499s-19.667 9.66602 -27 15.999s-11 13.833 -11 22.5
c0 6 3.33301 21.167 10 45.5s15.334 53.333 26.001 87l35 109.5l36 111.5l30.5 92.5l18.5 54c40 -95.333 77.833 -191.166 113.5 -287.499l104.5 -290.5h18l27 87l34 105.5l38 112.5l38 107.5l33 90c10 26.333 18.333 46.833 25 61.5c6 14 12.5 25.667 19.5 35
s14.833 17.333 23.5 24s18.667 12 30 16s24.666 7.66699 39.999 11v14c-20 -0.666992 -40.167 -1.5 -60.5 -2.5s-40.5 -1.5 -60.5 -1.5c-22.667 0 -45 0.5 -67 1.5s-44.333 1.83301 -67 2.5v-14c8 -2 18 -4.16699 30 -6.5s23.833 -5.66602 35.5 -9.99902
s21.667 -10.166 30 -17.499s12.5 -16.666 12.5 -27.999c0 -4 -2.16699 -13.833 -6.5 -29.5s-10.166 -35.167 -17.499 -58.5l-24.5 -77l-27 -84l-26.5 -80.5l-22 -65.5l-13 -39.5c-2.66699 -8.33301 -3 -9.16602 -1 -2.49902h-2l-97.5 255.5l-93.5 257.5
c-15.333 0 -30.666 -0.666992 -45.999 -2s-30.666 -2 -45.999 -2c-17.333 0 -34.333 0.5 -51 1.5s-33.667 1.83301 -51 2.5l-3 -14c6 -0.666992 15 -2.5 27 -5.5s23.667 -7.33301 35 -13s21.333 -12.334 30 -20.001s13 -16.167 13 -25.5c0 -2 -3.66699 -14.5 -11 -37.5
l-28 -85l-38 -109.5l-40 -113l-34.5 -95.5c-10.333 -27.667 -17.5 -46.167 -21.5 -55.5c-5.33301 -12.667 -12.666 -23 -21.999 -31s-19.833 -14.5 -31.5 -19.5s-24 -9 -37 -12s-25.833 -5.5 -38.5 -7.5v-14z" />
    <glyph glyph-name="O" unicode="O" horiz-adv-x="648" 
d="M467 670c-37.333 0 -73.665 -7.5 -108.998 -22.5s-68.5 -35.167 -99.5 -60.5s-59.5 -54.833 -85.5 -88.5s-48.333 -68.834 -67 -105.501s-33.167 -74 -43.5 -112s-15.5 -74 -15.5 -108c0 -28 3.33301 -53.667 10 -77s16.667 -43.666 30 -60.999
s30.666 -30.833 51.999 -40.5s46.333 -14.5 75 -14.5c37.333 0 73.666 7.5 108.999 22.5s68.5 35.167 99.5 60.5s59.5 54.833 85.5 88.5s48.333 68.834 67 105.501s33.167 74 43.5 112s15.5 74 15.5 108c0 28 -3.33301 53.667 -10 77s-16.667 43.666 -30 60.999
s-30.5 30.833 -51.5 40.5s-46.167 14.5 -75.5 14.5zM540.001 501c0 -20.667 -2.83496 -47.167 -8.50195 -79.5s-14.167 -66.666 -25.5 -102.999s-25.166 -72.666 -41.499 -108.999s-35 -69.166 -56 -98.499s-44.5 -53.166 -70.5 -71.499s-54 -27.5 -84 -27.5
c-22 0 -40.333 3.83301 -55 11.5s-26.167 18 -34.5 31s-14.333 28.167 -18 45.5s-5.5 35.666 -5.5 54.999c0 20.667 2.83301 47.167 8.5 79.5s14 66.666 25 102.999s24.667 72.666 41 108.999s35 69.166 56 98.499s44.333 53.166 70 71.499s53.167 27.5 82.5 27.5
c22.667 0 41.5 -3.83301 56.5 -11.5s26.833 -18 35.5 -31s14.834 -28.167 18.501 -45.5s5.5 -35.666 5.5 -54.999z" />
    <glyph glyph-name="P" unicode="P" horiz-adv-x="556" 
d="M296 10c-6.66699 0.666992 -17.8311 2.00488 -33.498 4.00488s-31.5 5 -47.5 9s-30.167 9.16699 -42.5 15.5s-18.5 14.166 -18.5 23.499c0 6 3.16699 18.833 9.5 38.5l21 65l22.5 67.5c7.33301 21.333 12 36.333 14 45c40.667 0 82.334 2.66699 125.001 8
s81.334 16.166 116.001 32.499s63 39.5 85 69.5s33 70 33 120c0 25.333 -5.83301 47.166 -17.5 65.499s-26.834 33.5 -45.501 45.5s-39.834 20.833 -63.501 26.5s-47.167 8.5 -70.5 8.5c-17.333 0 -35 -0.666992 -53 -2s-35.667 -2 -53 -2c-24 0 -47.833 0.333008 -71.5 1
s-47.5 1.66699 -71.5 3v-14c5.33301 -2 13.333 -4.5 24 -7.5s21.5 -6.5 32.5 -10.5s20.5 -8.83301 28.5 -14.5s12 -12.167 12 -19.5c0 -6 -3.5 -21.5 -10.5 -46.5s-16 -54.833 -27 -89.5l-36.5 -111l-38.5 -112.5l-33 -93.5c-9.66699 -26.667 -16.5 -44.334 -20.5 -53.001
s-7.83301 -16.5 -11.5 -23.5s-9.33398 -13.5 -17.001 -19.5s-18 -11.5 -31 -16.5s-30.833 -9.16699 -53.5 -12.5v-14c23.333 1.33301 47 2.33301 71 3s48 1 72 1h57c20.667 0 40.667 -0.166992 60 -0.5s36.666 -0.833008 51.999 -1.5s26 -1.33398 32 -2.00098v14z
M226.003 294.005l55.999 166.5l56 164.5c3.33301 0.666992 7 1.33398 11 2.00098s7.66699 1 11 1c39.333 0 70.833 -9.16699 94.5 -27.5s35.5 -49.166 35.5 -92.499c0 -36.667 -7.16699 -68.334 -21.5 -95.001s-33.666 -48.667 -57.999 -66s-52.333 -30.333 -84 -39
s-65.167 -13.334 -100.5 -14.001z" />
    <glyph glyph-name="Q" unicode="Q" horiz-adv-x="648" 
d="M-29 -64c11.333 4 22.8301 7.33496 34.4971 10.002s23.5 4 35.5 4c26.667 0 53 -5.33301 79 -16s52 -22.334 78 -35.001s51.833 -24.334 77.5 -35.001s50.834 -16 75.501 -16c56.667 0 108.334 10.833 155.001 32.5s90.334 51.167 131.001 88.5l-9 10
c-25.333 -22 -52.333 -39.333 -81 -52s-60 -19 -94 -19c-26.667 0 -54.667 3.5 -84 10.5s-59 14.833 -89 23.5s-59.833 16.5 -89.5 23.5s-58.167 10.5 -85.5 10.5c-23.333 0 -46.333 -2.5 -69 -7.5s-45 -11.833 -67 -20.5zM466.997 670.002
c-37.333 0 -73.665 -7.5 -108.998 -22.5s-68.5 -35.167 -99.5 -60.5s-59.5 -54.833 -85.5 -88.5s-48.333 -68.834 -67 -105.501s-33.167 -74 -43.5 -112s-15.5 -74 -15.5 -108c0 -28 3.33301 -53.667 10 -77s16.667 -43.666 30 -60.999s30.666 -30.833 51.999 -40.5
s46.333 -14.5 75 -14.5c37.333 0 73.666 7.5 108.999 22.5s68.5 35.167 99.5 60.5s59.5 54.833 85.5 88.5s48.333 68.834 67 105.501s33.167 74 43.5 112s15.5 74 15.5 108c0 28 -3.33301 53.667 -10 77s-16.667 43.666 -30 60.999s-30.5 30.833 -51.5 40.5
s-46.167 14.5 -75.5 14.5zM539.998 501.002c0 -20.667 -2.83496 -47.167 -8.50195 -79.5s-14.167 -66.666 -25.5 -102.999s-25.166 -72.666 -41.499 -108.999s-35 -69.166 -56 -98.499s-44.5 -53.166 -70.5 -71.499s-54 -27.5 -84 -27.5c-22 0 -40.333 3.83301 -55 11.5
s-26.167 18 -34.5 31s-14.333 28.167 -18 45.5s-5.5 35.666 -5.5 54.999c0 20.667 2.83301 47.167 8.5 79.5s14 66.666 25 102.999s24.667 72.666 41 108.999s35 69.166 56 98.499s44.333 53.166 70 71.499s53.167 27.5 82.5 27.5c22.667 0 41.5 -3.83301 56.5 -11.5
s26.833 -18 35.5 -31s14.834 -28.167 18.501 -45.5s5.5 -35.666 5.5 -54.999z" />
    <glyph glyph-name="R" unicode="R" horiz-adv-x="611" 
d="M597 10c-20.667 0.666992 -38.1689 2.33887 -52.502 5.00586s-26.166 7.66699 -35.499 15s-16.5 17.5 -21.5 30.5s-8.5 29.833 -10.5 50.5c-2.66699 28 -5.66699 53.167 -9 75.5s-9.16602 42.333 -17.499 60s-20.833 32.834 -37.5 45.501s-39.667 23.334 -69 32.001v2
c27.333 2.66699 55.166 8.16699 83.499 16.5s54 20.166 77 35.499s41.833 34.666 56.5 57.999s22 51 22 83c0 28 -6.16699 50.667 -18.5 68s-28.166 31 -47.499 41s-40.833 16.833 -64.5 20.5s-46.834 5.5 -69.501 5.5c-19.333 0 -39 -0.666992 -59 -2s-39.667 -2 -59 -2
c-18.667 0 -37 0.333008 -55 1s-36.333 1.66699 -55 3v-14c4.66699 -2 11.5 -4 20.5 -6s18 -4.5 27 -7.5s16.833 -6.83301 23.5 -11.5s10 -10.667 10 -18c0 -4 -3.5 -17.333 -10.5 -40s-16 -50.334 -27 -83.001l-36 -106l-38 -109l-32.5 -92l-19 -55
c-6.66699 -20 -12.5 -35.667 -17.5 -47s-11 -20.333 -18 -27s-16.667 -11.834 -29 -15.501s-29.5 -7.83398 -51.5 -12.501l-2 -14c23.333 2 46.5 3.16699 69.5 3.5s46.167 0.5 69.5 0.5c22 0 44.167 -0.166992 66.5 -0.5s44.5 -1.5 66.5 -3.5v14c-4 1.33301 -10.333 3 -19 5
s-17.5 4.5 -26.5 7.5s-17 6.5 -24 10.5s-10.5 8.66699 -10.5 14s1.83301 14.666 5.5 27.999s8.33398 28.666 14.001 45.999l18.5 55l19.5 56c6.33301 18 11.833 34.5 16.5 49.5s8 26.167 10 33.5c35.333 0 62.333 -4 81 -12s32.667 -19.833 42 -35.5
s15.5 -35.167 18.5 -58.5s5.83301 -50 8.5 -80c2 -24 5.5 -44.5 10.5 -61.5s12.5 -30.833 22.5 -41.5s23.167 -18.334 39.5 -23.001s36.833 -7 61.5 -7c13.333 0 26.833 0.666992 40.5 2s27.167 2 40.5 2zM340.998 630.005c9.33301 2 20.6641 2.99902 33.9971 2.99902
c31.333 0 57.833 -8.66699 79.5 -26s32.5 -43.333 32.5 -78c0 -26 -4.5 -49.333 -13.5 -70s-21.167 -39 -36.5 -55s-32.666 -29.333 -51.999 -40s-39.666 -18.667 -60.999 -24c-6 -1.33301 -13 -2.5 -21 -3.5s-16.167 -1.66699 -24.5 -2
s-16.166 -0.666016 -23.499 -0.999023s-13.333 -0.5 -18 -0.5z" />
    <glyph glyph-name="S" unicode="S" horiz-adv-x="556" 
d="M8 33c35.333 -12.667 70.666 -24.6719 105.999 -36.0049s72.333 -17 111 -17c28 0 56.5 5.33301 85.5 16s55.5 25.334 79.5 44.001s43.667 41 59 67s23 54 23 84c0 28 -5.5 52.333 -16.5 73s-24.833 39.167 -41.5 55.5s-34.834 31.5 -54.501 45.5
s-37.834 28.5 -54.501 43.5s-30.5 31.5 -41.5 49.5s-16.5 39 -16.5 63c0 16.667 2.66699 32.334 8 47.001s13 27.5 23 38.5s22 19.667 36 26s29.667 9.5 47 9.5c26.667 0 49 -5 67 -15s32.667 -23.5 44 -40.5s19.833 -36.167 25.5 -57.5s9.16699 -43.666 10.5 -66.999h12
c4.66699 29.333 10 58 16 86s13.667 56 23 84c-20 10.667 -42.833 19.667 -68.5 27s-50.167 11 -73.5 11c-28.667 0 -58.167 -4 -88.5 -12s-57.666 -20 -81.999 -36s-44.333 -36.333 -60 -61s-23.5 -53.667 -23.5 -87c0 -24 5.5 -45.167 16.5 -63.5
s24.833 -35.166 41.5 -50.499s34.834 -30.166 54.501 -44.499s37.834 -29.833 54.501 -46.5s30.5 -35.5 41.5 -56.5s16.5 -45.833 16.5 -74.5c0 -19.333 -4 -37 -12 -53s-18.667 -29.667 -32 -41s-28.5 -20.166 -45.5 -26.499s-34.5 -9.5 -52.5 -9.5
c-38 0 -68.667 6.16699 -92 18.5s-41.5 29.166 -54.5 50.499s-21.833 46.333 -26.5 75s-7 59 -7 91h-12z" />
    <glyph glyph-name="T" unicode="T" horiz-adv-x="630" 
d="M388 624c-2 -7.33301 -6.33301 -21.0029 -13 -41.0029l-23.5 -72l-30.5 -92l-34.5 -101l-34.5 -99l-31.5 -86c-9.66699 -25.333 -18.167 -46 -25.5 -62s-12.666 -25 -15.999 -27c-17.333 -10 -36.5 -17.167 -57.5 -21.5l-61.5 -12.5v-14c28 1.33301 55.5 2.33301 82.5 3
s54.5 1 82.5 1h56c20.667 0 40.667 -0.166992 60 -0.5s36.833 -0.833008 52.5 -1.5s27.167 -1.33398 34.5 -2.00098v14c-6 0.666992 -16.667 2.33398 -32 5.00098s-31 6.16699 -47 10.5s-30.167 9.33301 -42.5 15s-18.5 12.167 -18.5 19.5c0 1.33301 2.5 9.83301 7.5 25.5
l20 60l29 83.5l33.5 97l34.5 98.5l31.5 89.5l24 70.5c6.66699 19.667 11 32.834 13 39.501h136c6 -25.333 13.333 -50.166 22 -74.499s19.667 -48.166 33 -71.499h14c1.33301 30 3.33301 59.5 6 88.5s5.66699 58.167 9 87.5c-44 -2 -87.5 -3.16699 -130.5 -3.5
s-86.5 -0.5 -130.5 -0.5c-45.333 0 -90.333 0.166992 -135 0.5s-89.334 1.5 -134.001 3.5l-37.5 -76l-38.5 -76l10 -7c25.333 18.667 49.5 38.5 72.5 59.5s44.167 44.167 63.5 69.5h147z" />
    <glyph glyph-name="U" unicode="U" horiz-adv-x="704" 
d="M132 643c22 -3.33301 39.165 -6.99805 51.498 -10.998s21.666 -8.16699 27.999 -12.5s10.166 -8.5 11.499 -12.5s2 -7.66699 2 -11c0 -7.33301 -3.5 -21.666 -10.5 -42.999s-16 -46.5 -27 -75.5l-35 -93l-35 -96c-11 -31 -20 -59.167 -27 -84.5
s-10.5 -44.666 -10.5 -57.999c0 -26 5.33301 -49.167 16 -69.5s24.834 -37.666 42.501 -51.999s37.834 -25.333 60.501 -33s46 -11.5 70 -11.5c38 0 70.833 5.16699 98.5 15.5s51.834 23.666 72.501 39.999s38 35 52 56s26 42.5 36 64.5l67 152l55.5 132l42 101
c11.667 28 20.834 47.667 27.501 59c3.33301 5.33301 8.16602 10.333 14.499 15s13.333 8.66699 21 12s15.334 6.16602 23.001 8.49902s14.5 3.83301 20.5 4.5v14c-18.667 -1.33301 -37.167 -2.33301 -55.5 -3s-36.833 -1 -55.5 -1c-22.667 0 -45.167 0.333008 -67.5 1
s-44.833 1.66699 -67.5 3v-14c6.66699 -2 15.667 -4 27 -6s22.5 -4.83301 33.5 -8.5s20.5 -8.16699 28.5 -13.5s12 -12.333 12 -21c0 -2.66699 -2.16699 -11.5 -6.5 -26.5l-17 -57l-24.5 -77l-30 -87.5l-33 -89l-32.5 -80.5c-10.333 -24.333 -19.833 -45 -28.5 -62
s-16.334 -28.5 -23.001 -34.5c-18.667 -16.667 -35.667 -29.834 -51 -39.501s-29.666 -17 -42.999 -22s-25.833 -8.16699 -37.5 -9.5s-22.5 -2 -32.5 -2c-17.333 0 -33.833 2.33301 -49.5 7s-29.5 11.834 -41.5 21.501s-21.667 21.5 -29 35.5s-11 30.333 -11 49
c0 11.333 3 28.833 9 52.5s13.667 50.5 23 80.5s19.833 61.667 31.5 95l34.5 95l31 81.5c9.33301 24.333 16.666 42.166 21.999 53.499c8.66699 21.333 21.834 37.166 39.501 47.499s41.5 16.166 71.5 17.499v14c-25.333 -1.33301 -50.5 -2.33301 -75.5 -3
s-50.167 -1 -75.5 -1c-24 0 -47.833 0.333008 -71.5 1s-47.5 1.66699 -71.5 3v-11z" />
    <glyph glyph-name="V" unicode="V" horiz-adv-x="593" 
d="M248 547c0 18 2.83203 32.667 8.49902 44s13.334 20.166 23.001 26.499s21 11.166 34 14.499s26.5 6 40.5 8v14c-19.333 -0.666992 -38.333 -1.5 -57 -2.5s-37.334 -1.5 -56.001 -1.5c-25.333 0 -50.5 0.333008 -75.5 1s-50.167 1.66699 -75.5 3v-14
c7.33301 -2 15.333 -4 24 -6s16.667 -4.66699 24 -8s13.5 -7.66602 18.5 -12.999s7.5 -12.333 7.5 -21v-606l25 -6c24.667 28 52.334 62.333 83.001 103l95.5 129l99 137l92 128.5l75.5 103c22 29 38.333 48.833 49 59.5v14c-16 -0.666992 -32 -1.5 -48 -2.5
s-32 -1.5 -48 -1.5c-20.667 0 -41 0.5 -61 1.5s-40.333 1.83301 -61 2.5v-14c12 -1.33301 24.667 -3.5 38 -6.5s25.5 -6.33301 36.5 -10s20 -7.66699 27 -12s10.5 -8.5 10.5 -12.5c0 -3.33301 -4 -12.666 -12 -27.999s-19.167 -35.5 -33.5 -60.5s-31.5 -53.5 -51.5 -85.5
l-66 -102.5l-78 -113l-86 -115.5l-2 2v451z" />
    <glyph glyph-name="W" unicode="W" horiz-adv-x="926" 
d="M438 -11l16.9951 -9l278 318.5l299 341.5v14c-15.333 -1.33301 -30.833 -2.33301 -46.5 -3s-31.167 -1 -46.5 -1c-19.333 0 -38.5 0.333008 -57.5 1s-38.167 1.66699 -57.5 3v-14c7.33301 -0.666992 16.166 -1.83398 26.499 -3.50098s20.333 -3.83398 30 -6.50098
s18 -5.83398 25 -9.50098s10.5 -8.16699 10.5 -13.5c0 -8.66699 -5 -22 -15 -40s-23.5 -39 -40.5 -63s-36.5 -50.167 -58.5 -78.5l-68 -86l-69.5 -85.5l-64 -76.5l-50.5 -59.5l-29 -35h-3v249l126 159c43.333 54.667 90.333 104.334 141 149.001v14
c-28 -2 -55.833 -3.16699 -83.5 -3.5s-55.5 -0.5 -83.5 -0.5c-39.333 0 -78.333 0.166992 -117 0.5s-77.667 1.5 -117 3.5v-14c4 -0.666992 9.16699 -2.16699 15.5 -4.5s12.333 -5.33301 18 -9s10.5 -7.66699 14.5 -12s6 -9.5 6 -15.5v-314l-173 -206l-1 2
c0 80.667 0.166992 161.5 0.5 242.5s0.833008 164.167 1.5 249.5c0 8.66699 2.33301 16.5 7 23.5s10.834 13.333 18.501 19s16.334 10.667 26.001 15s19.5 7.5 29.5 9.5v14c-21.333 -0.666992 -42.5 -1.5 -63.5 -2.5s-42.167 -1.5 -63.5 -1.5
c-19.333 0 -38.666 0.333008 -57.999 1s-38.666 1.66699 -57.999 3v-14c23.333 -4 42.333 -9.33301 57 -16s22 -14.667 22 -24c0 -58.667 0.166992 -114.667 0.5 -168s0.5 -106 0.5 -158c0 -51.333 -0.166992 -101.166 -0.5 -149.499s-1.16602 -94.166 -2.49902 -137.499
l22 -7c42.667 42 82.834 85.833 120.501 131.5l114.5 137.5v-260zM517.995 462c0 35.333 1.33008 64.165 3.99707 86.498s7.83398 39.833 15.501 52.5s18.334 21.334 32.001 26.001s31.5 7 53.5 7c4 0 9.5 -0.333008 16.5 -1s13.667 -2 20 -4s11.833 -4.66699 16.5 -8
s7 -7.66602 7 -12.999c0 -10.667 -5.66699 -25 -17 -43s-25.166 -38 -41.499 -60l-52.5 -69c-18.667 -24 -35.667 -47.333 -51 -70h-3v96z" />
    <glyph glyph-name="X" unicode="X" horiz-adv-x="648" 
d="M-80 -4c22 1.33301 44.1699 2.33398 66.5029 3.00098s44.5 1 66.5 1c23.333 0 46.5 -0.166992 69.5 -0.5s46.167 -1.5 69.5 -3.5v14c-8 2.66699 -17 5.16699 -27 7.5s-19.5 5.33301 -28.5 9s-16.667 7.83398 -23 12.501s-9.5 11 -9.5 19
c0 5.33301 4.5 14.166 13.5 26.499s20.667 26.5 35 42.5l47 50.5l49 50l42 42l26.5 26.5c1.33301 -7.33301 3.66602 -17.833 6.99902 -31.5l11.5 -45.5l13.5 -51.5c4.66699 -17.667 8.83398 -34.167 12.501 -49.5s6.66699 -28.666 9 -39.999s3.5 -18.666 3.5 -21.999
c0 -7.33301 -2.66699 -13.333 -8 -18s-12.333 -8.5 -21 -11.5s-18.334 -5.66699 -29.001 -8s-21 -5.16602 -31 -8.49902v-14c24 2 47.833 3.16699 71.5 3.5s47.5 0.5 71.5 0.5c23.333 0 46.833 -0.166992 70.5 -0.5s47.167 -1.5 70.5 -3.5v14
c-12 3.33301 -23.333 6.33301 -34 9s-20.334 5.5 -29.001 8.5s-16.167 6.66699 -22.5 11s-10.833 10.166 -13.5 17.499c-17.333 48 -32.5 96.167 -45.5 144.5l-39.5 145.5l175.5 153c58.333 52 116.166 99 173.499 141v14c-20.667 -1.33301 -41.167 -2.33301 -61.5 -3
s-40.833 -1 -61.5 -1c-20 0 -40 0.5 -60 1.5s-40 1.83301 -60 2.5v-14c9.33301 -0.666992 20.166 -2.33398 32.499 -5.00098s24 -5.66699 35 -9s20.333 -7 28 -11s11.5 -8 11.5 -12s-5 -12.5 -15 -25.5s-22.833 -28 -38.5 -45l-50.5 -53.5l-51.5 -52l-42 -41l-20.5 -20
c-2 6 -4.66699 15.167 -8 27.5s-6.83301 26.333 -10.5 42l-11 49l-10 48c-3 15 -5.5 28 -7.5 39s-3 18.5 -3 22.5c0 10 3.83301 17.667 11.5 23s16.834 9.5 27.501 12.5s21.5 5.16699 32.5 6.5s19.833 2.66602 26.5 3.99902v14c-19.333 -0.666992 -36 -1.33398 -50 -2.00098
s-27.333 -1.16699 -40 -1.5s-25.667 -0.5 -39 -0.5h-48c-22.667 0 -45 0.333008 -67 1s-44 1.66699 -66 3v-14c5.33301 0 13.833 -1 25.5 -3s23.667 -4.83301 36 -8.5s23.5 -8 33.5 -13s16 -11.167 18 -18.5l80 -281l-155 -145l-58 -53.5
c-18.667 -17 -37.167 -32.333 -55.5 -46s-37.5 -25.667 -57.5 -36s-41.667 -18.833 -65 -25.5v-14z" />
    <glyph glyph-name="Y" unicode="Y" horiz-adv-x="630" 
d="M53 -4c10 0.666992 21.998 1.16699 35.998 1.5s28.833 0.666016 44.5 0.999023l48.5 1c16.667 0.333008 32.334 0.5 47.001 0.5c60.667 0 107.667 -0.333008 141 -1s52 -1.66699 56 -3v14c-15.333 2 -31.166 4.33301 -47.499 7s-31.333 5.5 -45 8.5s-25 6.66699 -34 11
s-13.5 9.5 -13.5 15.5c0 10 3 25.5 9 46.5s13.333 44.167 22 69.5l27 77.5c9.33301 26.333 17 49.833 23 70.5c16 20 34.833 41 56.5 63s44.5 44 68.5 66l72.5 64.5l68.5 57.5l56.5 45.5c16.333 13 28.166 22.167 35.499 27.5v14c-18 -0.666992 -36 -1.5 -54 -2.5
s-36 -1.5 -54 -1.5c-23.333 0 -46.666 0.5 -69.999 1.5s-46.666 1.83301 -69.999 2.5v-14l23 -4c11.333 -2 23.166 -4.66699 35.499 -8s23.333 -7.5 33 -12.5s14.5 -11.167 14.5 -18.5c0 -3.33301 -4.66699 -11.333 -14 -24s-21.333 -27.5 -36 -44.5l-48.5 -55l-51.5 -56.5
l-45 -48l-29 -31l-18.5 64l-23 80.5c-7.66699 27 -14.334 51.667 -20.001 74s-8.5 36.833 -8.5 43.5c0 7.33301 2.83301 13.333 8.5 18s13 8.5 22 11.5s18.833 5.33301 29.5 7s21 2.83398 31 3.50098v14c-25.333 -1.33301 -50.5 -2.33301 -75.5 -3s-50.167 -1 -75.5 -1
c-24.667 0 -49 0.333008 -73 1s-48.333 1.66699 -73 3v-14c4.66699 -0.666992 12 -2 22 -4s20.333 -4.66699 31 -8s20.667 -7 30 -11s15.333 -8.33301 18 -13c8.66699 -12.667 17.834 -32 27.501 -58s19 -53.667 28 -83l25.5 -84c8 -26.667 14.333 -47 19 -61l-81 -223
c-6 -16 -12 -28.667 -18 -38s-14.167 -16.833 -24.5 -22.5s-24 -10.167 -41 -13.5s-39.167 -7 -66.5 -11v-14z" />
    <glyph glyph-name="Z" unicode="Z" horiz-adv-x="630" 
d="M-22 -4c11.333 0.666992 27.667 1.33594 49 2.00293s44.666 1.16699 69.999 1.5s51.333 0.5 78 0.5h75h65c24 0 47.333 -0.166992 70 -0.5s43.5 -0.833008 62.5 -1.5s34.167 -1.33398 45.5 -2.00098c16.667 34 35.334 66.5 56.001 97.5s43 60.833 67 89.5l-8 10
c-22 -12.667 -41 -24.334 -57 -35.001s-31.167 -21.834 -45.5 -33.501s-28.333 -24.5 -42 -38.5l-46.5 -50c-54.667 -5.33301 -109.5 -8.5 -164.5 -9.5s-109.833 -1.83301 -164.5 -2.5l165 166.5l170 168.5l155.5 155l122.5 126v14c-44 -2 -87.5 -3.16699 -130.5 -3.5
s-86.5 -0.5 -130.5 -0.5c-38 0 -76.167 0.333008 -114.5 1s-76.5 1.66699 -114.5 3c-25.333 -63.333 -55 -124.666 -89 -183.999l11 -8c28 23.333 54.667 48.333 80 75s48.333 55.667 69 87c48.667 1.33301 97.167 2.16602 145.5 2.49902s96.833 0.833008 145.5 1.5
l-299.5 -305l-300.5 -304z" />
    <glyph glyph-name="bracketleft" unicode="[" horiz-adv-x="444" 
d="M295 670l-292 -854h264l12 30h-182l271 794h182l9 30h-264z" />
    <glyph glyph-name="backslash" unicode="\" horiz-adv-x="278" 
d="M-60 670l348 -690h50l-348 690h-50z" />
    <glyph glyph-name="bracketright" unicode="]" horiz-adv-x="444" 
d="M137 -184l292 854h-264l-12 -30h182l-271 -794h-182l-9 -30h264z" />
    <glyph glyph-name="asciicircum" unicode="^" horiz-adv-x="500" 
d="M119 285l152 301l152 -301h55l-184 365h-46l-184 -365h55z" />
    <glyph glyph-name="underscore" unicode="_" horiz-adv-x="500" 
d="M500 -125v50h-500v-50h500z" />
    <glyph glyph-name="grave" unicode="`" 
d="M249 433l-107.001 149.999c-10 14.667 -23.333 22 -40 22c-9.33301 0 -17.166 -3.66699 -23.499 -11s-9.5 -15.666 -9.5 -24.999c0 -6 1.5 -11 4.5 -15s8.16699 -9 15.5 -15l129 -106h31z" />
    <glyph glyph-name="a" unicode="a" horiz-adv-x="463" 
d="M57 78c0 20 3.33496 40.4971 10.002 61.4971s15.167 41.833 25.5 62.5s21.666 40.334 33.999 59.001l35.5 52c5.33301 6.66699 9.66602 12.334 12.999 17.001s7 8.5 11 11.5s8.83301 5.16699 14.5 6.5s12.834 2 21.501 2c6.66699 0 14.167 -1.5 22.5 -4.5
s16.166 -7.16699 23.499 -12.5s13.5 -11.5 18.5 -18.5s7.5 -14.5 7.5 -22.5c0 -3.33301 -2.16699 -10.666 -6.5 -21.999l-14.5 -36.5c-5.33301 -13 -10.833 -25.5 -16.5 -37.5s-9.5 -20.667 -11.5 -26c-5.33301 -12 -13 -25.833 -23 -41.5s-21.5 -30.334 -34.5 -44.001
s-26.833 -25.167 -41.5 -34.5s-29.667 -14 -45 -14c-12 0 -22.333 3.83301 -31 11.5s-13 17.834 -13 30.501zM331.002 381.997c-3.33301 -10 -8.00293 -20.6641 -14.0029 -31.9971c-3.33301 10.667 -9.16602 19.667 -17.499 27s-18.166 11 -29.499 11
c-13.333 0 -29.833 -4.5 -49.5 -13.5s-40.167 -21.167 -61.5 -36.5s-42.833 -33.333 -64.5 -54s-41 -42.834 -58 -66.501s-30.833 -48.167 -41.5 -73.5s-16 -50.333 -16 -75c0 -9.33301 1 -18.833 3 -28.5s5.33301 -18.334 10 -26.001s10.834 -14 18.501 -19
s17.167 -7.5 28.5 -7.5c18.667 0 38.167 5.33301 58.5 16s39.833 24 58.5 40s35.834 33.167 51.501 51.5s28.167 34.833 37.5 49.5l2 -2c-2.66699 -6 -6.66699 -14.167 -12 -24.5l-16 -31.5c-5.33301 -10.667 -10 -21.167 -14 -31.5s-6 -18.5 -6 -24.5
c0 -14.667 6.66699 -25.5 20 -32.5s26 -10.5 38 -10.5c20.667 0 40.667 4.33301 60 13s36.5 18.5 51.5 29.5s27 21.5 36 31.5s13.5 16 13.5 18c0 2.66699 -2 4 -6 4c-3.33301 0 -8 -2.83301 -14 -8.5s-13 -11.834 -21 -18.501s-16.667 -12.834 -26 -18.501
s-19 -8.5 -29 -8.5c-8.66699 0 -17.667 2.16699 -27 6.5s-14 11.5 -14 21.5c0 3.33301 2.16699 12.333 6.5 27s10.166 32.5 17.499 53.5l24 68l26 71.5l24 63c7.33301 18.667 13.333 32.334 18 41.001h-66z" />
    <glyph glyph-name="b" unicode="b" horiz-adv-x="426" 
d="M229 712l-63.999 -176.497l-56 -152l-42 -112.5c-11.333 -30 -18.333 -49 -21 -57c-6.66699 -20.667 -13.667 -40 -21 -58l-20 -48l-14.5 -34.5c-3.66699 -9 -5.5 -14.5 -5.5 -16.5c0 -4 1.66699 -9.83301 5 -17.5s8.16602 -15.334 14.499 -23.001
s14.5 -14.334 24.5 -20.001s22 -8.5 36 -8.5c22.667 0 46.167 5 70.5 15s48 23.5 71 40.5s45 36.667 66 59s39.333 45.833 55 70.5s28 49.5 37 74.5s13.5 48.833 13.5 71.5c0 21.333 -6.33301 38.166 -19 50.499s-29.334 18.5 -50.001 18.5c-16 0 -32.5 -4 -49.5 -12
s-33.333 -18.167 -49 -30.5s-30.167 -25.5 -43.5 -39.5s-24.666 -27 -33.999 -39l-2 2c13.333 29.333 27 61.833 41 97.5l43 111.5l44 118l44 116h-74zM68.001 63.0029c0 12.667 2.50098 28.335 7.50098 47.002s11.833 38.5 20.5 59.5s19 42.167 31 63.5s25 40.5 39 57.5
s28.833 30.833 44.5 41.5s31.167 16 46.5 16c12.667 0 22 -5.5 28 -16.5s9 -22.167 9 -33.5c0 -12 -2.16699 -27.167 -6.5 -45.5s-10.333 -37.833 -18 -58.5s-16.834 -41.334 -27.501 -62.001s-22.167 -39.334 -34.5 -56.001s-25.5 -30.167 -39.5 -40.5s-28 -15.5 -42 -15.5
c-5.33301 0 -11.333 1.16699 -18 3.5s-13 5.33301 -19 9s-11 8.16699 -15 13.5s-6 11 -6 17z" />
    <glyph glyph-name="c" unicode="c" horiz-adv-x="333" 
d="M66 107c0 10 1.49805 23.165 4.49805 39.498s7.16699 33.666 12.5 51.999s11.833 36.833 19.5 55.5s16.167 35.5 25.5 50.5s19.5 27.333 30.5 37s22.5 14.5 34.5 14.5c11.333 0 21.5 -2.33301 30.5 -7s15.167 -12.667 18.5 -24c-4 -3.33301 -7.5 -7.16602 -10.5 -11.499
s-4.5 -9.16602 -4.5 -14.499c0 -11.333 3.33301 -19.833 10 -25.5s15.334 -8.5 26.001 -8.5c17.333 0 29.333 6.33301 36 19s10 26.334 10 41.001c0 17.333 -5.33301 32.166 -16 44.499s-25 18.5 -43 18.5c-30 0 -60.833 -9.66699 -92.5 -29s-60.5 -43.666 -86.5 -72.999
s-47.333 -60.833 -64 -94.5s-25 -65.167 -25 -94.5c0 -30 8.83301 -55.667 26.5 -77s42.5 -32 74.5 -32c19.333 0 39.5 4.66699 60.5 14s40.333 20 58 32s32.334 23.667 44.001 35s17.5 19 17.5 23c0 3.33301 -0.833008 5.33301 -2.5 6s-3.5 1 -5.5 1
s-6.5 -3.66699 -13.5 -11s-15.833 -15.5 -26.5 -24.5s-22.167 -17.167 -34.5 -24.5s-24.833 -11 -37.5 -11c-25.333 0 -44.5 6.83301 -57.5 20.5s-19.5 33.167 -19.5 58.5z" />
    <glyph glyph-name="d" unicode="d" horiz-adv-x="407" 
d="M-10 86c0 -27.333 6.66992 -50.5039 20.0029 -69.5039s34.666 -28.5 63.999 -28.5c23.333 0 47.666 7 72.999 21s50.5 33.167 75.5 57.5s48.833 53 71.5 86s42.5 68.333 59.5 106s30.667 76.834 41 117.501s15.5 80.667 15.5 120c0 28.667 -3.5 56 -10.5 82
s-17.667 49 -32 69s-32.833 35.833 -55.5 47.5s-49.667 17.5 -81 17.5c-28.667 0 -54.167 -5.33301 -76.5 -16s-41.166 -22.667 -56.499 -36s-27 -26 -35 -38s-12 -19.333 -12 -22c0 -4 2 -6 6 -6c3.33301 0 8.5 5.5 15.5 16.5s16.833 23 29.5 36s28.834 24.833 48.501 35.5
s43.5 16 71.5 16c23.333 0 42.5 -4.66699 57.5 -14s27 -21.5 36 -36.5s15.333 -32 19 -51s5.5 -38.167 5.5 -57.5c0 -16.667 -2.5 -41.167 -7.5 -73.5s-12 -67.666 -21 -105.999s-20.167 -77.666 -33.5 -117.999s-28.333 -76.833 -45 -109.5s-34.834 -59.5 -54.501 -80.5
s-40.834 -31.5 -63.501 -31.5c-10 0 -18.167 2.5 -24.5 7.5s-11.166 11.167 -14.499 18.5s-5.5 15.5 -6.5 24.5s-1.5 17.5 -1.5 25.5c0 27.333 5.66699 55.666 17 84.999s26.166 57 44.499 83s39.5 49 63.5 69s49 34.667 75 44l24.5 8.5c5 1.66699 7.5 3.83398 7.5 6.50098
c0 4 -2.66699 6 -8 6c-10 0 -24.333 -3.16699 -43 -9.5s-39.334 -15.5 -62.001 -27.5s-45.5 -26.833 -68.5 -44.5s-44.167 -38 -63.5 -61s-35 -48.667 -47 -77s-18 -59.166 -18 -92.499z" />
    <glyph glyph-name="e" unicode="e" horiz-adv-x="333" 
d="M223 325c0 -14 -5.16699 -27.667 -15.5 -41s-22.833 -25.333 -37.5 -36s-30.167 -19.667 -46.5 -27s-30.5 -12 -42.5 -14c3.33301 10 8.33301 23 15 39s15 31.5 25 46.5s21 28 33 39s24.333 16.5 37 16.5c9.33301 0 17 -1.5 23 -4.5s9 -9.16699 9 -18.5zM55 110
c0 10.667 1.83496 23.668 5.50195 39.001s8.16699 28 13.5 38c16.667 4 37.667 10 63 18s49.833 18.333 73.5 31s44 27.667 61 45s25.5 37 25.5 59c0 32 -16 48 -48 48c-18 0 -37.167 -4.66699 -57.5 -14s-40.666 -22.166 -60.999 -38.499s-39.833 -35 -58.5 -56
s-35.167 -43 -49.5 -66s-25.833 -46.5 -34.5 -70.5s-13 -46.667 -13 -68c0 -28 8.16699 -49.5 24.5 -64.5s38.5 -22.5 66.5 -22.5c25.333 0 50.166 5.5 74.499 16.5s46.166 23.5 65.499 37.5s35 27.5 47 40.5s18 21.167 18 24.5c0 2.66699 -2.33301 4 -7 4
c-1.33301 0 -3 -1.33301 -5 -4s-4.66699 -5.33398 -8 -8.00098c-8 -6.66699 -16.333 -14 -25 -22s-18 -15.333 -28 -22s-20.833 -12.167 -32.5 -16.5s-24.834 -6.5 -39.501 -6.5c-25.333 0 -43.5 7.16699 -54.5 21.5s-16.5 33.166 -16.5 56.499z" />
    <glyph glyph-name="f" unicode="f" horiz-adv-x="278" 
d="M102 352c-8.66699 -30.667 -18.1699 -66.666 -28.5029 -107.999l-32.5 -125l-34 -121c-11.333 -38.667 -22 -70.667 -32 -96l-10.5 -26.5c-3.66699 -9.66699 -8 -18.834 -13 -27.501s-11 -15.834 -18 -21.501s-15.5 -8.5 -25.5 -8.5c-4 0 -7.16699 2.33301 -9.5 7
s-5 9.66699 -8 15s-7 10.333 -12 15s-12.167 7 -21.5 7c-10 0 -18.333 -4 -25 -12s-10 -16.667 -10 -26c0 -12.667 4.33301 -22.167 13 -28.5s19.334 -9.5 32.001 -9.5c26.667 0 52 11.167 76 33.5s46.667 51 68 86s40.833 74 58.5 117s33.667 85.5 48 127.5
s26.5 81 36.5 117l24 85h96l5 24h-95c3.33301 6.66699 6.83301 18.334 10.5 35.001l12.5 57c4.66699 21.333 9.83398 43.666 15.501 66.999s12.334 44.5 20.001 63.5s16.167 34.667 25.5 47s20 18.5 32 18.5c8.66699 0 14.667 -4.33301 18 -13s5 -17 5 -25
c0 -15.333 -1.66699 -30.5 -5 -45.5s-6.33301 -30.167 -9 -45.5l6 -1c5.33301 5.33301 12 13.333 20 24s15.667 22 23 34s13.666 23.667 18.999 35s8 21 8 29c0 6 -0.5 12.167 -1.5 18.5s-3 12.333 -6 18s-7 10.334 -12 14.001s-11.167 5.5 -18.5 5.5
c-16.667 0 -33.667 -6.33301 -51 -19s-34.333 -29 -51 -49s-32.5 -42.5 -47.5 -67.5s-28.5 -50 -40.5 -75s-22.167 -48.5 -30.5 -70.5s-14.166 -40.333 -17.499 -55h-89l-3 -24h85z" />
    <glyph glyph-name="g" unicode="g" horiz-adv-x="426" 
d="M332 372c-8.66699 2.66699 -16.8379 6.00293 -24.5049 10.0029s-16.834 6 -27.501 6c-18 0 -37.833 -4.66699 -59.5 -14s-43.167 -22.166 -64.5 -38.499s-42 -35.333 -62 -57s-37.667 -44.5 -53 -68.5s-27.666 -48.667 -36.999 -74s-14 -50 -14 -74
c0 -21.333 5.33301 -39 16 -53s27.334 -21 50.001 -21c18 0 36.333 4.66699 55 14s36.5 21.166 53.5 35.499s32.333 30 46 47s23.834 32.833 30.501 47.5l2 -2c-6.66699 -14 -14.167 -32.333 -22.5 -55s-17.833 -46.834 -28.5 -72.501s-22.334 -51.334 -35.001 -77.001
s-26.834 -48.834 -42.501 -69.501s-32.667 -37.5 -51 -50.5s-38.166 -19.5 -59.499 -19.5c-4 0 -10.167 0.833008 -18.5 2.5s-13.5 4.5 -15.5 8.5c0.666992 5.33301 1.33398 11 2.00098 17s1 11.667 1 17c0 16.667 -4.66699 28.834 -14 36.501s-21.666 11.5 -36.999 11.5
c-13.333 0 -23.666 -5 -30.999 -15s-11 -21.333 -11 -34c0 -11.333 2.5 -21 7.5 -29s11.5 -14.5 19.5 -19.5s17 -8.83301 27 -11.5s19.667 -4 29 -4c25.333 0 49.5 3.66699 72.5 11s44.667 17.333 65 30s39.333 27.5 57 44.5s33.5 35.5 47.5 55.5
c20.667 29.333 39.834 64.833 57.501 106.5s34.5 85 50.5 130l46 134c14.667 44.333 29 84.166 43 119.499zM67.9961 85.0029c0 17.333 4.66504 40.668 13.998 70.001s21.333 58.333 36 87s31.167 53.5 49.5 74.5s36.5 31.5 54.5 31.5c7.33301 0 15.333 -0.833008 24 -2.5
s16.834 -4.33398 24.501 -8.00098s14 -8 19 -13s7.5 -10.833 7.5 -17.5c0 -5.33301 -2.33301 -15.166 -7 -29.499s-10.167 -29.5 -16.5 -45.5l-18.5 -46c-6 -14.667 -10.667 -25.334 -14 -32.001c-5.33301 -11.333 -12.333 -24 -21 -38s-18.5 -27.333 -29.5 -40
s-23.167 -23.167 -36.5 -31.5s-27 -12.5 -41 -12.5c-17.333 0 -29.166 5 -35.499 15s-9.5 22.667 -9.5 38z" />
    <glyph glyph-name="h" unicode="h" horiz-adv-x="463" 
d="M-9 0l68 -0.00390625c4.66699 20 11.334 42.167 20.001 66.5s18.834 49 30.501 74s24.667 49.333 39 73s29.666 44.667 45.999 63s33.666 33.166 51.999 44.499s36.833 17 55.5 17c14.667 0 24.834 -4.16699 30.501 -12.5s8.5 -19.166 8.5 -32.499
c0 -16.667 -1.5 -34.834 -4.5 -54.501s-7.5 -37.167 -13.5 -52.5l-24 -14.5l-35.5 -22c-13 -8.33301 -26.333 -17.5 -40 -27.5s-26.167 -20.167 -37.5 -30.5s-20.666 -20.666 -27.999 -30.999s-11 -19.833 -11 -28.5c0 -13.333 3.33301 -22.666 10 -27.999s16.667 -8 30 -8
c18.667 0 37.5 5.5 56.5 16.5s37 25.5 54 43.5s33 38.167 48 60.5s27.833 44.833 38.5 67.5s19.167 44.334 25.5 65.001s9.5 38.334 9.5 53.001c0 23.333 -6.5 43.5 -19.5 60.5s-31.5 25.5 -55.5 25.5c-22.667 0 -44.334 -6 -65.001 -18s-40 -27 -58 -45
s-34.333 -37.167 -49 -57.5s-27.334 -39.166 -38.001 -56.499l-2 2l94 251.5l93 247.5h-77zM317 165.996l-13.0039 -35.5c-5.33301 -15 -11.5 -29.833 -18.5 -44.5s-14.667 -27.334 -23 -38.001s-17.166 -16 -26.499 -16c-5.33301 0 -10.166 2.33301 -14.499 7
s-6.5 9.66699 -6.5 15c0 9.33301 3.83301 19.833 11.5 31.5s16.834 22.834 27.501 33.501s21.834 20.167 33.501 28.5s21.5 14.5 29.5 18.5z" />
    <glyph glyph-name="i" unicode="i" 
d="M121 388l-47.002 -133.999l-38 -104l-25.5 -70.5c-6.33301 -17.667 -9.5 -28.834 -9.5 -33.501c0 -9.33301 2.33301 -17.666 7 -24.999s10.834 -13.5 18.501 -18.5s15.834 -8.66699 24.501 -11s17 -3.5 25 -3.5c18 0 36.667 5.16699 56 15.5s37 22 53 35
s29.167 25.5 39.5 37.5s15.5 19.667 15.5 23c0 4 -1.66699 6 -5 6c-2.66699 0 -7.5 -3.66699 -14.5 -11s-15.333 -15.5 -25 -24.5s-20.334 -17.167 -32.001 -24.5s-24.167 -11 -37.5 -11c-9.33301 0 -18.5 3 -27.5 9s-13.5 14 -13.5 24c0 15.333 4.83301 37.166 14.5 65.499
s20.834 58.333 33.501 90l38 92.5c12.667 30 21.667 54.333 27 73h-77zM237.998 664.001c-13.333 0 -24.666 -5.5 -33.999 -16.5s-14 -23.833 -14 -38.5c0 -15.333 4 -26.333 12 -33s19.333 -10 34 -10c13.333 0 24.666 5.5 33.999 16.5s14 23.833 14 38.5
c0 15.333 -4 26.333 -12 33s-19.333 10 -34 10z" />
    <glyph glyph-name="j" unicode="j" horiz-adv-x="241" 
d="M122 380l-18.998 -65.5l-26 -91l-30 -102.5l-31 -100.5c-10 -31.667 -19.5 -60 -28.5 -85s-16.5 -43.833 -22.5 -56.5c-2 -4 -5.33301 -9.83301 -10 -17.5s-10 -15.5 -16 -23.5s-12.167 -14.833 -18.5 -20.5s-12.166 -8.5 -17.499 -8.5c-6.66699 0 -11.334 2 -14.001 6
s-5.33398 8.5 -8.00098 13.5s-6.33398 9.5 -11.001 13.5s-12.667 6 -24 6s-20.333 -4 -27 -12s-10 -17.667 -10 -29c0 -13.333 5.16699 -23.333 15.5 -30s22.833 -10 37.5 -10c15.333 0 30.166 4 44.499 12s28 18 41 30s25.167 25.167 36.5 39.5s21 27.833 29 40.5
c20.667 30.667 39.834 67.167 57.501 109.5s34 86 49 131s29 89.333 42 133l35.5 117.5h-75zM248.002 664c-13.333 0 -24.666 -5.5 -33.999 -16.5s-14 -23.833 -14 -38.5c0 -15.333 4 -26.333 12 -33s19.333 -10 34 -10c13.333 0 24.666 5.5 33.999 16.5s14 23.833 14 38.5
c0 15.333 -4 26.333 -12 33s-19.333 10 -34 10z" />
    <glyph glyph-name="k" unicode="k" horiz-adv-x="481" 
d="M50 0c9.33301 36 20.668 71.3301 34.001 105.997s26 71 38 109l18 14c8.66699 -24 17.5 -50 26.5 -78s20.333 -54.167 34 -78.5s30.167 -44.5 49.5 -60.5s44 -24 74 -24c9.33301 0 20.166 1.16699 32.499 3.5s23.833 5.16602 34.5 8.49902s19.667 7 27 11
s11 7.33301 11 10c0 4 -1.33301 6 -4 6c-2 0 -7.66699 -2.5 -17 -7.5s-21.333 -7.5 -36 -7.5c-24 0 -45.833 10.333 -65.5 31s-37 45.334 -52 74.001s-27.833 57.834 -38.5 87.501l-26 72.5l26.5 20.5c9.66699 7.66699 19.667 15 30 22s20.833 12.833 31.5 17.5
s21.334 7 32.001 7s19 -1.66699 25 -5s10.5 -7.66602 13.5 -12.999s5.16699 -11.833 6.5 -19.5s2.66602 -16.167 3.99902 -25.5l60 11c0.666992 6 1.16699 11.833 1.5 17.5s0.5 11.167 0.5 16.5c0 20 -4.83301 35.333 -14.5 46s-28.5 16 -56.5 16
c-18.667 0 -38.334 -5.83301 -59.001 -17.5s-41 -25.667 -61 -42s-38.667 -33.166 -56 -50.499s-32.666 -32 -45.999 -44l-2 2c32 78 62.5 156.667 91.5 236l88.5 240h-75l-249 -712h68z" />
    <glyph glyph-name="l" unicode="l" 
d="M222 712l-51 -158.997l-50.5 -151l-46.5 -134.5l-38 -109.5l-25.5 -76.5c-6.33301 -19.667 -9.5 -31.167 -9.5 -34.5c0 -18 7.16699 -32.333 21.5 -43s29.833 -16 46.5 -16c16 0 33.5 4.66699 52.5 14s37 19.666 54 30.999s31.167 22.333 42.5 33s17 17 17 19
c0 3.33301 -1.66699 5 -5 5c-0.666992 0 -4.16699 -2.83301 -10.5 -8.5s-14.333 -11.834 -24 -18.501s-20.5 -12.834 -32.5 -18.501s-24 -8.5 -36 -8.5c-4 0 -8.83301 0.333008 -14.5 1s-11 2 -16 4s-9.16699 4.83301 -12.5 8.5s-5 8.5 -5 14.5s2.66699 18.5 8 37.5
s12.5 42.5 21.5 70.5s19.5 59 31.5 93l37 105.5l38 108l35.5 100l28.5 81.5l18 52h-75z" />
    <glyph glyph-name="m" unicode="m" horiz-adv-x="722" 
d="M-14 0l64.9971 -0.00488281c2.66699 11.333 8 27.833 16 49.5s17.833 45.5 29.5 71.5s24.667 52.333 39 79s29.5 51 45.5 73s32.5 40 49.5 54s33.5 21 49.5 21c26 0 39 -12.667 39 -38c0 -14.667 -4.5 -35.834 -13.5 -63.501s-19.333 -57 -31 -88l-34 -89.5
c-11 -28.667 -18.5 -51.667 -22.5 -69h70c4.66699 14.667 11.334 33.5 20.001 56.5s18.834 47.333 30.501 73s24.667 51.5 39 77.5s29.5 49.5 45.5 70.5s32.833 38 50.5 51s35.5 19.5 53.5 19.5c9.33301 0 17.333 -3.16699 24 -9.5s10 -14.166 10 -23.499
c0 -7.33301 -2.33301 -18.166 -7 -32.499s-10.667 -30.5 -18 -48.5l-23.5 -56l-23.5 -55c-7.33301 -17.333 -13.333 -32.5 -18 -45.5s-7 -22.167 -7 -27.5c0 -16.667 7 -29.834 21 -39.501s28.667 -14.5 44 -14.5c18.667 0 37.167 5 55.5 15s34.666 21 48.999 33
s26 23.167 35 33.5s13.5 16.166 13.5 17.499c0 2 -0.833008 3.5 -2.5 4.5s-3.16699 1.5 -4.5 1.5c-2 0 -6.16699 -3.33301 -12.5 -10s-14 -14.167 -23 -22.5s-18.5 -15.833 -28.5 -22.5s-20 -10 -30 -10c-12.667 0 -22.167 2.16699 -28.5 6.5s-9.5 13.5 -9.5 27.5
c0 4.66699 2.33301 13.334 7 26.001s10.667 27.334 18 44.001l23 54l23 55.5c7.33301 17.667 13.333 33.834 18 48.501s7 25.667 7 33c0 16.667 -6.16699 30.334 -18.5 41.001s-26.166 16 -41.499 16c-31.333 0 -58.666 -7.16699 -81.999 -21.5s-44 -32.5 -62 -54.5
s-34.333 -46 -49 -72l-43 -73l-2 2c2.66699 8 7.16699 19.667 13.5 35l19 47.5c6.33301 16.333 11.833 31.833 16.5 46.5s7 25.667 7 33c0 16.667 -4.83301 30.334 -14.5 41.001s-22.834 16 -39.501 16c-28 0 -53 -6 -75 -18s-41.667 -27.167 -59 -45.5
s-33.166 -38.666 -47.499 -60.999l-41.5 -64.5l-2 2l65 175h-74z" />
    <glyph glyph-name="n" unicode="n" horiz-adv-x="481" 
d="M110 376l-63.4971 -187.994c-21 -62 -41.167 -124.667 -60.5 -188h67c6 19.333 13.667 41.166 23 65.499s20.166 49.166 32.499 74.499s25.833 50.166 40.5 74.499s29.667 46.166 45 65.499s31 34.833 47 46.5s31.667 17.5 47 17.5c24 0 36 -11.333 36 -34
c0 -8 -2.33301 -19.167 -7 -33.5s-10.667 -30 -18 -47l-23.5 -53.5l-23.5 -53.5c-7.33301 -17 -13.333 -32.5 -18 -46.5s-7 -25 -7 -33c0 -17.333 6.83301 -29.5 20.5 -36.5s28.167 -10.5 43.5 -10.5c14 0 29 3 45 9s30.667 13 44 21s24.333 15.667 33 23s13 12 13 14
s-0.666992 3.5 -2 4.5s-2.66602 1.5 -3.99902 1.5c-2.66699 0 -6.33398 -1.83301 -11.001 -5.5s-10.334 -7.66699 -17.001 -12s-14 -8.33301 -22 -12s-16.667 -5.5 -26 -5.5c-8.66699 0 -16.334 2.66699 -23.001 8s-10 12.666 -10 21.999c0 6.66699 2.33301 16.834 7 30.501
s10.667 29 18 46l23.5 54l23.5 54.5c7.33301 17.333 13.333 33.333 18 48s7 26 7 34c0 10 -2.16699 18.667 -6.5 26s-10 13.166 -17 17.499s-14.833 7.66602 -23.5 9.99902s-17.334 3.5 -26.001 3.5c-22.667 0 -45 -7.33301 -67 -22s-42.5 -32.5 -61.5 -53.5
s-36.167 -43.167 -51.5 -66.5s-27.666 -44 -36.999 -62l-2 2l70 190h-76z" />
    <glyph glyph-name="o" unicode="o" horiz-adv-x="389" 
d="M346 296c0 13.333 -1.16504 25.666 -3.49805 36.999s-6.83301 21 -13.5 29s-15.5 14.333 -26.5 19s-25.167 7 -42.5 7c-16.667 0 -35.334 -4.5 -56.001 -13.5s-41.334 -21.167 -62.001 -36.5s-40.667 -33.166 -60 -53.499s-36.5 -42 -51.5 -65s-27 -46.5 -36 -70.5
s-13.5 -47 -13.5 -69c0 -13.333 1.16699 -25.666 3.5 -36.999s6.83301 -21 13.5 -29s15.5 -14.333 26.5 -19s25.167 -7 42.5 -7c21.333 0 43.166 4.5 65.499 13.5s43.833 21.167 64.5 36.5s40 33.166 58 53.499s33.833 42 47.5 65s24.334 46.5 32.001 70.5s11.5 47 11.5 69z
M212.002 356c37.333 0 56 -19 56 -57c0 -11.333 -1.66699 -26.166 -5 -44.499s-8.16602 -38.166 -14.499 -59.499s-13.833 -42.833 -22.5 -64.5s-18.667 -41.334 -30 -59.001s-23.833 -32 -37.5 -43s-28.167 -16.5 -43.5 -16.5c-37.333 0 -56 19 -56 57
c0 11.333 1.66699 26.166 5 44.499s8.16602 38.166 14.499 59.499s13.833 42.833 22.5 64.5s18.667 41.334 30 59.001s23.833 32 37.5 43s28.167 16.5 43.5 16.5z" />
    <glyph glyph-name="p" unicode="p" horiz-adv-x="426" 
d="M300 293c0 -10.667 -1.66895 -24.833 -5.00195 -42.5s-8.16602 -36.834 -14.499 -57.501s-14.166 -41.5 -23.499 -62.5s-19.5 -40 -30.5 -57s-23.167 -30.833 -36.5 -41.5s-27.333 -16 -42 -16c-17.333 0 -32.5 6.33301 -45.5 19s-19.5 27.667 -19.5 45
c0 4.66699 2 14.5 6 29.5s9.5 32.333 16.5 52s15.333 40.334 25 62.001s20.5 41.667 32.5 60s25 33.333 39 45s28.333 17.5 43 17.5c36.667 0 55 -17.667 55 -53zM114.998 370.001l-58.499 -163l-59.5 -169.5l-54 -154l-42 -117.5h71l82 236
c10.667 -3.33301 20 -6.5 28 -9.5s17.667 -4.5 29 -4.5c16.667 0 34.834 4.33301 54.501 13s39.5 20.5 59.5 35.5s39.167 32.5 57.5 52.5s34.5 41.167 48.5 63.5s25.333 45.333 34 69s13 46.5 13 68.5c0 26 -6.83301 48.833 -20.5 68.5s-34.834 29.5 -63.501 29.5
c-18 0 -34 -3.33301 -48 -10s-26.833 -15.5 -38.5 -26.5s-22.334 -23.333 -32.001 -37l-27.5 -40.5l-2 2l19.5 46.5l19.5 47.5h-70z" />
    <glyph glyph-name="q" unicode="q" horiz-adv-x="426" 
d="M178 -234c33.333 100.667 68.333 199.337 105 296.004l107 294c-11.333 9.33301 -24.5 17 -39.5 23s-29.833 9 -44.5 9c-23.333 0 -47.333 -4.83301 -72 -14.5s-48.667 -22.834 -72 -39.501s-45.5 -35.834 -66.5 -57.501s-39.333 -44.667 -55 -69s-28 -49 -37 -74
s-13.5 -49.167 -13.5 -72.5c0 -21.333 5.16699 -38.833 15.5 -52.5s26.833 -20.5 49.5 -20.5c16 0 32.833 4.16699 50.5 12.5s34.667 18.666 51 30.999s31.5 25.666 45.5 39.999s25 27.5 33 39.5l2 -2l-67.5 -170.5l-64.5 -172.5h73zM68 82.0029
c0 12 2.33301 27.165 7 45.498s11.167 37.833 19.5 58.5s18.166 41.334 29.499 62.001s23.5 39.334 36.5 56.001s26.5 30.167 40.5 40.5s28 15.5 42 15.5c12.667 0 25 -4.33301 37 -13s20.667 -18.667 26 -30c-15.333 -42 -28.333 -79.5 -39 -112.5
s-22.334 -58.833 -35.001 -77.5c-8 -12 -16.667 -23.833 -26 -35.5s-19.166 -22 -29.499 -31s-20.666 -16.333 -30.999 -22s-20.5 -8.5 -30.5 -8.5c-16 0 -27.833 4.83301 -35.5 14.5s-11.5 22.167 -11.5 37.5z" />
    <glyph glyph-name="r" unicode="r" horiz-adv-x="352" 
d="M-14 0l67.999 0.00195312c3.33301 11.333 8.33301 27.5 15 48.5s14.834 44.167 24.501 69.5s20.167 51.166 31.5 77.499s23.5 50.166 36.5 71.499s26.5 38.833 40.5 52.5s28 20.5 42 20.5c6 0 12.333 -0.5 19 -1.5s12.334 -3.83301 17.001 -8.5
c-3.33301 -5.33301 -6.16602 -10.666 -8.49902 -15.999s-3.5 -11 -3.5 -17c0 -11.333 3.5 -20.333 10.5 -27s16.167 -10 27.5 -10c8.66699 0 16 2.16699 22 6.5s11 9.66602 15 15.999s6.83301 13.5 8.5 21.5s2.5 15.333 2.5 22c0 19.333 -5.83301 34.5 -17.5 45.5
s-26.834 16.5 -45.501 16.5s-36 -5.66699 -52 -17s-30.833 -25.333 -44.5 -42s-25.834 -34 -36.501 -52l-28 -48l-2 2l55 145h-74z" />
    <glyph glyph-name="s" unicode="s" horiz-adv-x="352" 
d="M14 174c-12 0 -21.667 -3.16406 -29 -9.49707s-13.333 -14.333 -18 -24s-7.83398 -19.834 -9.50098 -30.501s-2.5 -20.667 -2.5 -30c0 -29.333 8 -52 24 -68s38.667 -24 68 -24c19.333 0 41.333 6.66699 66 20s48 30.666 70 51.999s41 46 57 74s25 56.333 27 85
c2 26 3.16699 49.333 3.5 70s2.5 37.667 6.5 51c2 6 4.5 12.667 7.5 20s6 14.166 9 20.499s5.5 12 7.5 17s3 7.83301 3 8.5c0 4 -0.833008 6.5 -2.5 7.5s-3.16699 1.5 -4.5 1.5s-3.5 -1.5 -6.5 -4.5l-7.5 -7.5c-7.33301 -7.33301 -17.166 -18.5 -29.499 -33.5l-46 -54.5
c-18.333 -21.333 -40.5 -45.5 -66.5 -72.5s-56 -56.167 -90 -87.5c-6 6 -11.333 10.667 -16 14s-11.667 5 -21 5zM197 280.003c-2.66699 -24.667 -4.50098 -49.334 -5.50098 -74.001s-3.16699 -49 -6.5 -73c-2 -15.333 -5.83301 -30.166 -11.5 -44.499
s-13 -26.833 -22 -37.5s-19.667 -19.167 -32 -25.5s-26.166 -9.5 -41.499 -9.5c-43.333 0 -65 22.667 -65 68c11.333 4 21.333 10 30 18s13 17.667 13 29c0 3.33301 -0.166992 5.83301 -0.5 7.5s-0.833008 3.16699 -1.5 4.5z" />
    <glyph glyph-name="t" unicode="t" horiz-adv-x="296" 
d="M306 376l-126.997 -0.000976562l55 161l-77 -19l-33.5 -101l-35 -104.5l-33 -99l-28 -84c-8.33301 -24.333 -14.833 -44.166 -19.5 -59.499s-7 -23.666 -7 -24.999c0 -18.667 6.5 -32.834 19.5 -42.501s28.167 -14.5 45.5 -14.5c14 0 29.667 3.83301 47 11.5
s33.5 16.334 48.5 26.001s27.5 19.167 37.5 28.5s15 15.333 15 18c0 4 -2 6 -6 6c-0.666992 0 -3.83398 -2.66699 -9.50098 -8s-12.834 -11 -21.501 -17s-18.334 -11.667 -29.001 -17s-22 -8 -34 -8c-22 0 -33 11.667 -33 35c0 8.66699 3.83301 25.667 11.5 51
s16.667 53.166 27 83.499l30.5 88.5c10 28.667 17 50.667 21 66h129z" />
    <glyph glyph-name="u" unicode="u" horiz-adv-x="481" 
d="M117 376c-9.33301 -27.333 -20.8359 -57.665 -34.5029 -90.998l-39.5 -98c-12.667 -32 -23.5 -61.333 -32.5 -88s-13.5 -47 -13.5 -61c0 -17.333 5.5 -30 16.5 -38s24.833 -12 41.5 -12c20 0 41.5 6.66699 64.5 20s45.167 29.666 66.5 48.999s40.5 40 57.5 62
s29.167 41.667 36.5 59l2 -2c-2 -4.66699 -5.83301 -14.167 -11.5 -28.5l-17.5 -45.5c-6 -16 -11.333 -30.833 -16 -44.5s-7 -22.5 -7 -26.5c0 -6.66699 2 -12.667 6 -18s8.83301 -9.83301 14.5 -13.5s11.834 -6.5 18.501 -8.5s13 -3 19 -3c22 0 42.833 4.83301 62.5 14.5
s36.667 20.5 51 32.5s25.833 23.167 34.5 33.5s13 15.833 13 16.5c0 3.33301 -1.66699 5 -5 5c-0.666992 0 -4.16699 -3.16699 -10.5 -9.5s-14.166 -13.5 -23.499 -21.5s-19.666 -15.167 -30.999 -21.5s-22 -9.5 -32 -9.5s-18.5 1.66699 -25.5 5s-10.5 10.666 -10.5 21.999
c0 6.66699 2.33301 18.167 7 34.5s10.667 35 18 56l24.5 67l26.5 67.5l23 58c6.66699 17.333 11.667 30 15 38h-74l-44.5 -115c-14.333 -38 -32.5 -74.667 -54.5 -110c-8.66699 -14 -18.667 -27.833 -30 -41.5s-23 -26 -35 -37s-24 -19.833 -36 -26.5s-23 -10 -33 -10
c-12 0 -21.167 2.66699 -27.5 8s-9.5 14.666 -9.5 27.999c0 11.333 4.5 30.333 13.5 57s19.667 55.5 32 86.5l37 91c12.333 29.667 21.5 52.834 27.5 69.501h-74z" />
    <glyph glyph-name="v" unicode="v" horiz-adv-x="370" 
d="M38 207c0 -14 0.661133 -27.6689 1.99414 -41.002s3 -27.5 5 -42.5s3.66699 -31.167 5 -48.5s2 -37 2 -59c0 -3.33301 -0.333008 -7.16602 -1 -11.499s-1 -8.5 -1 -12.5c0 -8 2.33301 -12 7 -12c1.33301 0 3.5 1.5 6.5 4.5l16.5 17l34 34
c14.667 14.333 34.334 32.5 59.001 54.5c2 2 7.5 6.83301 16.5 14.5l32 28.5c12.333 11.333 25.333 24.333 39 39s26.334 29.834 38.001 45.501s21.334 31.5 29.001 47.5s11.5 31 11.5 45c0 27.333 -3.83301 47.5 -11.5 60.5s-21.834 19.5 -42.501 19.5
c-8.66699 0 -16.5 -3.33301 -23.5 -10s-10.5 -14.667 -10.5 -24c0 -15.333 2.33301 -30.333 7 -45s7 -29.667 7 -45c0 -22.667 -4.16699 -43.167 -12.5 -61.5s-19.166 -35.333 -32.499 -51s-28 -30.167 -44 -43.5l-48 -41c-3.33301 30.667 -8.16602 61.334 -14.499 92.001
s-9.5 61.667 -9.5 93c0 26 2.83301 46.667 8.5 62s11.667 27.166 18 35.499s12.333 14.5 18 18.5s8.5 7.66699 8.5 11c0 4.66699 -2.33301 7 -7 7c-6.66699 0 -16.167 -4.5 -28.5 -13.5s-24.666 -21.5 -36.999 -37.5s-23.166 -35.167 -32.499 -57.5s-14 -46.5 -14 -72.5z
" />
    <glyph glyph-name="w" unicode="w" horiz-adv-x="556" 
d="M131 67c-2 11.333 -4.17188 25.5068 -6.50488 42.5068l-7.5 52.5c-2.66699 18 -4.83398 35.5 -6.50098 52.5s-2.5 30.833 -2.5 41.5c0 28 2.83301 49.5 8.5 64.5s11.667 26.167 18 33.5s12.333 12.666 18 15.999s8.5 7 8.5 11c0 4.66699 -2.33301 7 -7 7
c-2.66699 0 -10 -3.83301 -22 -11.5s-24.5 -19 -37.5 -34s-24.667 -33.333 -35 -55s-15.5 -46.5 -15.5 -74.5c0 -28.667 2.16699 -57 6.5 -85s6.5 -56.333 6.5 -85c0 -6.66699 -0.5 -15.334 -1.5 -26.001s-1.5 -20.334 -1.5 -29.001c0 -5.33301 1.66699 -8 5 -8
c2 0 6 3.5 12 10.5s15.333 17.167 28 30.5s29.334 30 50.001 50s47 43.333 79 70c1.33301 -15.333 2.83301 -31.333 4.5 -48s2.83398 -33.334 3.50098 -50.001c0 -6.66699 -0.5 -15.334 -1.5 -26.001s-1.5 -20.334 -1.5 -29.001c0 -5.33301 1.66699 -8 5 -8
c2.66699 0 6.16699 2.33301 10.5 7s9.33301 10.667 15 18s12.334 15.333 20.001 24s15.834 17 24.501 25l69.5 61c25 22 48.333 44.667 70 68s39.667 46.333 54 69s21.5 44 21.5 64c0 13.333 -1.83301 24.833 -5.5 34.5s-8.16699 17.5 -13.5 23.5s-11.166 10.5 -17.499 13.5
s-12.166 4.5 -17.499 4.5c-8.66699 0 -17 -3.66699 -25 -11s-12 -17 -12 -29c0 -10 2.83301 -22 8.5 -36s8.5 -28.667 8.5 -44c0 -21.333 -4.16699 -41.333 -12.5 -60s-19.333 -36.334 -33 -53.001s-29 -32.167 -46 -46.5l-51.5 -41.5c-1.33301 32.667 -5 64.5 -11 95.5
s-9 62.167 -9 93.5c0 26 2.83301 46.667 8.5 62s12 27.166 19 35.499s13.333 14.5 19 18.5s8.5 7.66699 8.5 11s-2.33301 5 -7 5c-4 0 -12 -4.16699 -24 -12.5s-24.5 -20.166 -37.5 -35.499s-24.667 -34 -35 -56s-15.5 -47 -15.5 -75v-29c0 -10 0.666992 -18.667 2 -26z" />
    <glyph glyph-name="x" unicode="x" horiz-adv-x="519" 
d="M-41 74c0 -23.333 6.49805 -43.499 19.498 -60.499s31.833 -25.5 56.5 -25.5c18 0 36.167 5.66699 54.5 17s35.833 25 52.5 41s31.834 33 45.501 51s24.5 34 32.5 48c6 -37.333 11.5 -66.5 16.5 -87.5s11 -36.667 18 -47s15.333 -16.666 25 -18.999
s21.834 -3.5 36.501 -3.5c15.333 0 31 4.66699 47 14s30.833 19.666 44.5 30.999s24.834 22 33.501 32s13 16 13 18c0 4 -2.33301 6 -7 6c-2 0 -5.5 -2.83301 -10.5 -8.5s-11.333 -11.667 -19 -18s-16.667 -12.333 -27 -18s-21.833 -8.5 -34.5 -8.5
c-9.33301 0 -18.166 2.16699 -26.499 6.5s-16.166 13.5 -23.499 27.5s-14.333 34.333 -21 61s-13 62.334 -19 107.001c0.666992 3.33301 3.83398 11 9.50098 23s13.334 24.833 23.001 38.5s21 25.834 34 36.501s27.167 16 42.5 16c6.66699 0 12.667 -0.833008 18 -2.5
s10.666 -3.83398 15.999 -6.50098c-3.33301 -6 -6.83301 -12.667 -10.5 -20s-5.5 -14.666 -5.5 -21.999c0 -11.333 3.5 -20.333 10.5 -27s16.167 -10 27.5 -10c15.333 0 26.166 6.33301 32.499 19s9.5 25.667 9.5 39c0 21.333 -5.66699 37.666 -17 48.999
s-27.666 17 -48.999 17c-16.667 0 -32.334 -4.33301 -47.001 -13s-28.334 -19.5 -41.001 -32.5s-23.667 -27.333 -33 -43s-17 -30.167 -23 -43.5h-2c-4.66699 30 -9.33398 53.833 -14.001 71.5s-10.334 31 -17.001 40s-14.5 14.667 -23.5 17s-20.167 3.5 -33.5 3.5
c-16.667 0 -33.334 -4.16699 -50.001 -12.5s-31.5 -18 -44.5 -29s-23.5 -21.833 -31.5 -32.5s-12 -18 -12 -22c0 -4.66699 1.33301 -7 4 -7s5.83398 2.83301 9.50098 8.5s8.5 12 14.5 19s13.5 13.333 22.5 19s20.167 8.5 33.5 8.5c12.667 0 23.667 -1.33301 33 -4
s17.833 -9.83398 25.5 -21.501s14.5 -29.334 20.5 -53.001s12 -56.834 18 -99.501c-6 -11.333 -14.167 -24.833 -24.5 -40.5s-22 -30.834 -35 -45.501s-26.667 -27 -41 -37s-28.833 -15 -43.5 -15c-12 0 -21.833 2.83301 -29.5 8.5s-11.5 14.167 -11.5 25.5v6
c0 2.66699 0.333008 5.33398 1 8.00098c7.33301 3.33301 13.166 7.5 17.499 12.5s6.5 11.5 6.5 19.5c0 13.333 -4.16699 23.5 -12.5 30.5s-18.166 10.5 -29.499 10.5c-8.66699 0 -16.5 -2.33301 -23.5 -7s-12.833 -10.5 -17.5 -17.5s-8.16699 -14.667 -10.5 -23
s-3.5 -16.166 -3.5 -23.499z" />
    <glyph glyph-name="y" unicode="y" horiz-adv-x="444" 
d="M359 376c-4 -9.33301 -9.33594 -23.665 -16.0029 -42.998l-22.5 -64c-8.33301 -23.333 -17.5 -47.333 -27.5 -72s-20.5 -47.167 -31.5 -67.5s-22.5 -37 -34.5 -50s-24 -19.5 -36 -19.5c-7.33301 0 -13.166 1 -17.499 3s-7.83301 5.66699 -10.5 11
s-4.33398 12.666 -5.00098 21.999s-1 21.666 -1 36.999c0 54 1.5 98.167 4.5 132.5s4.5 56.5 4.5 66.5c0 20 -4.5 34.333 -13.5 43s-24.5 13 -46.5 13c-14 0 -28.333 -4 -43 -12s-28 -17.333 -40 -28s-21.833 -20.667 -29.5 -30s-11.5 -15.666 -11.5 -18.999c0 -2 1 -3 3 -3
c2.66699 0 6 2.16699 10 6.5l14 14.5c5.33301 5.33301 11.5 10.166 18.5 14.499s14.833 6.5 23.5 6.5c10 0 17.833 -0.833008 23.5 -2.5s10.167 -5.5 13.5 -11.5s5.5 -14.667 6.5 -26s1.5 -27 1.5 -47c0 -30.667 -0.833008 -60 -2.5 -88s-2.5 -60 -2.5 -96
c0 -26.667 3.83301 -44.5 11.5 -53.5s21.5 -13.5 41.5 -13.5c10 -0 20.833 4.33301 32.5 13s23 19 34 31s21 24.167 30 36.5l21.5 29.5l2 -2l-33 -78.5l-33 -78.5c-6 -14 -12.667 -28.667 -20 -44s-15.666 -29.5 -24.999 -42.5s-20.666 -23.667 -33.999 -32
s-29 -12.5 -47 -12.5c-12.667 0 -21.5 3.66699 -26.5 11s-9.33301 15.333 -13 24s-8.33398 16.667 -14.001 24s-15.5 11 -29.5 11c-13.333 0 -24.666 -3.33301 -33.999 -10s-14 -17.334 -14 -32.001c0 -11.333 2.66699 -20.833 8 -28.5s12.333 -14 21 -19
s18 -8.66699 28 -11s19.667 -3.5 29 -3.5c18.667 0 37.834 3.66699 57.501 11s38.5 17 56.5 29s34.833 25.5 50.5 40.5s28.5 29.833 38.5 44.5c24.667 35.333 45.667 72.333 63 111s33.333 77.834 48 117.501l43 119.5c14 40 29.667 79 47 117h-72z" />
    <glyph glyph-name="z" unicode="z" horiz-adv-x="407" 
d="M277 44c-16.667 0 -31.834 3.49902 -45.501 10.499s-27 14.833 -40 23.5l-39 25.5c-13 8.33301 -27.5 13.5 -43.5 15.5l110.5 105.5c36.333 35.667 75.5 67.5 117.5 95.5l11.5 8l17.5 13c6 4.66699 11.333 9.5 16 14.5s7 9.5 7 13.5c0 8 -2 13.167 -6 15.5
s-7.66699 3.5 -11 3.5c-4.66699 0 -9.33398 -2.16699 -14.001 -6.5l-15 -14c-5.33301 -5 -11 -9.66699 -17 -14s-12 -6.5 -18 -6.5c-8 0 -16.167 1.5 -24.5 4.5s-17.166 6.5 -26.499 10.5c-9.33301 3.33301 -19.333 6.5 -30 9.5s-22.334 4.5 -35.001 4.5
c-17.333 0 -36.333 -7 -57 -21s-40 -29.833 -58 -47.5s-33.167 -34.167 -45.5 -49.5s-18.5 -24.333 -18.5 -27c0 -1.33301 0.166992 -2.66602 0.5 -3.99902s1.5 -2 3.5 -2s6.33301 4.66699 13 14s15.5 19.833 26.5 31.5s24.333 22.167 40 31.5s33.834 14 54.501 14
c9.33301 0 18.333 -0.666992 27 -2l27 -4c8.66699 -2 17.167 -3.66699 25.5 -5s16.5 -2 24.5 -2c11.333 0 21.333 1 30 3l2 -2c-2.66699 -1.33301 -12.5 -10.166 -29.5 -26.499l-63 -59l-82.5 -73.5c-30 -26 -59.333 -49 -88 -69c-5.33301 -4 -12.166 -8.66699 -20.499 -14
s-16.5 -10.833 -24.5 -16.5s-15 -11.334 -21 -17.001s-9 -10.5 -9 -14.5c0 -6 4 -10.5 12 -13.5s18.333 -4.5 31 -4.5c12 0 20.5 4 25.5 12s9.16699 17 12.5 27s7.5 19 12.5 27s13.833 12 26.5 12c11.333 0 22.166 -4 32.499 -12l33.5 -27
c12 -9.33301 25.167 -18.166 39.5 -26.499s31.166 -12.5 50.499 -12.5c18.667 0 37.834 5.33301 57.501 16s37.5 22.667 53.5 36s29.167 25.666 39.5 36.999s15.5 18 15.5 20c0 4 -1.33301 6 -4 6c-1.33301 0 -5.5 -3.5 -12.5 -10.5s-15.667 -14.667 -26 -23
s-21.666 -16 -33.999 -23s-24.833 -10.5 -37.5 -10.5z" />
    <glyph glyph-name="braceleft" unicode="{" horiz-adv-x="444" 
d="M479 686c-22.667 0 -43.499 -1.66797 -62.499 -5.00098s-36.333 -10.166 -52 -20.499s-29.834 -25 -42.501 -44s-24.334 -43.833 -35.001 -74.5l-63 -183c-6 -16.667 -12 -31.167 -18 -43.5s-13.167 -23.166 -21.5 -32.499s-18.333 -17.333 -30 -24
s-25.5 -12.334 -41.5 -17.001c30.667 -10.667 46 -29 46 -55c0 -15.333 -4.66699 -36 -14 -62l-63 -183l-9.5 -30.5c-3 -9.66699 -4.5 -21.167 -4.5 -34.5c0 -17.333 2.5 -31.166 7.5 -41.499s12.333 -18.166 22 -23.499s21.167 -9 34.5 -11s28 -3 44 -3l4 12
c-25.333 8.66699 -38 28.667 -38 60c0 13.333 1.66699 24.833 5 34.5l11 31.5l59 173c10.667 30 16 55 16 75c0 14 -4 25.667 -12 35s-21.667 16.666 -41 21.999v2c19.333 4.66699 35.833 10.667 49.5 18s25.167 16.5 34.5 27.5s17.5 23.667 24.5 38s13.5 30.5 19.5 48.5
l59 173c12 36 26.333 64.167 43 84.5s38.334 34.166 65.001 41.499z" />
    <glyph glyph-name="bar" unicode="|" horiz-adv-x="222" 
d="M86 0h50v712h-50v-712z" />
    <glyph glyph-name="braceright" unicode="}" horiz-adv-x="444" 
d="M-47 -202c22.667 0 43.499 1.66797 62.499 5.00098s36.333 10.166 52 20.499s29.834 25 42.501 44s24.334 43.833 35.001 74.5l63 183c6 16.667 12 31.167 18 43.5s13.167 23.166 21.5 32.499s18.333 17.333 30 24s25.5 12.334 41.5 17.001c-30.667 10.667 -46 29 -46 55
c0 15.333 4.66699 36 14 62l63 183l9.5 30.5c3 9.66699 4.5 21.167 4.5 34.5c0 17.333 -2.5 31.166 -7.5 41.499s-12.333 18.166 -22 23.499s-21.167 9 -34.5 11s-28 3 -44 3l-4 -12c25.333 -8.66699 38 -28.667 38 -60c0 -13.333 -1.66699 -24.833 -5 -34.5l-11 -31.5
l-59 -173c-10.667 -30 -16 -55 -16 -75c0 -14 4 -25.667 12 -35s21.667 -16.666 41 -21.999v-2c-19.333 -4.66699 -35.833 -10.667 -49.5 -18s-25.167 -16.5 -34.5 -27.5s-17.5 -23.667 -24.5 -38s-13.5 -30.5 -19.5 -48.5l-59 -173c-12 -36 -26.333 -64.167 -43 -84.5
s-38.334 -34.166 -65.001 -41.499z" />
    <glyph glyph-name="asciitilde" unicode="~" horiz-adv-x="500" 
d="M426 251l-17.999 -26.002c-6 -8.66699 -12.5 -16.334 -19.5 -23.001s-14.667 -12.167 -23 -16.5s-17.5 -6.5 -27.5 -6.5c-13.333 0 -29 4 -47 12l-55 24c-19.333 8.66699 -38.333 16.167 -57 22.5s-36.667 9.5 -54 9.5c-16.667 0 -31.5 -2.5 -44.5 -7.5
s-24.5 -11.5 -34.5 -19.5s-18.833 -17.167 -26.5 -27.5s-14.167 -20.833 -19.5 -31.5l36 -36c4 8.66699 8.5 17.334 13.5 26.001s11 16.334 18 23.001s14.833 12.167 23.5 16.5s18.334 6.5 29.001 6.5c23.333 0 44.333 -3.5 63 -10.5s36 -15.167 52 -24.5
c16.667 -9.33301 33.167 -17.166 49.5 -23.499s33.833 -9.5 52.5 -9.5c15.333 0 29.166 2.5 41.499 7.5s23.333 11.5 33 19.5s18.667 17.167 27 27.5s16.166 20.833 23.499 31.5z" />
    <glyph glyph-name="exclamdown" unicode="&#xa1;" horiz-adv-x="333" 
d="M193 283c-4 -30.667 -11.668 -59.8311 -23.001 -87.498s-24.166 -54.834 -38.499 -81.501s-29.333 -52.834 -45 -78.501s-30.5 -51.834 -44.5 -78.501s-26 -54.167 -36 -82.5s-16 -57.833 -18 -88.5h86c4 43.333 12.5 85.5 25.5 126.5s26.833 81.833 41.5 122.5
s28.167 81.334 40.5 122.001s19.5 82.667 21.5 126h-10zM211.999 312.003c18.667 0 33.5 7.16699 44.5 21.5s16.5 31.166 16.5 50.499c0 16 -4.33301 28.667 -13 38s-20 14 -34 14c-18.667 0 -33.5 -7.16699 -44.5 -21.5s-16.5 -31.166 -16.5 -50.499
c0 -16 4.33301 -28.667 13 -38s20 -14 34 -14z" />
    <glyph glyph-name="cent" unicode="&#xa2;" horiz-adv-x="444" 
d="M91 -85l26.0029 -8l31 90c3.33301 -0.666992 8.66602 -1 15.999 -1c20 0 41.167 4.83301 63.5 14.5s43 20.834 62 33.501s34.667 24.834 47 36.501s18.5 19.834 18.5 24.501s-2.33301 7 -7 7c-4 0 -9.66699 -4.16699 -17 -12.5s-17.166 -17.5 -29.499 -27.5
s-27.333 -19.167 -45 -27.5s-38.834 -12.5 -63.501 -12.5c-14.667 0 -25 1.33301 -31 4l111 320c11.333 -1.33301 21.333 -4.66602 30 -9.99902s14.667 -15.333 18 -30c-12.667 -6.66699 -19 -16.667 -19 -30c0 -12.667 3.66699 -21.334 11 -26.001s16.666 -7 27.999 -7
c15.333 0 26.333 6.16699 33 18.5s10 24.833 10 37.5c0 14 -3.16699 25.833 -9.5 35.5s-14.5 17.667 -24.5 24s-20.833 11 -32.5 14s-22.834 4.83301 -33.501 5.5l29 81l-29 7l-32 -93c-30 -6 -59 -16.833 -87 -32.5s-52.833 -34.834 -74.5 -57.501s-39 -48.334 -52 -77.001
s-19.5 -59 -19.5 -91c0 -14.667 2.16699 -29.334 6.5 -44.001s10.833 -28 19.5 -40s19.167 -21.667 31.5 -29s26.833 -11.333 43.5 -12zM136.003 44c-15.333 7.33301 -26 19.333 -32 36s-9 33.667 -9 51c0 20 2.66699 43.167 8 69.5s14 51.333 26 75s27.5 43.667 46.5 60
s41.833 24.5 68.5 24.5z" />
    <glyph glyph-name="sterling" unicode="&#xa3;" horiz-adv-x="444" 
d="M30 58l-1.99707 2.99805c46 29.333 85 66 117 110s53.333 93 64 147h127l7 24h-129l9.5 51.5c3.66699 20.333 8.33398 42 14.001 65s12.5 46 20.5 69s17.5 43.667 28.5 62s23.667 33.333 38 45s30.833 17.5 49.5 17.5c25.333 0 42.666 -7.16699 51.999 -21.5
s13.333 -32.5 12 -54.5c-10.667 -1.33301 -19.834 -5.16602 -27.501 -11.499s-11.5 -15.166 -11.5 -26.499c0 -13.333 4.5 -23.166 13.5 -29.499s19.5 -9.5 31.5 -9.5c6 0 12 2 18 6s11.167 9.16699 15.5 15.5s7.83301 13.666 10.5 21.999s4 16.833 4 25.5
c0 34.667 -10.167 60 -30.5 76s-46.5 24 -78.5 24c-29.333 0 -55.166 -4.83301 -77.499 -14.5s-41.833 -22.834 -58.5 -39.501s-30.834 -35.834 -42.501 -57.501s-21.667 -44.5 -30 -68.5s-15 -48.667 -20 -74s-9.16699 -49.333 -12.5 -72h-75l-7 -24h77
c-4.66699 -34 -11.834 -65.833 -21.501 -95.5s-22.334 -57.167 -38.001 -82.5s-34.667 -48.166 -57 -68.499s-48.833 -38.5 -79.5 -54.5v-2l2 -20h2c24 2 48.167 3.33301 72.5 4s48.5 1 72.5 1c36.667 0 73.334 -0.333008 110.001 -1s73.334 -1.66699 110.001 -3
c23.333 50 49.333 97.667 78 143l-8 6l-27 -31.5c-8.66699 -10.333 -17.834 -19.666 -27.501 -27.999s-20.334 -15 -32.001 -20s-25.167 -7.5 -40.5 -7.5h-223z" />
    <glyph glyph-name="currency" unicode="&#xa4;" horiz-adv-x="444" 
d="M31 151l32.0049 -32.0029l43 48c19.333 -17.333 40.166 -29.666 62.499 -36.999s45.166 -11 68.499 -11s46.166 3.83301 68.499 11.5s43.166 19.834 62.499 36.501l43 -48l32 32l-44 46c15.333 19.333 26.5 39.833 33.5 61.5s10.5 43.834 10.5 66.501
c0 23.333 -3.5 46.166 -10.5 68.499s-18.5 42.833 -34.5 61.5l45 44l-32 32l-46 -45c-18 15.333 -38 26.666 -60 33.999s-44.667 11 -68 11c-22 0 -44.333 -3.66699 -67 -11s-43 -18.666 -61 -33.999l-46 45l-32 -32l46 -47c-17.333 -17.333 -29.333 -37.166 -36 -59.499
s-10 -44.833 -10 -67.5c0 -23.333 3.66699 -45.5 11 -66.5s18.666 -41.167 33.999 -60.5zM237.005 480.997c21.333 0 41.1689 -4.33301 59.502 -13s34.333 -20.167 48 -34.5s24.5 -31 32.5 -50s12 -38.5 12 -58.5s-4 -39.5 -12 -58.5s-18.833 -35.667 -32.5 -50
s-29.667 -25.833 -48 -34.5s-38.166 -13 -59.499 -13c-20.667 0 -40.334 4.33301 -59.001 13s-34.834 20.167 -48.501 34.5s-24.5 31 -32.5 50s-12 38.5 -12 58.5s4 39.5 12 58.5s18.833 35.667 32.5 50s29.667 25.833 48 34.5s38.166 13 59.499 13z" />
    <glyph glyph-name="yen" unicode="&#xa5;" horiz-adv-x="444" 
d="M43 -4c21.333 1.33301 43.1689 2.33203 65.502 2.99902s44.5 1 66.5 1c25.333 0 50.166 -0.333008 74.499 -1s48.5 -1.66699 72.5 -3v14c-6 2 -14.833 3.83301 -26.5 5.5s-23.334 4 -35.001 7s-21.834 7.33301 -30.501 13s-13 13.5 -13 23.5
c0 5.33301 0.333008 10.333 1 15s1.66699 9.66699 3 15l32 131h154l6 24h-154l17 69l17 23h131l6 24h-120l52 71.5l58 74.5c20 24.667 40.5 48.5 61.5 71.5s41.5 43.833 61.5 62.5v14c-13.333 -0.666992 -26.666 -1.5 -39.999 -2.5s-26.666 -1.5 -39.999 -1.5
c-17.333 0 -34.666 0.5 -51.999 1.5s-35 1.83301 -53 2.5v-14c3.33301 -0.666992 9.33301 -2.16699 18 -4.5s17.5 -5.16602 26.5 -8.49902s17.167 -7.5 24.5 -12.5s11 -10.833 11 -17.5c0 -3.33301 -3.5 -11.333 -10.5 -24s-16 -27.5 -27 -44.5l-36 -55l-38 -56.5l-33.5 -48
l-22 -31l-13.5 64l-17 80l-15 72.5c-4.33301 21.667 -6.5 35.5 -6.5 41.5c0 10 2.5 17.667 7.5 23s11.167 9.16602 18.5 11.499s14.833 4 22.5 5s14.167 2.5 19.5 4.5v14c-18.667 -1.33301 -37.334 -2.33301 -56.001 -3s-37.334 -1 -56.001 -1
c-19.333 0 -37.833 0.333008 -55.5 1s-35.5 1.66699 -53.5 3v-14c3.33301 -0.666992 8.66602 -2 15.999 -4s15 -4.66699 23 -8s15.333 -7 22 -11s11.334 -8.33301 14.001 -13c6.66699 -12 13 -27.833 19 -47.5s11.5 -40.667 16.5 -63s9.83301 -45.166 14.5 -68.499l13 -65
h-124l-6 -24h134l4 -23l-18 -69h-131l-6 -24h131l-45 -155c-2.66699 -10.667 -7 -19 -13 -25s-13.167 -10.833 -21.5 -14.5s-18 -6.5 -29 -8.5s-23.167 -4.33301 -36.5 -7v-14z" />
    <glyph glyph-name="brokenbar" unicode="&#xa6;" horiz-adv-x="222" 
d="M86 0h50v275h-50v-275zM86 437h50v275h-50v-275z" />
    <glyph glyph-name="section" unicode="&#xa7;" horiz-adv-x="500" 
d="M382 650c4.66699 0 10.4951 -0.333008 17.4951 -1s13.667 -2.16699 20 -4.5s11.833 -5.5 16.5 -9.5s7 -9.33301 7 -16c0 -3.33301 -2 -6.66602 -6 -9.99902s-8.16699 -7.16602 -12.5 -11.499s-8.5 -9.5 -12.5 -15.5s-6 -13.667 -6 -23c0 -12.667 3.5 -23.167 10.5 -31.5
s17.167 -12.5 30.5 -12.5c18.667 0 33.167 5.83301 43.5 17.5s15.5 26.5 15.5 44.5c0 17.333 -4 31.833 -12 43.5s-18.333 21.167 -31 28.5s-26.667 12.666 -42 15.999s-30 5 -44 5c-23.333 0 -44.833 -2.83301 -64.5 -8.5s-36.5 -14.5 -50.5 -26.5s-24.833 -27 -32.5 -45
s-11.5 -39.333 -11.5 -64c0 -22.667 4.83301 -43.667 14.5 -63s21.167 -37.333 34.5 -54l-2 -2c-9.33301 3.33301 -18.666 5.83301 -27.999 7.5s-19.666 2.5 -30.999 2.5c-20.667 0 -38.5 -3.66699 -53.5 -11s-27.5 -17.166 -37.5 -29.499s-17.5 -27 -22.5 -44
s-7.5 -35.5 -7.5 -55.5c0 -31.333 8.33301 -61.333 25 -90s35 -56.334 55 -83.001s38.333 -52.334 55 -77.001s25 -48.334 25 -71.001c0 -14 -3 -26.833 -9 -38.5s-14 -21.667 -24 -30s-21.333 -15 -34 -20s-25.334 -7.5 -38.001 -7.5c-5.33301 0 -12.5 0.5 -21.5 1.5
s-17.833 2.66699 -26.5 5s-16.167 6 -22.5 11s-9.5 11.5 -9.5 19.5c0 3.33301 2.33301 6.5 7 9.5s9.83398 6.83301 15.501 11.5s10.834 10.334 15.501 17.001s7 15 7 25c0 14 -3.83301 25.167 -11.5 33.5s-19.167 12.5 -34.5 12.5c-17.333 0 -30.666 -5.66699 -39.999 -17
s-14 -25 -14 -41c0 -18 3.83301 -33.833 11.5 -47.5s17.667 -25 30 -34s26.333 -15.667 42 -20s31.5 -6.5 47.5 -6.5c24 0 46.333 3.16699 67 9.5s38.5 16 53.5 29s26.833 29.333 35.5 49s13 42.5 13 68.5c0 18.667 -5 38.5 -15 59.5s-20.667 38.167 -32 51.5l2 2h-2
c5.33301 -3.33301 12.333 -5.5 21 -6.5s16.334 -1.5 23.001 -1.5c45.333 0 79.333 13.667 102 41s34 63 34 107c0 29.333 -8.33301 57.333 -25 84s-35 52.5 -55 77.5s-38.333 49.5 -55 73.5s-25 48 -25 72c0 30 10.333 53.167 31 69.5s45 24.5 73 24.5zM228.995 393
c16 0 32.667 -7.66699 50 -23s33 -33.5 47 -54.5s25.5 -42.5 34.5 -64.5s13.5 -40 13.5 -54c0 -8 -1.83301 -16.167 -5.5 -24.5s-9 -16 -16 -23s-15.5 -12.833 -25.5 -17.5s-21 -7 -33 -7c-16 0 -32.667 7.66699 -50 23s-33 33.5 -47 54.5s-25.5 42.5 -34.5 64.5
s-13.5 40 -13.5 54c0 8 2 16.333 6 25s9.5 16.5 16.5 23.5s15.333 12.667 25 17s20.5 6.5 32.5 6.5z" />
    <glyph glyph-name="dieresis" unicode="&#xa8;" 
d="M117 547c-13.333 0 -24.833 -4.66699 -34.5 -14s-14.5 -20.333 -14.5 -33c0 -15.333 5.16699 -27.666 15.5 -36.999s21.5 -14 33.5 -14c13.333 0 24.833 4.66699 34.5 14s14.5 20.333 14.5 33c0 15.333 -5.16699 27.666 -15.5 36.999s-21.5 14 -33.5 14zM294 547
c-13.333 0 -24.833 -4.66699 -34.5 -14s-14.5 -20.333 -14.5 -33c0 -15.333 5.16699 -27.666 15.5 -36.999s21.5 -14 33.5 -14c13.333 0 24.833 4.66699 34.5 14s14.5 20.333 14.5 33c0 15.333 -5.16699 27.666 -15.5 36.999s-21.5 14 -33.5 14z" />
    <glyph glyph-name="copyright" unicode="&#xa9;" horiz-adv-x="800" 
d="M400 -20c47.333 0 91.5 9 132.5 27s76.667 42.5 107 73.5s54.166 67.333 71.499 109s26 86.5 26 134.5s-8.66699 93 -26 135s-41.166 78.667 -71.499 110s-66 56 -107 74s-85.167 27 -132.5 27c-46.667 0 -90.5 -9 -131.5 -27s-76.833 -42.667 -107.5 -74
s-54.667 -68 -72 -110s-26 -87 -26 -135s8.66699 -92.833 26 -134.5s41.333 -78 72 -109s66.5 -55.5 107.5 -73.5s84.833 -27 131.5 -27zM400 22c-38.667 0 -75.1699 8.16797 -109.503 24.501s-64.333 38.5 -90 66.5s-46 60.167 -61 96.5s-22.5 74.5 -22.5 114.5
s7.5 78.333 22.5 115s35.167 69 60.5 97s55.333 50.333 90 67s71.334 25 110.001 25c39.333 0 76.166 -8.16699 110.499 -24.5s64.333 -38.5 90 -66.5s45.834 -60.333 60.501 -97s22 -75.334 22 -116.001c0 -40 -7.5 -78.167 -22.5 -114.5s-35.167 -68.5 -60.5 -96.5
s-55.166 -50.167 -89.499 -66.5s-71.166 -24.5 -110.499 -24.5zM550.997 241.001c-4.66699 -11.333 -10.5039 -22.1689 -17.5039 -32.502s-15.5 -19.5 -25.5 -27.5s-21.333 -14.333 -34 -19s-27.334 -7 -44.001 -7c-25.333 0 -47.333 4.66699 -66 14s-34 22 -46 38
s-20.833 35.167 -26.5 57.5s-8.5 46.5 -8.5 72.5c0 24.667 3 47.334 9 68.001s14.833 38.5 26.5 53.5s26.334 26.667 44.001 35s38.167 12.5 61.5 12.5c19.333 0 35.833 -2.66699 49.5 -8s24.834 -12.166 33.501 -20.499s15.167 -17.833 19.5 -28.5
s6.83301 -21.334 7.5 -32.001h18v70c0 9.33301 -7.33301 16.333 -22 21c-13.333 4.66699 -27.5 8.83398 -42.5 12.501s-35.167 5.5 -60.5 5.5c-38 0 -70.667 -6.16699 -98 -18.5s-49.666 -28 -66.999 -47s-30.166 -39.667 -38.499 -62s-12.5 -43.833 -12.5 -64.5
c0 -35.333 5.5 -65.5 16.5 -90.5s26 -45.5 45 -61.5s41.167 -27.833 66.5 -35.5s52.333 -11.5 81 -11.5c23.333 0 44.333 2 63 6s32.667 7.66699 42 11c8 2.66699 14.333 5.16699 19 7.5s7.33398 6.5 8.00098 12.5l15 69h-16z" />
    <glyph glyph-name="ordfeminine" unicode="&#xaa;" horiz-adv-x="278" 
d="M120 485c0 11.333 1.99805 23.166 5.99805 35.499s9.16699 24.333 15.5 36s13.333 23 21 34s14.834 20.833 21.501 29.5c6 7.33301 11 12.5 15 15.5s11.333 4.5 22 4.5c8 0 17.5 -3.16699 28.5 -9.5s16.5 -14.166 16.5 -23.499c0 -2 -1.33301 -6.16699 -4 -12.5l-9 -20.5
c-3.33301 -7.33301 -6.83301 -14.5 -10.5 -21.5l-7.5 -14.5c-3.33301 -6.66699 -8 -14.5 -14 -23.5s-13 -17.333 -21 -25s-16.5 -14.167 -25.5 -19.5s-18.167 -8 -27.5 -8c-7.33301 0 -13.666 2 -18.999 6s-8 9.66699 -8 17zM299.998 664
c-1.33301 -3.33301 -2.83398 -6.83496 -4.50098 -10.502s-3.16699 -7.16699 -4.5 -10.5h-2c-3.33301 16.667 -13.333 25 -30 25c-13.333 0 -31.166 -6 -53.499 -18s-44.333 -27.5 -66 -46.5s-40.334 -40.167 -56.001 -63.5s-23.5 -46.666 -23.5 -69.999
c0 -11.333 3.16699 -22.5 9.5 -33.5s17.166 -16.5 32.499 -16.5c12.667 0 25.834 3.33301 39.501 10s26.834 15 39.501 25s24.334 20.667 35.001 32s19 21.333 25 30l2 -1c-2 -4 -4.83301 -9 -8.5 -15s-7.33398 -12.5 -11.001 -19.5s-6.83398 -13.5 -9.50098 -19.5
s-4 -11 -4 -15c0 -9.33301 4.5 -16.166 13.5 -20.499s17.833 -6.5 26.5 -6.5c14 0 27.5 2.66699 40.5 8s24.667 11.5 35 18.5s18.5 13.5 24.5 19.5s9 9.66699 9 11s-1.33301 2 -4 2s-6 -1.66699 -10 -5s-8.83301 -7 -14.5 -11s-11.667 -7.66699 -18 -11s-12.833 -5 -19.5 -5
c-5.33301 0 -11.166 1.16699 -17.499 3.5s-9.5 6.5 -9.5 12.5c0 2 1.5 7.66699 4.5 17s7 20.5 12 33.5l16.5 42.5l17.5 44l16 38.5c5 11.667 8.83301 20.167 11.5 25.5h-44z" />
    <glyph glyph-name="guillemotleft" unicode="&#xab;" horiz-adv-x="444" 
d="M390 338l-72 -50.5l-57 -39c-16 -11 -28.5 -20.333 -37.5 -28s-13.5 -14.167 -13.5 -19.5s2.83301 -13 8.5 -23s13.167 -22 22.5 -36l31.5 -47.5l35.5 -56.5l15 14l-29 69.5c-9.33301 23 -17.333 46.833 -24 71.5l132 135zM252 338l-72 -50.5l-57 -39
c-16 -11 -28.5 -20.333 -37.5 -28s-13.5 -14.167 -13.5 -19.5s2.83301 -13 8.5 -23s13.167 -22 22.5 -36l31.5 -47.5l35.5 -56.5l15 14l-29 69.5c-9.33301 23 -17.333 46.833 -24 71.5l132 135z" />
    <glyph glyph-name="logicalnot" unicode="&#xac;" horiz-adv-x="500" 
d="M368 83h50v201h-374v-50h324v-151z" />
    <glyph glyph-name="registered" unicode="&#xae;" horiz-adv-x="800" 
d="M239 498c12 -0.666992 21.3359 -1.5 28.0029 -2.5s11.5 -3 14.5 -6s4.83301 -7.5 5.5 -13.5s1 -14.667 1 -26v-239c0 -10.667 -0.333008 -19.167 -1 -25.5s-2.5 -11 -5.5 -14s-7.83301 -5 -14.5 -6s-16 -2.16699 -28 -3.5v-16h162v16
c-12.667 1.33301 -22.334 2.5 -29.001 3.5s-11.5 3 -14.5 6s-4.66699 7.66699 -5 14s-0.5 14.833 -0.5 25.5v97h48c16 -23.333 29.833 -45 41.5 -65l31 -51.5c9 -14.333 17.333 -25.5 25 -33.5s15.5 -12 23.5 -12h64v8c-9.33301 7.33301 -21 18.833 -35 34.5
s-27.667 32.5 -41 50.5l-58 79c23.333 8 42.666 21.167 57.999 39.5s23 40.166 23 65.499c0 16 -3.33301 29.667 -10 41s-15.334 20.833 -26.001 28.5s-23 13.334 -37 17.001s-28.333 5.5 -43 5.5h-177v-17zM352.003 495l41.001 0.000976562c19.333 0 36 -5.5 50 -16.5
s21 -31.167 21 -60.5c0 -26.667 -5.33301 -48.334 -16 -65.001s-28.334 -25 -53.001 -25h-43v167zM400.004 -19.999c47.333 0 91.5 9 132.5 27s76.667 42.5 107 73.5s54.166 67.333 71.499 109s26 86.5 26 134.5s-8.66699 93 -26 135s-41.166 78.667 -71.499 110
s-66 56 -107 74s-85.167 27 -132.5 27c-46.667 0 -90.5 -9 -131.5 -27s-76.833 -42.667 -107.5 -74s-54.667 -68 -72 -110s-26 -87 -26 -135s8.66699 -92.833 26 -134.5s41.333 -78 72 -109s66.5 -55.5 107.5 -73.5s84.833 -27 131.5 -27zM400.004 22.001
c-38.667 0 -75.1699 8.16797 -109.503 24.501s-64.333 38.5 -90 66.5s-46 60.167 -61 96.5s-22.5 74.5 -22.5 114.5s7.5 78.333 22.5 115s35.167 69 60.5 97s55.333 50.333 90 67s71.334 25 110.001 25c39.333 0 76.166 -8.16699 110.499 -24.5s64.333 -38.5 90 -66.5
s45.834 -60.333 60.501 -97s22 -75.334 22 -116.001c0 -40 -7.5 -78.167 -22.5 -114.5s-35.167 -68.5 -60.5 -96.5s-55.166 -50.167 -89.499 -66.5s-71.166 -24.5 -110.499 -24.5z" />
    <glyph glyph-name="macron" unicode="&#xaf;" 
d="M344 521h-270l-10 -48h268z" />
    <glyph glyph-name="macron" unicode="&#x2c9;" 
d="M344 521h-270l-10 -48h268z" />
    <glyph glyph-name="degree" unicode="&#xb0;" horiz-adv-x="400" 
d="M274 426c-13.333 0 -25.666 2.66699 -36.999 8s-21.166 12.5 -29.499 21.5s-14.833 19.5 -19.5 31.5s-7 24.667 -7 38s2.33301 26 7 38s11.167 22.5 19.5 31.5s18.166 16.167 29.499 21.5s23.666 8 36.999 8s25.666 -2.66699 36.999 -8s21.166 -12.5 29.499 -21.5
s14.833 -19.5 19.5 -31.5s7 -24.667 7 -38s-2.33301 -26 -7 -38s-11.167 -22.5 -19.5 -31.5s-18.166 -16.167 -29.499 -21.5s-23.666 -8 -36.999 -8zM274 382c20 0 38.667 3.66699 56 11s32.5 17.5 45.5 30.5s23.167 28.167 30.5 45.5s11 36 11 56s-3.66699 38.667 -11 56
s-17.5 32.5 -30.5 45.5s-28.167 23.167 -45.5 30.5s-36 11 -56 11s-38.667 -3.66699 -56 -11s-32.5 -17.5 -45.5 -30.5s-23.167 -28.167 -30.5 -45.5s-11 -36 -11 -56s3.66699 -38.667 11 -56s17.5 -32.5 30.5 -45.5s28.167 -23.167 45.5 -30.5s36 -11 56 -11z" />
    <glyph glyph-name="plusminus" unicode="&#xb1;" horiz-adv-x="500" 
d="M206 261h-162v-50h162v-116h50v116h162v50h-162v115h-50v-115zM44 0h374v50h-374v-50z" />
    <glyph glyph-name="twosuperior" unicode="&#xb2;" horiz-adv-x="266" 
d="M240 267c4.66699 14.667 10.333 28.8311 17 42.498s13.667 27.167 21 40.5l-9 5c-11.333 -17.333 -20.833 -29.333 -28.5 -36s-18.834 -10 -33.501 -10h-153c14.667 14 32 27.333 52 40l62.5 38l64.5 39c21.333 13.333 40.333 27.5 57 42.5s30.167 31.5 40.5 49.5
s15.5 37.667 15.5 59c0 28 -9 50.167 -27 66.5s-43.333 24.5 -76 24.5c-14.667 0 -29.167 -2.16699 -43.5 -6.5s-27.333 -10.333 -39 -18s-21 -17.167 -28 -28.5s-10.833 -24 -11.5 -38l52 -13c1.33301 2 3 7.83301 5 17.5s5.33301 19.834 10 30.501s11 20.334 19 29.001
s18.333 13 31 13c20.667 0 34.5 -6.5 41.5 -19.5s10.5 -30.833 10.5 -53.5c0 -26.667 -10.5 -52.667 -31.5 -78s-46.5 -50.5 -76.5 -75.5s-61.667 -50 -95 -75s-62.666 -50.5 -87.999 -76.5v-2l3 -9h2c3.33301 0.666992 7.5 1.16699 12.5 1.5s14.5 0.5 28.5 0.5h195z" />
    <glyph glyph-name="threesuperior" unicode="&#xb3;" horiz-adv-x="266" 
d="M131 583l13.0039 -2c4 4.66699 11 11.5 21 20.5s24.667 13.5 44 13.5h113v-2l-179 -128v-6c5.33301 3.33301 11 6.33301 17 9s12.333 4 19 4c19.333 0 34.166 -6 44.499 -18s15.5 -26.667 15.5 -44c0 -26.667 -8 -49.667 -24 -69s-35.833 -35.5 -59.5 -48.5
s-49.334 -23.167 -77.001 -30.5s-53.167 -12 -76.5 -14l1 -12c27.333 2 58.166 6.83301 92.499 14.5s66.666 18.5 96.999 32.5s56 31.667 77 53s31.5 47 31.5 77c0 22.667 -6.33301 43 -19 61s-32 28.667 -58 32l156 115l-4 16h-196z" />
    <glyph glyph-name="acute" unicode="&#xb4;" 
d="M175 433l115.999 76.002l43 29c12 8 18 17.667 18 29c0 9.33301 -3.66699 17.666 -11 24.999s-15.666 11 -24.999 11c-6.66699 0 -12.167 -1.33301 -16.5 -4s-7.83301 -5.33398 -10.5 -8.00098l-149 -158h35z" />
    <glyph glyph-name="mu" unicode="&#xb5;" horiz-adv-x="481" 
d="M351 376l-44.5039 -114.999c-14.333 -38 -32.5 -74.667 -54.5 -110c-8.66699 -14 -18.667 -27.833 -30 -41.5s-23 -26 -35 -37s-24 -19.833 -36 -26.5s-23 -10 -33 -10c-12 0 -21.167 2.66699 -27.5 8s-9.5 14.666 -9.5 27.999c0 11.333 4.5 30.333 13.5 57
s19.667 55.5 32 86.5l37 91c12.333 29.667 21.5 52.834 27.5 69.501h-74l-29.5 -83l-34 -92.5l-33 -89.5c-10.333 -28.667 -18.833 -54 -25.5 -76c-6 -19.333 -13.833 -40 -23.5 -62l-28.5 -64.5c-9.33301 -21 -17.333 -40.5 -24 -58.5s-10 -32.667 -10 -44
c0 -9.33301 2.66699 -18.333 8 -27s14 -13 26 -13c4 0 9 0.5 15 1.5s12.167 3.83301 18.5 8.5s12.5 12 18.5 22s11 24 15 42c5.33301 22.667 9.83301 47.5 13.5 74.5s10.834 51.5 21.501 73.5c22.667 0 46.167 6.66699 70.5 20s47.5 29.833 69.5 49.5s41.5 40.5 58.5 62.5
s29.167 41.333 36.5 58l2 -2c-2 -4.66699 -5.83301 -14.167 -11.5 -28.5l-17.5 -45.5c-6 -16 -11.333 -30.833 -16 -44.5s-7 -22.5 -7 -26.5c0 -6.66699 2 -12.667 6 -18s8.83301 -9.83301 14.5 -13.5s11.834 -6.5 18.501 -8.5s13 -3 19 -3c22 0 42.833 4.83301 62.5 14.5
s36.667 20.5 51 32.5s25.833 23.167 34.5 33.5s13 15.833 13 16.5c0 3.33301 -1.66699 5 -5 5c-0.666992 0 -4.16699 -3.16699 -10.5 -9.5s-14.166 -13.5 -23.499 -21.5s-19.666 -15.167 -30.999 -21.5s-22 -9.5 -32 -9.5s-18.5 1.66699 -25.5 5s-10.5 10.666 -10.5 21.999
c0 6.66699 2.33301 18.167 7 34.5s10.667 35 18 56l24.5 67l26.5 67.5l23 58c6.66699 17.333 11.667 30 15 38h-74z" />
    <glyph glyph-name="mu" unicode="&#x3bc;" horiz-adv-x="481" 
d="M351 376l-44.5039 -114.999c-14.333 -38 -32.5 -74.667 -54.5 -110c-8.66699 -14 -18.667 -27.833 -30 -41.5s-23 -26 -35 -37s-24 -19.833 -36 -26.5s-23 -10 -33 -10c-12 0 -21.167 2.66699 -27.5 8s-9.5 14.666 -9.5 27.999c0 11.333 4.5 30.333 13.5 57
s19.667 55.5 32 86.5l37 91c12.333 29.667 21.5 52.834 27.5 69.501h-74l-29.5 -83l-34 -92.5l-33 -89.5c-10.333 -28.667 -18.833 -54 -25.5 -76c-6 -19.333 -13.833 -40 -23.5 -62l-28.5 -64.5c-9.33301 -21 -17.333 -40.5 -24 -58.5s-10 -32.667 -10 -44
c0 -9.33301 2.66699 -18.333 8 -27s14 -13 26 -13c4 0 9 0.5 15 1.5s12.167 3.83301 18.5 8.5s12.5 12 18.5 22s11 24 15 42c5.33301 22.667 9.83301 47.5 13.5 74.5s10.834 51.5 21.501 73.5c22.667 0 46.167 6.66699 70.5 20s47.5 29.833 69.5 49.5s41.5 40.5 58.5 62.5
s29.167 41.333 36.5 58l2 -2c-2 -4.66699 -5.83301 -14.167 -11.5 -28.5l-17.5 -45.5c-6 -16 -11.333 -30.833 -16 -44.5s-7 -22.5 -7 -26.5c0 -6.66699 2 -12.667 6 -18s8.83301 -9.83301 14.5 -13.5s11.834 -6.5 18.501 -8.5s13 -3 19 -3c22 0 42.833 4.83301 62.5 14.5
s36.667 20.5 51 32.5s25.833 23.167 34.5 33.5s13 15.833 13 16.5c0 3.33301 -1.66699 5 -5 5c-0.666992 0 -4.16699 -3.16699 -10.5 -9.5s-14.166 -13.5 -23.499 -21.5s-19.666 -15.167 -30.999 -21.5s-22 -9.5 -32 -9.5s-18.5 1.66699 -25.5 5s-10.5 10.666 -10.5 21.999
c0 6.66699 2.33301 18.167 7 34.5s10.667 35 18 56l24.5 67l26.5 67.5l23 58c6.66699 17.333 11.667 30 15 38h-74z" />
    <glyph glyph-name="paragraph" unicode="&#xb6;" horiz-adv-x="600" 
d="M666 650l-240 0.000976562c-42 0 -81 -6.66699 -117 -20s-67 -32.333 -93 -57s-46.5 -54.834 -61.5 -90.501s-22.5 -75.5 -22.5 -119.5c0 -38 11.5 -68 34.5 -90s61.5 -33 115.5 -33l-154 -452h50l284 832h59l-284 -832h50l266 780c4 12 8 21.667 12 29s9.5 13 16.5 17
s16.667 7 29 9s28.5 3.66699 48.5 5z" />
    <glyph glyph-name="periodcentered" unicode="&#xb7;" horiz-adv-x="222" 
d="M89 244c-14.667 0 -27.667 -5.5 -39 -16.5s-17 -24.167 -17 -39.5s5.66699 -28.5 17 -39.5s24.333 -16.5 39 -16.5s27.667 5.5 39 16.5s17 24.167 17 39.5s-5.66699 28.5 -17 39.5s-24.333 16.5 -39 16.5z" />
    <glyph glyph-name="periodcentered" unicode="&#x22c5;" horiz-adv-x="222" 
d="M89 244c-14.667 0 -27.667 -5.5 -39 -16.5s-17 -24.167 -17 -39.5s5.66699 -28.5 17 -39.5s24.333 -16.5 39 -16.5s27.667 5.5 39 16.5s17 24.167 17 39.5s-5.66699 28.5 -17 39.5s-24.333 16.5 -39 16.5z" />
    <glyph glyph-name="cedilla" unicode="&#xb8;" 
d="M-67 -105c5.33301 1.33301 11.0049 3.16504 17.0049 5.49805s11.667 3.5 17 3.5c12.667 0 23.667 -4.16699 33 -12.5s14 -19.166 14 -32.499c0 -9.33301 -2 -16.833 -6 -22.5s-9.33301 -10.167 -16 -13.5s-13.834 -5.66602 -21.501 -6.99902s-14.834 -2 -21.501 -2
c-8.66699 0 -18.834 1.83301 -30.501 5.5s-21.5 7.16699 -29.5 10.5l-16 -27c5.33301 -3.33301 12 -6.16602 20 -8.49902s16.167 -4.5 24.5 -6.5s16.666 -3.5 24.999 -4.5s15.5 -1.5 21.5 -1.5c14.667 0 29.167 1.5 43.5 4.5s27.166 8 38.499 15s20.5 16.167 27.5 27.5
s10.5 25.333 10.5 42c0 21.333 -8 37.5 -24 48.5s-33.667 16.5 -53 16.5c-5.33301 0 -10.333 -0.333008 -15 -1s-9.66699 -1.33398 -15 -2.00098l43 67h-35l-62 -97z" />
    <glyph glyph-name="onesuperior" unicode="&#xb9;" horiz-adv-x="266" 
d="M35 265c16 1.33301 31 1.99805 45 1.99805h41h47c16 0 32.333 -0.666992 49 -2v10c-4 0.666992 -9.33301 1.33398 -16 2.00098s-13.167 1.83398 -19.5 3.50098s-11.833 3.5 -16.5 5.5s-7 5 -7 9c0 0.666992 0.5 4.16699 1.5 10.5s3.16699 13.166 6.5 20.499l100 262
c4.66699 12.667 10 25.167 16 37.5s11.667 25.166 17 38.499l-4 4c-43.333 -12.667 -88 -22 -134 -28v-13c6 0 12 0.5 18 1.5s12 1.5 18 1.5c7.33301 0 13.666 -0.333008 18.999 -1s8 -3.66699 8 -9c0 -1.33301 -1.16699 -4.66602 -3.5 -9.99902
s-5.16602 -12.666 -8.49902 -21.999l-110 -282c-5.33301 -12 -12.5 -19.333 -21.5 -22s-24.167 -5.66699 -45.5 -9v-10z" />
    <glyph glyph-name="ordmasculine" unicode="&#xba;" horiz-adv-x="233" 
d="M327 611c0 16.667 -3.83105 30.332 -11.498 40.999s-23.167 16 -46.5 16c-16.667 0 -35.834 -6.16699 -57.501 -18.5s-42.167 -27.833 -61.5 -46.5s-35.5 -39.167 -48.5 -61.5s-19.5 -43.833 -19.5 -64.5c0 -16.667 3.83301 -30.334 11.5 -41.001s23.167 -16 46.5 -16
c21.333 0 43.166 6 65.499 18s42.5 27.333 60.5 46s32.667 39.334 44 62.001s17 44.334 17 65.001zM140.002 476.998c0 10 2.33301 24.165 7 42.498s11 36.5 19 54.5s17.833 33.833 29.5 47.5s24.5 20.5 38.5 20.5c23.333 0 35 -11 35 -33
c0 -9.33301 -2.33301 -23.166 -7 -41.499s-11 -36.666 -19 -54.999s-17.833 -34.333 -29.5 -48s-24.5 -20.5 -38.5 -20.5c-23.333 0 -35 11 -35 33z" />
    <glyph glyph-name="guillemotright" unicode="&#xbb;" horiz-adv-x="444" 
d="M12 38c26 19.333 50 36.333 72 51l57 38.5c16 11 28.5 20.333 37.5 28s13.5 14.167 13.5 19.5s-2.83301 13 -8.5 23s-13.167 22 -22.5 36l-31.5 47.5l-35.5 56.5l-15 -14l29 -69.5c9.33301 -23 17.333 -46.833 24 -71.5l-132 -135zM150 38c26 19.333 50 36.333 72 51
l57 38.5c16 11 28.5 20.333 37.5 28s13.5 14.167 13.5 19.5s-2.83301 13 -8.5 23s-13.167 22 -22.5 36l-31.5 47.5l-35.5 56.5l-15 -14l29 -69.5c9.33301 -23 17.333 -46.833 24 -71.5l-132 -135z" />
    <glyph glyph-name="onequarter" unicode="&#xbc;" horiz-adv-x="666" 
d="M374 167c7.33301 8.66699 16.334 18.5 27.001 29.5l32.5 32l29.5 27.5c8.66699 8 14.667 13 18 15c13.333 9.33301 25.666 18.833 36.999 28.5s23 18.5 35 26.5s25.167 14.5 39.5 19.5s30.833 7.5 49.5 7.5c0.666992 2 1.66699 5.5 3 10.5s2.83301 10.333 4.5 16
l4.5 15.5c1.33301 4.66699 2 7.66699 2 9c0 4.66699 -4.33301 7 -13 7c-6 0 -16.167 -4.83301 -30.5 -14.5s-31 -22.167 -50 -37.5s-39.5 -32.833 -61.5 -52.5l-65.5 -60l-62 -59.5l-50.5 -51v-3h186l-51 -133h56l118 322l-60 -18l-50 -137h-148zM595.001 668h-45l-456 -686
h45zM35.001 265c16 1.33301 31 1.99805 45 1.99805h41h47c16 0 32.333 -0.666992 49 -2v10c-4 0.666992 -9.33301 1.33398 -16 2.00098s-13.167 1.83398 -19.5 3.50098s-11.833 3.5 -16.5 5.5s-7 5 -7 9c0 0.666992 0.5 4.16699 1.5 10.5s3.16699 13.166 6.5 20.499l100 262
c4.66699 12.667 10 25.167 16 37.5s11.667 25.166 17 38.499l-4 4c-43.333 -12.667 -88 -22 -134 -28v-13c6 0 12 0.5 18 1.5s12 1.5 18 1.5c7.33301 0 13.666 -0.333008 18.999 -1s8 -3.66699 8 -9c0 -1.33301 -1.16699 -4.66602 -3.5 -9.99902
s-5.16602 -12.666 -8.49902 -21.999l-110 -282c-5.33301 -12 -12.5 -19.333 -21.5 -22s-24.167 -5.66699 -45.5 -9v-10z" />
    <glyph glyph-name="onehalf" unicode="&#xbd;" horiz-adv-x="666" 
d="M580 668h-45l-456 -686h45zM540 0c4.66699 14.667 10.333 28.8311 17 42.498s13.667 27.167 21 40.5l-9 5c-11.333 -17.333 -20.833 -29.333 -28.5 -36s-18.834 -10 -33.501 -10h-153c14.667 14 32 27.333 52 40l62.5 38l64.5 39c21.333 13.333 40.333 27.5 57 42.5
s30.167 31.5 40.5 49.5s15.5 37.667 15.5 59c0 28 -9 50.167 -27 66.5s-43.333 24.5 -76 24.5c-14.667 0 -29.167 -2.16699 -43.5 -6.5s-27.333 -10.333 -39 -18s-21 -17.167 -28 -28.5s-10.833 -24 -11.5 -38l52 -13c1.33301 2 3 7.83301 5 17.5s5.33301 19.834 10 30.501
s11 20.334 19 29.001s18.333 13 31 13c20.667 0 34.5 -6.5 41.5 -19.5s10.5 -30.833 10.5 -53.5c0 -26.667 -10.5 -52.667 -31.5 -78s-46.5 -50.5 -76.5 -75.5s-61.667 -50 -95 -75s-62.666 -50.5 -87.999 -76.5v-2l3 -9h2c3.33301 0.666992 7.5 1.16699 12.5 1.5
s14.5 0.5 28.5 0.5h195zM34.999 264.997c16 1.33301 31 1.99805 45 1.99805h41h47c16 0 32.333 -0.666992 49 -2v10c-4 0.666992 -9.33301 1.33398 -16 2.00098s-13.167 1.83398 -19.5 3.50098s-11.833 3.5 -16.5 5.5s-7 5 -7 9c0 0.666992 0.5 4.16699 1.5 10.5
s3.16699 13.166 6.5 20.499l100 262c4.66699 12.667 10 25.167 16 37.5s11.667 25.166 17 38.499l-4 4c-43.333 -12.667 -88 -22 -134 -28v-13c6 0 12 0.5 18 1.5s12 1.5 18 1.5c7.33301 0 13.666 -0.333008 18.999 -1s8 -3.66699 8 -9
c0 -1.33301 -1.16699 -4.66602 -3.5 -9.99902s-5.16602 -12.666 -8.49902 -21.999l-110 -282c-5.33301 -12 -12.5 -19.333 -21.5 -22s-24.167 -5.66699 -45.5 -9v-10z" />
    <glyph glyph-name="threequarters" unicode="&#xbe;" horiz-adv-x="666" 
d="M131 583l13.0039 -2c4 4.66699 11 11.5 21 20.5s24.667 13.5 44 13.5h113v-2l-179 -128v-6c5.33301 3.33301 11 6.33301 17 9s12.333 4 19 4c19.333 0 34.166 -6 44.499 -18s15.5 -26.667 15.5 -44c0 -26.667 -8 -49.667 -24 -69s-35.833 -35.5 -59.5 -48.5
s-49.334 -23.167 -77.001 -30.5s-53.167 -12 -76.5 -14l1 -12c27.333 2 58.166 6.83301 92.499 14.5s66.666 18.5 96.999 32.5s56 31.667 77 53s31.5 47 31.5 77c0 22.667 -6.33301 43 -19 61s-32 28.667 -58 32l156 115l-4 16h-196zM374.004 167
c7.33301 8.66699 16.334 18.5 27.001 29.5l32.5 32l29.5 27.5c8.66699 8 14.667 13 18 15c13.333 9.33301 25.666 18.833 36.999 28.5s23 18.5 35 26.5s25.167 14.5 39.5 19.5s30.833 7.5 49.5 7.5c0.666992 2 1.66699 5.5 3 10.5s2.83301 10.333 4.5 16l4.5 15.5
c1.33301 4.66699 2 7.66699 2 9c0 4.66699 -4.33301 7 -13 7c-6 0 -16.167 -4.83301 -30.5 -14.5s-31 -22.167 -50 -37.5s-39.5 -32.833 -61.5 -52.5l-65.5 -60l-62 -59.5l-50.5 -51v-3h186l-51 -133h56l118 322l-60 -18l-50 -137h-148zM595.005 668h-45l-456 -686h45z" />
    <glyph glyph-name="questiondown" unicode="&#xbf;" horiz-adv-x="389" 
d="M245 275c-8 -28.667 -19.833 -54.832 -35.5 -78.499s-32.667 -45.667 -51 -66s-37.166 -39.833 -56.499 -58.5s-36.833 -37.667 -52.5 -57s-28.5 -39.5 -38.5 -60.5s-15 -44.167 -15 -69.5c0 -17.333 3.16699 -33.333 9.5 -48s15 -27.334 26 -38.001
s24 -18.834 39 -24.501s31.167 -8.5 48.5 -8.5c8.66699 0 20 1.83301 34 5.5s27.5 8.5 40.5 14.5s24.333 12.833 34 20.5s14.5 15.5 14.5 23.5c0 4 -1.83301 8.83301 -5.5 14.5s-8 11 -13 16s-10.333 9.33301 -16 13s-10.5 5.5 -14.5 5.5
c-4.66699 -10 -9.83398 -20.5 -15.501 -31.5s-12 -21.167 -19 -30.5s-15 -17.166 -24 -23.499s-19.5 -9.5 -31.5 -9.5c-8 0 -14.833 1.83301 -20.5 5.5s-10.167 8.5 -13.5 14.5s-5.66602 12.333 -6.99902 19s-2 13 -2 19c0 20 4.5 40.5 13.5 61.5s20.333 42.833 34 65.5
s28.667 46 45 70s31.666 48.667 45.999 74s26.833 51.5 37.5 78.5s17 54.833 19 83.5h-10zM270 312.002c18.667 0 33.5 7.16699 44.5 21.5s16.5 31.166 16.5 50.499c0 16 -4.33301 28.667 -13 38s-20 14 -34 14c-18.667 0 -33.5 -7.16699 -44.5 -21.5
s-16.5 -31.166 -16.5 -50.499c0 -16 4.33301 -28.667 13 -38s20 -14 34 -14z" />
    <glyph glyph-name="Agrave" unicode="&#xc0;" horiz-adv-x="593" 
d="M199 308c29.333 46.667 59.833 92.332 91.5 136.999s65.167 87.334 100.5 128.001v-265h-192zM391 279.998v-185.998c0 -12 -1.5 -22.333 -4.5 -31s-8.5 -16 -16.5 -22s-18.833 -11.333 -32.5 -16s-31.167 -9.66699 -52.5 -15v-14c24 2 48 3.16699 72 3.5s48 0.5 72 0.5
c19.333 -0 38.833 -0.166992 58.5 -0.5s39.167 -1.5 58.5 -3.5v14c-7.33301 3.33301 -15.166 6.16602 -23.499 8.49902s-15.833 5.33301 -22.5 9s-12.167 8.33398 -16.5 14.001s-6.5 13.5 -6.5 23.5v599l-23 6c-22.667 -22 -46.667 -47.833 -72 -77.5l-76 -93.5l-74 -100
l-68 -97l-57.5 -85l-41.5 -64l-43 -62c-12 -16.667 -23.667 -30.334 -35 -41.001s-23.166 -19 -35.499 -25s-27.5 -11 -45.5 -15v-14c19.333 1.33301 38.166 2.33301 56.499 3s37.166 1 56.499 1c20.667 0 41 -0.166992 61 -0.5s40.333 -1.5 61 -3.5v14
c-6 2 -13.167 3.66699 -21.5 5s-16.333 3.33301 -24 6s-14.167 6.5 -19.5 11.5s-8 11.5 -8 19.5c0 9.33301 5 24.833 15 46.5s21.5 44.667 34.5 69s25.833 47.166 38.5 68.499s22 36 28 44h207zM532 687l-107.001 149.999c-10 14.667 -23.333 22 -40 22
c-9.33301 0 -17.166 -3.66699 -23.499 -11s-9.5 -15.666 -9.5 -24.999c0 -6 1.5 -11 4.5 -15s8.16699 -9 15.5 -15l129 -106h31z" />
    <glyph glyph-name="Aacute" unicode="&#xc1;" horiz-adv-x="593" 
d="M199 308c29.333 46.667 59.833 92.332 91.5 136.999s65.167 87.334 100.5 128.001v-265h-192zM391 279.998v-185.998c0 -12 -1.5 -22.333 -4.5 -31s-8.5 -16 -16.5 -22s-18.833 -11.333 -32.5 -16s-31.167 -9.66699 -52.5 -15v-14c24 2 48 3.16699 72 3.5s48 0.5 72 0.5
c19.333 -0 38.833 -0.166992 58.5 -0.5s39.167 -1.5 58.5 -3.5v14c-7.33301 3.33301 -15.166 6.16602 -23.499 8.49902s-15.833 5.33301 -22.5 9s-12.167 8.33398 -16.5 14.001s-6.5 13.5 -6.5 23.5v599l-23 6c-22.667 -22 -46.667 -47.833 -72 -77.5l-76 -93.5l-74 -100
l-68 -97l-57.5 -85l-41.5 -64l-43 -62c-12 -16.667 -23.667 -30.334 -35 -41.001s-23.166 -19 -35.499 -25s-27.5 -11 -45.5 -15v-14c19.333 1.33301 38.166 2.33301 56.499 3s37.166 1 56.499 1c20.667 0 41 -0.166992 61 -0.5s40.333 -1.5 61 -3.5v14
c-6 2 -13.167 3.66699 -21.5 5s-16.333 3.33301 -24 6s-14.167 6.5 -19.5 11.5s-8 11.5 -8 19.5c0 9.33301 5 24.833 15 46.5s21.5 44.667 34.5 69s25.833 47.166 38.5 68.499s22 36 28 44h207zM458 687l115.999 76.002l43 29c12 8 18 17.667 18 29
c0 9.33301 -3.66699 17.666 -11 24.999s-15.666 11 -24.999 11c-6.66699 0 -12.167 -1.33301 -16.5 -4s-7.83301 -5.33398 -10.5 -8.00098l-149 -158h35z" />
    <glyph glyph-name="Acircumflex" unicode="&#xc2;" horiz-adv-x="593" 
d="M199 308c29.333 46.667 59.833 92.332 91.5 136.999s65.167 87.334 100.5 128.001v-265h-192zM391 279.998v-185.998c0 -12 -1.5 -22.333 -4.5 -31s-8.5 -16 -16.5 -22s-18.833 -11.333 -32.5 -16s-31.167 -9.66699 -52.5 -15v-14c24 2 48 3.16699 72 3.5s48 0.5 72 0.5
c19.333 -0 38.833 -0.166992 58.5 -0.5s39.167 -1.5 58.5 -3.5v14c-7.33301 3.33301 -15.166 6.16602 -23.499 8.49902s-15.833 5.33301 -22.5 9s-12.167 8.33398 -16.5 14.001s-6.5 13.5 -6.5 23.5v599l-23 6c-22.667 -22 -46.667 -47.833 -72 -77.5l-76 -93.5l-74 -100
l-68 -97l-57.5 -85l-41.5 -64l-43 -62c-12 -16.667 -23.667 -30.334 -35 -41.001s-23.166 -19 -35.499 -25s-27.5 -11 -45.5 -15v-14c19.333 1.33301 38.166 2.33301 56.499 3s37.166 1 56.499 1c20.667 0 41 -0.166992 61 -0.5s40.333 -1.5 61 -3.5v14
c-6 2 -13.167 3.66699 -21.5 5s-16.333 3.33301 -24 6s-14.167 6.5 -19.5 11.5s-8 11.5 -8 19.5c0 9.33301 5 24.833 15 46.5s21.5 44.667 34.5 69s25.833 47.166 38.5 68.499s22 36 28 44h207zM602 687l-79 170h-49l-148 -170h39l127 104l73 -104h37z" />
    <glyph glyph-name="Atilde" unicode="&#xc3;" horiz-adv-x="593" 
d="M199 308c29.333 46.667 59.833 92.332 91.5 136.999s65.167 87.334 100.5 128.001v-265h-192zM391 279.998v-185.998c0 -12 -1.5 -22.333 -4.5 -31s-8.5 -16 -16.5 -22s-18.833 -11.333 -32.5 -16s-31.167 -9.66699 -52.5 -15v-14c24 2 48 3.16699 72 3.5s48 0.5 72 0.5
c19.333 -0 38.833 -0.166992 58.5 -0.5s39.167 -1.5 58.5 -3.5v14c-7.33301 3.33301 -15.166 6.16602 -23.499 8.49902s-15.833 5.33301 -22.5 9s-12.167 8.33398 -16.5 14.001s-6.5 13.5 -6.5 23.5v599l-23 6c-22.667 -22 -46.667 -47.833 -72 -77.5l-76 -93.5l-74 -100
l-68 -97l-57.5 -85l-41.5 -64l-43 -62c-12 -16.667 -23.667 -30.334 -35 -41.001s-23.166 -19 -35.499 -25s-27.5 -11 -45.5 -15v-14c19.333 1.33301 38.166 2.33301 56.499 3s37.166 1 56.499 1c20.667 0 41 -0.166992 61 -0.5s40.333 -1.5 61 -3.5v14
c-6 2 -13.167 3.66699 -21.5 5s-16.333 3.33301 -24 6s-14.167 6.5 -19.5 11.5s-8 11.5 -8 19.5c0 9.33301 5 24.833 15 46.5s21.5 44.667 34.5 69s25.833 47.166 38.5 68.499s22 36 28 44h207zM617 818c-3.33301 -11.333 -7.49609 -21.5 -12.4961 -30.5
s-14.5 -13.5 -28.5 -13.5c-10.667 0 -22 2.33301 -34 7l-37 15c-12.667 5.33301 -25.334 10.333 -38.001 15s-25 7 -37 7c-14.667 0 -26.834 -3.33301 -36.501 -10s-17.667 -15.167 -24 -25.5s-11.166 -21.666 -14.499 -33.999s-6 -24.5 -8 -36.5h27
c3.33301 11.333 8.16602 22 14.499 32s15.833 15 28.5 15c7.33301 0 17.5 -2.33301 30.5 -7l41.5 -15l42 -15.5c14 -5 25.667 -7.5 35 -7.5c13.333 0 24.666 3.33301 33.999 10s16.833 15.167 22.5 25.5s10.167 21.666 13.5 33.999s5.66602 23.833 6.99902 34.5h-26z" />
    <glyph glyph-name="Adieresis" unicode="&#xc4;" horiz-adv-x="593" 
d="M199 308c29.333 46.667 59.833 92.332 91.5 136.999s65.167 87.334 100.5 128.001v-265h-192zM391 279.998v-185.998c0 -12 -1.5 -22.333 -4.5 -31s-8.5 -16 -16.5 -22s-18.833 -11.333 -32.5 -16s-31.167 -9.66699 -52.5 -15v-14c24 2 48 3.16699 72 3.5s48 0.5 72 0.5
c19.333 -0 38.833 -0.166992 58.5 -0.5s39.167 -1.5 58.5 -3.5v14c-7.33301 3.33301 -15.166 6.16602 -23.499 8.49902s-15.833 5.33301 -22.5 9s-12.167 8.33398 -16.5 14.001s-6.5 13.5 -6.5 23.5v599l-23 6c-22.667 -22 -46.667 -47.833 -72 -77.5l-76 -93.5l-74 -100
l-68 -97l-57.5 -85l-41.5 -64l-43 -62c-12 -16.667 -23.667 -30.334 -35 -41.001s-23.166 -19 -35.499 -25s-27.5 -11 -45.5 -15v-14c19.333 1.33301 38.166 2.33301 56.499 3s37.166 1 56.499 1c20.667 0 41 -0.166992 61 -0.5s40.333 -1.5 61 -3.5v14
c-6 2 -13.167 3.66699 -21.5 5s-16.333 3.33301 -24 6s-14.167 6.5 -19.5 11.5s-8 11.5 -8 19.5c0 9.33301 5 24.833 15 46.5s21.5 44.667 34.5 69s25.833 47.166 38.5 68.499s22 36 28 44h207zM400 801c-13.333 0 -24.833 -4.66699 -34.5 -14s-14.5 -20.333 -14.5 -33
c0 -15.333 5.16699 -27.666 15.5 -36.999s21.5 -14 33.5 -14c13.333 0 24.833 4.66699 34.5 14s14.5 20.333 14.5 33c0 15.333 -5.16699 27.666 -15.5 36.999s-21.5 14 -33.5 14zM577 801c-13.333 0 -24.833 -4.66699 -34.5 -14s-14.5 -20.333 -14.5 -33
c0 -15.333 5.16699 -27.666 15.5 -36.999s21.5 -14 33.5 -14c13.333 0 24.833 4.66699 34.5 14s14.5 20.333 14.5 33c0 15.333 -5.16699 27.666 -15.5 36.999s-21.5 14 -33.5 14z" />
    <glyph glyph-name="Aring" unicode="&#xc5;" horiz-adv-x="593" 
d="M199 308c29.333 46.667 59.833 92.332 91.5 136.999s65.167 87.334 100.5 128.001v-265h-192zM391 279.998v-185.998c0 -12 -1.5 -22.333 -4.5 -31s-8.5 -16 -16.5 -22s-18.833 -11.333 -32.5 -16s-31.167 -9.66699 -52.5 -15v-14c24 2 48 3.16699 72 3.5s48 0.5 72 0.5
c19.333 -0 38.833 -0.166992 58.5 -0.5s39.167 -1.5 58.5 -3.5v14c-7.33301 3.33301 -15.166 6.16602 -23.499 8.49902s-15.833 5.33301 -22.5 9s-12.167 8.33398 -16.5 14.001s-6.5 13.5 -6.5 23.5v599l-23 6c-22.667 -22 -46.667 -47.833 -72 -77.5l-76 -93.5l-74 -100
l-68 -97l-57.5 -85l-41.5 -64l-43 -62c-12 -16.667 -23.667 -30.334 -35 -41.001s-23.166 -19 -35.499 -25s-27.5 -11 -45.5 -15v-14c19.333 1.33301 38.166 2.33301 56.499 3s37.166 1 56.499 1c20.667 0 41 -0.166992 61 -0.5s40.333 -1.5 61 -3.5v14
c-6 2 -13.167 3.66699 -21.5 5s-16.333 3.33301 -24 6s-14.167 6.5 -19.5 11.5s-8 11.5 -8 19.5c0 9.33301 5 24.833 15 46.5s21.5 44.667 34.5 69s25.833 47.166 38.5 68.499s22 36 28 44h207zM489 886c-13.333 0 -26 -2.5 -38 -7.5s-22.5 -12 -31.5 -21
s-16.167 -19.5 -21.5 -31.5s-8 -25 -8 -39c0 -13.333 2.5 -26.166 7.5 -38.499s12 -23 21 -32s19.5 -16.167 31.5 -21.5s25 -8 39 -8c13.333 0 26 2.5 38 7.5s22.5 12 31.5 21s16.167 19.5 21.5 31.5s8 25 8 39c0 13.333 -2.5 26.166 -7.5 38.499s-12 23 -21 32
s-19.5 16.167 -31.5 21.5s-25 8 -39 8zM489 852c18 0 33.333 -6.5 46 -19.5s19 -28.5 19 -46.5c0 -18.667 -6.33301 -34.167 -19 -46.5s-28 -18.5 -46 -18.5s-33.333 6.5 -46 19.5s-19 28.5 -19 46.5c0 18.667 6.33301 34.167 19 46.5s28 18.5 46 18.5z" />
    <glyph glyph-name="AE" unicode="&#xc6;" horiz-adv-x="889" 
d="M242 307c46 50 93 98.333 141 145s97 92 147 136l2 -2l-97 -279h-193zM532 332l123.007 -0.00585938c5.33301 0 10 -2.5 14 -7.5s6 -13.167 6 -24.5c0 -28.667 -0.833008 -51.167 -2.5 -67.5s-2.83398 -30.5 -3.50098 -42.5h18c14 48 29.5 95 46.5 141
s35.167 92 54.5 138h-17c-16.667 -26 -30.5 -46.5 -41.5 -61.5s-23.833 -26.333 -38.5 -34s-33.5 -12.5 -56.5 -14.5s-54.833 -3 -95.5 -3l96 274c32 -1.33301 63.833 -2.16602 95.5 -2.49902s63.5 -1.83301 95.5 -4.5c5.33301 -26.667 12.5 -53.167 21.5 -79.5
s21.167 -50.166 36.5 -71.499h12c0 14.667 -0.5 29.334 -1.5 44.001s-1.5 29.667 -1.5 45s0.5 30.833 1.5 46.5s1.5 31.167 1.5 46.5c-44 -2 -87.667 -3.16699 -131 -3.5s-87 -0.5 -131 -0.5h-95c-31.333 0 -63 1.33301 -95 4v-12c8 -2 16.5 -3.66699 25.5 -5
s17.333 -3 25 -5s14 -4.5 19 -7.5s7.5 -6.83301 7.5 -11.5s-1.33301 -8.66699 -4 -12s-5.66699 -6.33301 -9 -9c-22.667 -18.667 -51.167 -44 -85.5 -76l-108.5 -105.5l-115.5 -119l-107.5 -116.5c-32.667 -36.667 -60.5 -69.334 -83.5 -98.001s-37.5 -50 -43.5 -64v-17
c15.333 2.66699 45.333 4 90 4c19.333 0 38.5 -0.333008 57.5 -1s38.167 -1.66699 57.5 -3v14c-6 1.33301 -14.833 2.33301 -26.5 3s-23.334 2.33398 -35.001 5.00098s-21.834 6.33398 -30.501 11.001s-13 11.334 -13 20.001c0 6 3.16699 15.333 9.5 28s14.5 27 24.5 43
s21 32.667 33 50l35.5 49.5c11.667 15.667 22.5 29.334 32.5 41.001s18 19.834 24 24.501h205l-75 -205c-4 -10.667 -8.33301 -19.834 -13 -27.501s-10.834 -14 -18.501 -19s-17.334 -9.33301 -29.001 -13s-26.5 -7.16699 -44.5 -10.5v-14c22 1.33301 43.833 2.33301 65.5 3
s43.167 0.333984 64.5 -0.999023h112c41.333 0 81.5 -0.166992 120.5 -0.5s74 -0.833008 105 -1.5s52.833 -1.33398 65.5 -2.00098l35 90c11.333 30 24.666 59.333 39.999 88l-8 10c-28.667 -23.333 -55.167 -49.333 -79.5 -78s-48.5 -58.667 -72.5 -90
c-16.667 0 -36.834 1 -60.501 3s-48 4.16699 -73 6.5s-49 4.83301 -72 7.5s-41.833 4.66699 -56.5 6z" />
    <glyph glyph-name="Ccedilla" unicode="&#xc7;" horiz-adv-x="630" 
d="M593 448c6 32 12.334 64 19.001 96s14 64 22 96c-18.667 9.33301 -39 16.666 -61 21.999s-43.667 8 -65 8c-62 0 -120.5 -13.5 -175.5 -40.5s-103.167 -62.833 -144.5 -107.5s-74 -95.5 -98 -152.5s-36 -115.167 -36 -174.5c0 -30.667 4.83301 -59.167 14.5 -85.5
s23.5 -49.166 41.5 -68.499s39.833 -34.333 65.5 -45s54.167 -16 85.5 -16c32 0 63.833 6.83301 95.5 20.5s61.334 31.334 89.001 53.001s52.834 46 75.501 73s41 54.167 55 81.5l-13 9c-14.667 -22.667 -31 -45.167 -49 -67.5s-37.833 -42.5 -59.5 -60.5
s-45.167 -32.667 -70.5 -44s-52.666 -17 -81.999 -17c-28 0 -51.833 4.83301 -71.5 14.5s-35.5 23 -47.5 40s-20.833 36.667 -26.5 59s-8.5 46.166 -8.5 71.499c0 26 3.16699 54.667 9.5 86s15.333 63 27 95s26 63 43 93s36.5 56.667 58.5 80s46.333 42 73 56s55 21 85 21
c27.333 0 49.666 -5.83301 66.999 -17.5s31.166 -26.834 41.499 -45.501s17.666 -39.667 21.999 -63s7.16602 -46.666 8.49902 -69.999h10zM169.001 -105c5.33301 1.33301 11.0049 3.16504 17.0049 5.49805s11.667 3.5 17 3.5c12.667 0 23.667 -4.16699 33 -12.5
s14 -19.166 14 -32.499c0 -9.33301 -2 -16.833 -6 -22.5s-9.33301 -10.167 -16 -13.5s-13.834 -5.66602 -21.501 -6.99902s-14.834 -2 -21.501 -2c-8.66699 0 -18.834 1.83301 -30.501 5.5s-21.5 7.16699 -29.5 10.5l-16 -27c5.33301 -3.33301 12 -6.16602 20 -8.49902
s16.167 -4.5 24.5 -6.5s16.666 -3.5 24.999 -4.5s15.5 -1.5 21.5 -1.5c14.667 0 29.167 1.5 43.5 4.5s27.166 8 38.499 15s20.5 16.167 27.5 27.5s10.5 25.333 10.5 42c0 21.333 -8 37.5 -24 48.5s-33.667 16.5 -53 16.5c-5.33301 0 -10.333 -0.333008 -15 -1
s-9.66699 -1.33398 -15 -2.00098l43 67h-35l-62 -97z" />
    <glyph glyph-name="Egrave" unicode="&#xc8;" horiz-adv-x="593" 
d="M-48 -4c21.333 1.33301 43.0029 2.33301 65.0029 3s43.667 1 65 1h112c41.333 -0 81.5 -0.166992 120.5 -0.5s74 -0.833008 105 -1.5s52.833 -1.33398 65.5 -2.00098l35 90c11.333 30 24.666 59.333 39.999 88l-8 10c-28.667 -23.333 -55.167 -49.333 -79.5 -78
s-48.5 -58.667 -72.5 -90c-16.667 0 -36.834 1 -60.501 3s-48 4.16699 -73 6.5s-49 4.83301 -72 7.5s-41.833 4.66699 -56.5 6l98 295h123c5.33301 0 10 -2.5 14 -7.5s6 -13.167 6 -24.5c0 -18.667 -0.666992 -37 -2 -55s-3 -36.333 -5 -55h19c14 48 29.5 95 46.5 141
s35.167 92 54.5 138h-21c-16 -26 -29.167 -46.5 -39.5 -61.5s-22.833 -26.167 -37.5 -33.5s-33.334 -12.166 -56.001 -14.499s-54.334 -3.5 -95.001 -3.5l100 268h94c31.333 0 63 -2 95 -6l8 -33c3.33301 -14 7.5 -28.5 12.5 -43.5s10.5 -29.167 16.5 -42.5
s12.333 -23.666 19 -30.999h12l-2 45.5c-0.666992 15 -1 30.167 -1 45.5s0.333008 30.166 1 44.499l2 44.5h-454v-14c5.33301 -0.666992 12.833 -2 22.5 -4s19.334 -4.83301 29.001 -8.5s18.167 -7.66699 25.5 -12s11 -9.5 11 -15.5c0 -3.33301 -3.83301 -17.333 -11.5 -42
l-29 -90.5l-39 -117l-42.5 -121.5l-38.5 -104c-11.667 -30.667 -20.5 -52 -26.5 -64c-8 -16 -20.667 -26.833 -38 -32.5s-36.333 -11.5 -57 -17.5v-11zM488.003 687l-107.001 149.999c-10 14.667 -23.333 22 -40 22c-9.33301 0 -17.166 -3.66699 -23.499 -11
s-9.5 -15.666 -9.5 -24.999c0 -6 1.5 -11 4.5 -15s8.16699 -9 15.5 -15l129 -106h31z" />
    <glyph glyph-name="Eacute" unicode="&#xc9;" horiz-adv-x="593" 
d="M-48 -4c21.333 1.33301 43.0029 2.33301 65.0029 3s43.667 1 65 1h112c41.333 -0 81.5 -0.166992 120.5 -0.5s74 -0.833008 105 -1.5s52.833 -1.33398 65.5 -2.00098l35 90c11.333 30 24.666 59.333 39.999 88l-8 10c-28.667 -23.333 -55.167 -49.333 -79.5 -78
s-48.5 -58.667 -72.5 -90c-16.667 0 -36.834 1 -60.501 3s-48 4.16699 -73 6.5s-49 4.83301 -72 7.5s-41.833 4.66699 -56.5 6l98 295h123c5.33301 0 10 -2.5 14 -7.5s6 -13.167 6 -24.5c0 -18.667 -0.666992 -37 -2 -55s-3 -36.333 -5 -55h19c14 48 29.5 95 46.5 141
s35.167 92 54.5 138h-21c-16 -26 -29.167 -46.5 -39.5 -61.5s-22.833 -26.167 -37.5 -33.5s-33.334 -12.166 -56.001 -14.499s-54.334 -3.5 -95.001 -3.5l100 268h94c31.333 0 63 -2 95 -6l8 -33c3.33301 -14 7.5 -28.5 12.5 -43.5s10.5 -29.167 16.5 -42.5
s12.333 -23.666 19 -30.999h12l-2 45.5c-0.666992 15 -1 30.167 -1 45.5s0.333008 30.166 1 44.499l2 44.5h-454v-14c5.33301 -0.666992 12.833 -2 22.5 -4s19.334 -4.83301 29.001 -8.5s18.167 -7.66699 25.5 -12s11 -9.5 11 -15.5c0 -3.33301 -3.83301 -17.333 -11.5 -42
l-29 -90.5l-39 -117l-42.5 -121.5l-38.5 -104c-11.667 -30.667 -20.5 -52 -26.5 -64c-8 -16 -20.667 -26.833 -38 -32.5s-36.333 -11.5 -57 -17.5v-11zM414.003 687l115.999 76.002l43 29c12 8 18 17.667 18 29c0 9.33301 -3.66699 17.666 -11 24.999s-15.666 11 -24.999 11
c-6.66699 0 -12.167 -1.33301 -16.5 -4s-7.83301 -5.33398 -10.5 -8.00098l-149 -158h35z" />
    <glyph glyph-name="Ecircumflex" unicode="&#xca;" horiz-adv-x="593" 
d="M-48 -4c21.333 1.33301 43.0029 2.33301 65.0029 3s43.667 1 65 1h112c41.333 -0 81.5 -0.166992 120.5 -0.5s74 -0.833008 105 -1.5s52.833 -1.33398 65.5 -2.00098l35 90c11.333 30 24.666 59.333 39.999 88l-8 10c-28.667 -23.333 -55.167 -49.333 -79.5 -78
s-48.5 -58.667 -72.5 -90c-16.667 0 -36.834 1 -60.501 3s-48 4.16699 -73 6.5s-49 4.83301 -72 7.5s-41.833 4.66699 -56.5 6l98 295h123c5.33301 0 10 -2.5 14 -7.5s6 -13.167 6 -24.5c0 -18.667 -0.666992 -37 -2 -55s-3 -36.333 -5 -55h19c14 48 29.5 95 46.5 141
s35.167 92 54.5 138h-21c-16 -26 -29.167 -46.5 -39.5 -61.5s-22.833 -26.167 -37.5 -33.5s-33.334 -12.166 -56.001 -14.499s-54.334 -3.5 -95.001 -3.5l100 268h94c31.333 0 63 -2 95 -6l8 -33c3.33301 -14 7.5 -28.5 12.5 -43.5s10.5 -29.167 16.5 -42.5
s12.333 -23.666 19 -30.999h12l-2 45.5c-0.666992 15 -1 30.167 -1 45.5s0.333008 30.166 1 44.499l2 44.5h-454v-14c5.33301 -0.666992 12.833 -2 22.5 -4s19.334 -4.83301 29.001 -8.5s18.167 -7.66699 25.5 -12s11 -9.5 11 -15.5c0 -3.33301 -3.83301 -17.333 -11.5 -42
l-29 -90.5l-39 -117l-42.5 -121.5l-38.5 -104c-11.667 -30.667 -20.5 -52 -26.5 -64c-8 -16 -20.667 -26.833 -38 -32.5s-36.333 -11.5 -57 -17.5v-11zM558.003 687l-79 170h-49l-148 -170h39l127 104l73 -104h37z" />
    <glyph glyph-name="Edieresis" unicode="&#xcb;" horiz-adv-x="593" 
d="M-48 -4c21.333 1.33301 43.0029 2.33301 65.0029 3s43.667 1 65 1h112c41.333 -0 81.5 -0.166992 120.5 -0.5s74 -0.833008 105 -1.5s52.833 -1.33398 65.5 -2.00098l35 90c11.333 30 24.666 59.333 39.999 88l-8 10c-28.667 -23.333 -55.167 -49.333 -79.5 -78
s-48.5 -58.667 -72.5 -90c-16.667 0 -36.834 1 -60.501 3s-48 4.16699 -73 6.5s-49 4.83301 -72 7.5s-41.833 4.66699 -56.5 6l98 295h123c5.33301 0 10 -2.5 14 -7.5s6 -13.167 6 -24.5c0 -18.667 -0.666992 -37 -2 -55s-3 -36.333 -5 -55h19c14 48 29.5 95 46.5 141
s35.167 92 54.5 138h-21c-16 -26 -29.167 -46.5 -39.5 -61.5s-22.833 -26.167 -37.5 -33.5s-33.334 -12.166 -56.001 -14.499s-54.334 -3.5 -95.001 -3.5l100 268h94c31.333 0 63 -2 95 -6l8 -33c3.33301 -14 7.5 -28.5 12.5 -43.5s10.5 -29.167 16.5 -42.5
s12.333 -23.666 19 -30.999h12l-2 45.5c-0.666992 15 -1 30.167 -1 45.5s0.333008 30.166 1 44.499l2 44.5h-454v-14c5.33301 -0.666992 12.833 -2 22.5 -4s19.334 -4.83301 29.001 -8.5s18.167 -7.66699 25.5 -12s11 -9.5 11 -15.5c0 -3.33301 -3.83301 -17.333 -11.5 -42
l-29 -90.5l-39 -117l-42.5 -121.5l-38.5 -104c-11.667 -30.667 -20.5 -52 -26.5 -64c-8 -16 -20.667 -26.833 -38 -32.5s-36.333 -11.5 -57 -17.5v-11zM356.003 801c-13.333 0 -24.833 -4.66699 -34.5 -14s-14.5 -20.333 -14.5 -33c0 -15.333 5.16699 -27.666 15.5 -36.999
s21.5 -14 33.5 -14c13.333 0 24.833 4.66699 34.5 14s14.5 20.333 14.5 33c0 15.333 -5.16699 27.666 -15.5 36.999s-21.5 14 -33.5 14zM533.003 801c-13.333 0 -24.833 -4.66699 -34.5 -14s-14.5 -20.333 -14.5 -33c0 -15.333 5.16699 -27.666 15.5 -36.999
s21.5 -14 33.5 -14c13.333 0 24.833 4.66699 34.5 14s14.5 20.333 14.5 33c0 15.333 -5.16699 27.666 -15.5 36.999s-21.5 14 -33.5 14z" />
    <glyph glyph-name="Igrave" unicode="&#xcc;" horiz-adv-x="370" 
d="M-43 -4c22 1.33301 43.8311 2.33301 65.498 3s43.5 1 65.5 1c23.333 0 46.833 -0.333008 70.5 -1s47.167 -1.66699 70.5 -3v14c-4 0.666992 -10.667 1.5 -20 2.5s-18.833 2.5 -28.5 4.5s-18 4.83301 -25 8.5s-10.5 8.83398 -10.5 15.501c0 4.66699 3.66699 19 11 43
s16.833 53.167 28.5 87.5l39 112l41 115.5l35.5 98c10.667 28.667 18.334 48.667 23.001 60c7.33301 17.333 13.833 31 19.5 41s12.334 17.833 20.001 23.5s17 9.66699 28 12s25.5 4.5 43.5 6.5l3 14c-21.333 -1.33301 -44 -2.33301 -68 -3s-46.667 -1 -68 -1
c-23.333 0 -46.833 0.333008 -70.5 1s-47.167 1.66699 -70.5 3v-14c6 0 13.5 -0.666992 22.5 -2s17.833 -3.5 26.5 -6.5s16.167 -6.83301 22.5 -11.5s9.5 -10.334 9.5 -17.001c0 -7.33301 -3.83301 -23.666 -11.5 -48.999s-17.5 -55.666 -29.5 -90.999l-39.5 -113
l-41.5 -115l-35.5 -97.5l-21.5 -59.5c-4 -10.667 -8 -19.334 -12 -26.001s-9.5 -12.334 -16.5 -17.001s-16.5 -8.66699 -28.5 -12l-48 -13v-14zM376.998 687l-107.001 149.999c-10 14.667 -23.333 22 -40 22c-9.33301 0 -17.166 -3.66699 -23.499 -11
s-9.5 -15.666 -9.5 -24.999c0 -6 1.5 -11 4.5 -15s8.16699 -9 15.5 -15l129 -106h31z" />
    <glyph glyph-name="Iacute" unicode="&#xcd;" horiz-adv-x="370" 
d="M-43 -4c22 1.33301 43.8311 2.33301 65.498 3s43.5 1 65.5 1c23.333 0 46.833 -0.333008 70.5 -1s47.167 -1.66699 70.5 -3v14c-4 0.666992 -10.667 1.5 -20 2.5s-18.833 2.5 -28.5 4.5s-18 4.83301 -25 8.5s-10.5 8.83398 -10.5 15.501c0 4.66699 3.66699 19 11 43
s16.833 53.167 28.5 87.5l39 112l41 115.5l35.5 98c10.667 28.667 18.334 48.667 23.001 60c7.33301 17.333 13.833 31 19.5 41s12.334 17.833 20.001 23.5s17 9.66699 28 12s25.5 4.5 43.5 6.5l3 14c-21.333 -1.33301 -44 -2.33301 -68 -3s-46.667 -1 -68 -1
c-23.333 0 -46.833 0.333008 -70.5 1s-47.167 1.66699 -70.5 3v-14c6 0 13.5 -0.666992 22.5 -2s17.833 -3.5 26.5 -6.5s16.167 -6.83301 22.5 -11.5s9.5 -10.334 9.5 -17.001c0 -7.33301 -3.83301 -23.666 -11.5 -48.999s-17.5 -55.666 -29.5 -90.999l-39.5 -113
l-41.5 -115l-35.5 -97.5l-21.5 -59.5c-4 -10.667 -8 -19.334 -12 -26.001s-9.5 -12.334 -16.5 -17.001s-16.5 -8.66699 -28.5 -12l-48 -13v-14zM302.998 687l115.999 76.002l43 29c12 8 18 17.667 18 29c0 9.33301 -3.66699 17.666 -11 24.999s-15.666 11 -24.999 11
c-6.66699 0 -12.167 -1.33301 -16.5 -4s-7.83301 -5.33398 -10.5 -8.00098l-149 -158h35z" />
    <glyph glyph-name="Icircumflex" unicode="&#xce;" horiz-adv-x="370" 
d="M-43 -4c22 1.33301 43.8311 2.33301 65.498 3s43.5 1 65.5 1c23.333 0 46.833 -0.333008 70.5 -1s47.167 -1.66699 70.5 -3v14c-4 0.666992 -10.667 1.5 -20 2.5s-18.833 2.5 -28.5 4.5s-18 4.83301 -25 8.5s-10.5 8.83398 -10.5 15.501c0 4.66699 3.66699 19 11 43
s16.833 53.167 28.5 87.5l39 112l41 115.5l35.5 98c10.667 28.667 18.334 48.667 23.001 60c7.33301 17.333 13.833 31 19.5 41s12.334 17.833 20.001 23.5s17 9.66699 28 12s25.5 4.5 43.5 6.5l3 14c-21.333 -1.33301 -44 -2.33301 -68 -3s-46.667 -1 -68 -1
c-23.333 0 -46.833 0.333008 -70.5 1s-47.167 1.66699 -70.5 3v-14c6 0 13.5 -0.666992 22.5 -2s17.833 -3.5 26.5 -6.5s16.167 -6.83301 22.5 -11.5s9.5 -10.334 9.5 -17.001c0 -7.33301 -3.83301 -23.666 -11.5 -48.999s-17.5 -55.666 -29.5 -90.999l-39.5 -113
l-41.5 -115l-35.5 -97.5l-21.5 -59.5c-4 -10.667 -8 -19.334 -12 -26.001s-9.5 -12.334 -16.5 -17.001s-16.5 -8.66699 -28.5 -12l-48 -13v-14zM446.998 687l-79 170h-49l-148 -170h39l127 104l73 -104h37z" />
    <glyph glyph-name="Idieresis" unicode="&#xcf;" horiz-adv-x="370" 
d="M-43 -4c22 1.33301 43.8311 2.33301 65.498 3s43.5 1 65.5 1c23.333 0 46.833 -0.333008 70.5 -1s47.167 -1.66699 70.5 -3v14c-4 0.666992 -10.667 1.5 -20 2.5s-18.833 2.5 -28.5 4.5s-18 4.83301 -25 8.5s-10.5 8.83398 -10.5 15.501c0 4.66699 3.66699 19 11 43
s16.833 53.167 28.5 87.5l39 112l41 115.5l35.5 98c10.667 28.667 18.334 48.667 23.001 60c7.33301 17.333 13.833 31 19.5 41s12.334 17.833 20.001 23.5s17 9.66699 28 12s25.5 4.5 43.5 6.5l3 14c-21.333 -1.33301 -44 -2.33301 -68 -3s-46.667 -1 -68 -1
c-23.333 0 -46.833 0.333008 -70.5 1s-47.167 1.66699 -70.5 3v-14c6 0 13.5 -0.666992 22.5 -2s17.833 -3.5 26.5 -6.5s16.167 -6.83301 22.5 -11.5s9.5 -10.334 9.5 -17.001c0 -7.33301 -3.83301 -23.666 -11.5 -48.999s-17.5 -55.666 -29.5 -90.999l-39.5 -113
l-41.5 -115l-35.5 -97.5l-21.5 -59.5c-4 -10.667 -8 -19.334 -12 -26.001s-9.5 -12.334 -16.5 -17.001s-16.5 -8.66699 -28.5 -12l-48 -13v-14zM244.998 801c-13.333 0 -24.833 -4.66699 -34.5 -14s-14.5 -20.333 -14.5 -33c0 -15.333 5.16699 -27.666 15.5 -36.999
s21.5 -14 33.5 -14c13.333 0 24.833 4.66699 34.5 14s14.5 20.333 14.5 33c0 15.333 -5.16699 27.666 -15.5 36.999s-21.5 14 -33.5 14zM421.998 801c-13.333 0 -24.833 -4.66699 -34.5 -14s-14.5 -20.333 -14.5 -33c0 -15.333 5.16699 -27.666 15.5 -36.999
s21.5 -14 33.5 -14c13.333 0 24.833 4.66699 34.5 14s14.5 20.333 14.5 33c0 15.333 -5.16699 27.666 -15.5 36.999s-21.5 14 -33.5 14z" />
    <glyph glyph-name="Eth" unicode="&#xd0;" horiz-adv-x="667" 
d="M165 0h35.0049c13.333 -0 27.166 0.333008 41.499 1s28.666 1.66699 42.999 3s27.166 3.33301 38.499 6c48 10 92.167 29 132.5 57s75.166 61.833 104.499 101.5s52.333 83.5 69 131.5s25 97 25 147c0 74.667 -19.833 128.834 -59.5 162.501s-94.834 50.5 -165.501 50.5
c-17.333 0 -36.166 -0.333008 -56.499 -1s-40.833 -1.5 -61.5 -2.5s-41 -1.83301 -61 -2.5s-38.667 -1.33398 -56 -2.00098l-71 -2v-10c6 -0.666992 15 -1.83398 27 -3.50098s24 -4 36 -7s22.5 -7.16699 31.5 -12.5s13.5 -12.333 13.5 -21c0 -7.33301 -2 -19.166 -6 -35.499
s-9.5 -35.833 -16.5 -58.5s-15.167 -47.5 -24.5 -74.5l-29 -83.5h-113v-28h104l-32 -89l-28.5 -77l-21 -56c-5.66699 -14.667 -8.83398 -23 -9.50098 -25c-1.33301 -4 -3.83301 -8.83301 -7.5 -14.5s-9.5 -11.334 -17.5 -17.001s-18.667 -10.667 -32 -15
s-31 -7.16602 -53 -8.49902l-2 -14h222zM376.005 316l0.000976562 27.999h-136l48.5 144.5l50.5 143.5c25.333 5.33301 50.333 8 75 8c27.333 0 50.333 -5 69 -15s33.667 -23.667 45 -41s19.5 -37.666 24.5 -60.999s7.5 -48.333 7.5 -75c0 -49.333 -7 -99.333 -21 -150
s-34.833 -96.667 -62.5 -138s-62.334 -75 -104.001 -101s-90.5 -39 -146.5 -39c-14.667 0 -29.5 1 -44.5 3s-29.167 6 -42.5 12l45 141l46 140h146z" />
    <glyph glyph-name="Ntilde" unicode="&#xd1;" horiz-adv-x="704" 
d="M-80 -4c22.667 1.33301 45.3281 2.33105 67.9951 2.99805s45.334 1 68.001 1s45.167 -0.333008 67.5 -1s44.5 -1.66699 66.5 -3v14c-7.33301 2 -16.5 4.66699 -27.5 8s-21.833 7.16602 -32.5 11.499s-19.667 9.66602 -27 15.999s-11 13.833 -11 22.5
c0 6 3.33301 21.167 10 45.5s15.334 53.333 26.001 87l35 109.5l36 111.5l30.5 92.5l18.5 54c40 -95.333 77.833 -191.166 113.5 -287.499l104.5 -290.5h18l27 87l34 105.5l38 112.5l38 107.5l33 90c10 26.333 18.333 46.833 25 61.5c6 14 12.5 25.667 19.5 35
s14.833 17.333 23.5 24s18.667 12 30 16s24.666 7.66699 39.999 11v14c-20 -0.666992 -40.167 -1.5 -60.5 -2.5s-40.5 -1.5 -60.5 -1.5c-22.667 0 -45 0.5 -67 1.5s-44.333 1.83301 -67 2.5v-14c8 -2 18 -4.16699 30 -6.5s23.833 -5.66602 35.5 -9.99902
s21.667 -10.166 30 -17.499s12.5 -16.666 12.5 -27.999c0 -4 -2.16699 -13.833 -6.5 -29.5s-10.166 -35.167 -17.499 -58.5l-24.5 -77l-27 -84l-26.5 -80.5l-22 -65.5l-13 -39.5c-2.66699 -8.33301 -3 -9.16602 -1 -2.49902h-2l-97.5 255.5l-93.5 257.5
c-15.333 0 -30.666 -0.666992 -45.999 -2s-30.666 -2 -45.999 -2c-17.333 0 -34.333 0.5 -51 1.5s-33.667 1.83301 -51 2.5l-3 -14c6 -0.666992 15 -2.5 27 -5.5s23.667 -7.33301 35 -13s21.333 -12.334 30 -20.001s13 -16.167 13 -25.5c0 -2 -3.66699 -14.5 -11 -37.5
l-28 -85l-38 -109.5l-40 -113l-34.5 -95.5c-10.333 -27.667 -17.5 -46.167 -21.5 -55.5c-5.33301 -12.667 -12.666 -23 -21.999 -31s-19.833 -14.5 -31.5 -19.5s-24 -9 -37 -12s-25.833 -5.5 -38.5 -7.5v-14zM631.994 817.998
c-3.33301 -11.333 -7.49609 -21.5 -12.4961 -30.5s-14.5 -13.5 -28.5 -13.5c-10.667 0 -22 2.33301 -34 7l-37 15c-12.667 5.33301 -25.334 10.333 -38.001 15s-25 7 -37 7c-14.667 0 -26.834 -3.33301 -36.501 -10s-17.667 -15.167 -24 -25.5
s-11.166 -21.666 -14.499 -33.999s-6 -24.5 -8 -36.5h27c3.33301 11.333 8.16602 22 14.499 32s15.833 15 28.5 15c7.33301 0 17.5 -2.33301 30.5 -7l41.5 -15l42 -15.5c14 -5 25.667 -7.5 35 -7.5c13.333 0 24.666 3.33301 33.999 10s16.833 15.167 22.5 25.5
s10.167 21.666 13.5 33.999s5.66602 23.833 6.99902 34.5h-26z" />
    <glyph glyph-name="Ograve" unicode="&#xd2;" horiz-adv-x="648" 
d="M467 670c-37.333 0 -73.665 -7.5 -108.998 -22.5s-68.5 -35.167 -99.5 -60.5s-59.5 -54.833 -85.5 -88.5s-48.333 -68.834 -67 -105.501s-33.167 -74 -43.5 -112s-15.5 -74 -15.5 -108c0 -28 3.33301 -53.667 10 -77s16.667 -43.666 30 -60.999
s30.666 -30.833 51.999 -40.5s46.333 -14.5 75 -14.5c37.333 0 73.666 7.5 108.999 22.5s68.5 35.167 99.5 60.5s59.5 54.833 85.5 88.5s48.333 68.834 67 105.501s33.167 74 43.5 112s15.5 74 15.5 108c0 28 -3.33301 53.667 -10 77s-16.667 43.666 -30 60.999
s-30.5 30.833 -51.5 40.5s-46.167 14.5 -75.5 14.5zM540.001 501c0 -20.667 -2.83496 -47.167 -8.50195 -79.5s-14.167 -66.666 -25.5 -102.999s-25.166 -72.666 -41.499 -108.999s-35 -69.166 -56 -98.499s-44.5 -53.166 -70.5 -71.499s-54 -27.5 -84 -27.5
c-22 0 -40.333 3.83301 -55 11.5s-26.167 18 -34.5 31s-14.333 28.167 -18 45.5s-5.5 35.666 -5.5 54.999c0 20.667 2.83301 47.167 8.5 79.5s14 66.666 25 102.999s24.667 72.666 41 108.999s35 69.166 56 98.499s44.333 53.166 70 71.499s53.167 27.5 82.5 27.5
c22.667 0 41.5 -3.83301 56.5 -11.5s26.833 -18 35.5 -31s14.834 -28.167 18.501 -45.5s5.5 -35.666 5.5 -54.999zM530.999 687l-107.001 149.999c-10 14.667 -23.333 22 -40 22c-9.33301 0 -17.166 -3.66699 -23.499 -11s-9.5 -15.666 -9.5 -24.999c0 -6 1.5 -11 4.5 -15
s8.16699 -9 15.5 -15l129 -106h31z" />
    <glyph glyph-name="Oacute" unicode="&#xd3;" horiz-adv-x="648" 
d="M467 670c-37.333 0 -73.665 -7.5 -108.998 -22.5s-68.5 -35.167 -99.5 -60.5s-59.5 -54.833 -85.5 -88.5s-48.333 -68.834 -67 -105.501s-33.167 -74 -43.5 -112s-15.5 -74 -15.5 -108c0 -28 3.33301 -53.667 10 -77s16.667 -43.666 30 -60.999
s30.666 -30.833 51.999 -40.5s46.333 -14.5 75 -14.5c37.333 0 73.666 7.5 108.999 22.5s68.5 35.167 99.5 60.5s59.5 54.833 85.5 88.5s48.333 68.834 67 105.501s33.167 74 43.5 112s15.5 74 15.5 108c0 28 -3.33301 53.667 -10 77s-16.667 43.666 -30 60.999
s-30.5 30.833 -51.5 40.5s-46.167 14.5 -75.5 14.5zM540.001 501c0 -20.667 -2.83496 -47.167 -8.50195 -79.5s-14.167 -66.666 -25.5 -102.999s-25.166 -72.666 -41.499 -108.999s-35 -69.166 -56 -98.499s-44.5 -53.166 -70.5 -71.499s-54 -27.5 -84 -27.5
c-22 0 -40.333 3.83301 -55 11.5s-26.167 18 -34.5 31s-14.333 28.167 -18 45.5s-5.5 35.666 -5.5 54.999c0 20.667 2.83301 47.167 8.5 79.5s14 66.666 25 102.999s24.667 72.666 41 108.999s35 69.166 56 98.499s44.333 53.166 70 71.499s53.167 27.5 82.5 27.5
c22.667 0 41.5 -3.83301 56.5 -11.5s26.833 -18 35.5 -31s14.834 -28.167 18.501 -45.5s5.5 -35.666 5.5 -54.999zM456.999 687l115.999 76.002l43 29c12 8 18 17.667 18 29c0 9.33301 -3.66699 17.666 -11 24.999s-15.666 11 -24.999 11
c-6.66699 0 -12.167 -1.33301 -16.5 -4s-7.83301 -5.33398 -10.5 -8.00098l-149 -158h35z" />
    <glyph glyph-name="Ocircumflex" unicode="&#xd4;" horiz-adv-x="648" 
d="M467 670c-37.333 0 -73.665 -7.5 -108.998 -22.5s-68.5 -35.167 -99.5 -60.5s-59.5 -54.833 -85.5 -88.5s-48.333 -68.834 -67 -105.501s-33.167 -74 -43.5 -112s-15.5 -74 -15.5 -108c0 -28 3.33301 -53.667 10 -77s16.667 -43.666 30 -60.999
s30.666 -30.833 51.999 -40.5s46.333 -14.5 75 -14.5c37.333 0 73.666 7.5 108.999 22.5s68.5 35.167 99.5 60.5s59.5 54.833 85.5 88.5s48.333 68.834 67 105.501s33.167 74 43.5 112s15.5 74 15.5 108c0 28 -3.33301 53.667 -10 77s-16.667 43.666 -30 60.999
s-30.5 30.833 -51.5 40.5s-46.167 14.5 -75.5 14.5zM540.001 501c0 -20.667 -2.83496 -47.167 -8.50195 -79.5s-14.167 -66.666 -25.5 -102.999s-25.166 -72.666 -41.499 -108.999s-35 -69.166 -56 -98.499s-44.5 -53.166 -70.5 -71.499s-54 -27.5 -84 -27.5
c-22 0 -40.333 3.83301 -55 11.5s-26.167 18 -34.5 31s-14.333 28.167 -18 45.5s-5.5 35.666 -5.5 54.999c0 20.667 2.83301 47.167 8.5 79.5s14 66.666 25 102.999s24.667 72.666 41 108.999s35 69.166 56 98.499s44.333 53.166 70 71.499s53.167 27.5 82.5 27.5
c22.667 0 41.5 -3.83301 56.5 -11.5s26.833 -18 35.5 -31s14.834 -28.167 18.501 -45.5s5.5 -35.666 5.5 -54.999zM600.999 687l-79 170h-49l-148 -170h39l127 104l73 -104h37z" />
    <glyph glyph-name="Otilde" unicode="&#xd5;" horiz-adv-x="648" 
d="M467 670c-37.333 0 -73.665 -7.5 -108.998 -22.5s-68.5 -35.167 -99.5 -60.5s-59.5 -54.833 -85.5 -88.5s-48.333 -68.834 -67 -105.501s-33.167 -74 -43.5 -112s-15.5 -74 -15.5 -108c0 -28 3.33301 -53.667 10 -77s16.667 -43.666 30 -60.999
s30.666 -30.833 51.999 -40.5s46.333 -14.5 75 -14.5c37.333 0 73.666 7.5 108.999 22.5s68.5 35.167 99.5 60.5s59.5 54.833 85.5 88.5s48.333 68.834 67 105.501s33.167 74 43.5 112s15.5 74 15.5 108c0 28 -3.33301 53.667 -10 77s-16.667 43.666 -30 60.999
s-30.5 30.833 -51.5 40.5s-46.167 14.5 -75.5 14.5zM540.001 501c0 -20.667 -2.83496 -47.167 -8.50195 -79.5s-14.167 -66.666 -25.5 -102.999s-25.166 -72.666 -41.499 -108.999s-35 -69.166 -56 -98.499s-44.5 -53.166 -70.5 -71.499s-54 -27.5 -84 -27.5
c-22 0 -40.333 3.83301 -55 11.5s-26.167 18 -34.5 31s-14.333 28.167 -18 45.5s-5.5 35.666 -5.5 54.999c0 20.667 2.83301 47.167 8.5 79.5s14 66.666 25 102.999s24.667 72.666 41 108.999s35 69.166 56 98.499s44.333 53.166 70 71.499s53.167 27.5 82.5 27.5
c22.667 0 41.5 -3.83301 56.5 -11.5s26.833 -18 35.5 -31s14.834 -28.167 18.501 -45.5s5.5 -35.666 5.5 -54.999zM615.999 818c-3.33301 -11.333 -7.49609 -21.5 -12.4961 -30.5s-14.5 -13.5 -28.5 -13.5c-10.667 0 -22 2.33301 -34 7l-37 15
c-12.667 5.33301 -25.334 10.333 -38.001 15s-25 7 -37 7c-14.667 0 -26.834 -3.33301 -36.501 -10s-17.667 -15.167 -24 -25.5s-11.166 -21.666 -14.499 -33.999s-6 -24.5 -8 -36.5h27c3.33301 11.333 8.16602 22 14.499 32s15.833 15 28.5 15
c7.33301 0 17.5 -2.33301 30.5 -7l41.5 -15l42 -15.5c14 -5 25.667 -7.5 35 -7.5c13.333 0 24.666 3.33301 33.999 10s16.833 15.167 22.5 25.5s10.167 21.666 13.5 33.999s5.66602 23.833 6.99902 34.5h-26z" />
    <glyph glyph-name="Odieresis" unicode="&#xd6;" horiz-adv-x="648" 
d="M467 670c-37.333 0 -73.665 -7.5 -108.998 -22.5s-68.5 -35.167 -99.5 -60.5s-59.5 -54.833 -85.5 -88.5s-48.333 -68.834 -67 -105.501s-33.167 -74 -43.5 -112s-15.5 -74 -15.5 -108c0 -28 3.33301 -53.667 10 -77s16.667 -43.666 30 -60.999
s30.666 -30.833 51.999 -40.5s46.333 -14.5 75 -14.5c37.333 0 73.666 7.5 108.999 22.5s68.5 35.167 99.5 60.5s59.5 54.833 85.5 88.5s48.333 68.834 67 105.501s33.167 74 43.5 112s15.5 74 15.5 108c0 28 -3.33301 53.667 -10 77s-16.667 43.666 -30 60.999
s-30.5 30.833 -51.5 40.5s-46.167 14.5 -75.5 14.5zM540.001 501c0 -20.667 -2.83496 -47.167 -8.50195 -79.5s-14.167 -66.666 -25.5 -102.999s-25.166 -72.666 -41.499 -108.999s-35 -69.166 -56 -98.499s-44.5 -53.166 -70.5 -71.499s-54 -27.5 -84 -27.5
c-22 0 -40.333 3.83301 -55 11.5s-26.167 18 -34.5 31s-14.333 28.167 -18 45.5s-5.5 35.666 -5.5 54.999c0 20.667 2.83301 47.167 8.5 79.5s14 66.666 25 102.999s24.667 72.666 41 108.999s35 69.166 56 98.499s44.333 53.166 70 71.499s53.167 27.5 82.5 27.5
c22.667 0 41.5 -3.83301 56.5 -11.5s26.833 -18 35.5 -31s14.834 -28.167 18.501 -45.5s5.5 -35.666 5.5 -54.999zM398.999 801c-13.333 0 -24.833 -4.66699 -34.5 -14s-14.5 -20.333 -14.5 -33c0 -15.333 5.16699 -27.666 15.5 -36.999s21.5 -14 33.5 -14
c13.333 0 24.833 4.66699 34.5 14s14.5 20.333 14.5 33c0 15.333 -5.16699 27.666 -15.5 36.999s-21.5 14 -33.5 14zM575.999 801c-13.333 0 -24.833 -4.66699 -34.5 -14s-14.5 -20.333 -14.5 -33c0 -15.333 5.16699 -27.666 15.5 -36.999s21.5 -14 33.5 -14
c13.333 0 24.833 4.66699 34.5 14s14.5 20.333 14.5 33c0 15.333 -5.16699 27.666 -15.5 36.999s-21.5 14 -33.5 14z" />
    <glyph glyph-name="multiply" unicode="&#xd7;" horiz-adv-x="500" 
d="M381 0l35 36l-150 152l150 152l-35 36l-151 -153l-151 153l-35 -36l150 -152l-150 -152l35 -36l151 153z" />
    <glyph glyph-name="Oslash" unicode="&#xd8;" horiz-adv-x="648" 
d="M537 539c2 -12 2.99902 -24.6709 2.99902 -38.0039c0 -20.667 -2.83301 -47.167 -8.5 -79.5s-14.167 -66.666 -25.5 -102.999s-25.166 -72.666 -41.499 -108.999s-35 -69.166 -56 -98.499s-44.5 -53.166 -70.5 -71.499s-54 -27.5 -84 -27.5
c-26 0 -46.833 5.33301 -62.5 16s-27.167 24.667 -34.5 42zM145.999 104.996c-2 8 -3.33301 16.1709 -4 24.5039s-1 16.833 -1 25.5c0 20.667 2.83301 47.167 8.5 79.5s14 66.666 25 102.999s24.667 72.666 41 108.999s35 69.166 56 98.499s44.333 53.166 70 71.499
s53.167 27.5 82.5 27.5c30 0 53 -6.33301 69 -19s27.667 -29 35 -49zM109.999 12c13.333 -10 28.668 -17.833 46.001 -23.5s36.666 -8.5 57.999 -8.5c37.333 0 73.666 7.5 108.999 22.5s68.5 35.167 99.5 60.5s59.5 54.833 85.5 88.5s48.333 68.834 67 105.501
s33.167 74 43.5 112s15.5 74 15.5 108c0 27.333 -3 52.333 -9 75s-15.667 42.667 -29 60l83 103h-39l-65 -80c-28.667 23.333 -64.667 35 -108 35c-37.333 0 -73.666 -7.5 -108.999 -22.5s-68.5 -35.167 -99.5 -60.5s-59.5 -54.833 -85.5 -88.5
s-48.333 -68.834 -67 -105.501s-33.167 -74 -43.5 -112s-15.5 -74 -15.5 -108c0 -28 3.33301 -53.833 10 -77.5s17 -44.167 31 -61.5l-97 -119h40z" />
    <glyph glyph-name="Ugrave" unicode="&#xd9;" horiz-adv-x="704" 
d="M132 643c22 -3.33301 39.165 -6.99805 51.498 -10.998s21.666 -8.16699 27.999 -12.5s10.166 -8.5 11.499 -12.5s2 -7.66699 2 -11c0 -7.33301 -3.5 -21.666 -10.5 -42.999s-16 -46.5 -27 -75.5l-35 -93l-35 -96c-11 -31 -20 -59.167 -27 -84.5
s-10.5 -44.666 -10.5 -57.999c0 -26 5.33301 -49.167 16 -69.5s24.834 -37.666 42.501 -51.999s37.834 -25.333 60.501 -33s46 -11.5 70 -11.5c38 0 70.833 5.16699 98.5 15.5s51.834 23.666 72.501 39.999s38 35 52 56s26 42.5 36 64.5l67 152l55.5 132l42 101
c11.667 28 20.834 47.667 27.501 59c3.33301 5.33301 8.16602 10.333 14.499 15s13.333 8.66699 21 12s15.334 6.16602 23.001 8.49902s14.5 3.83301 20.5 4.5v14c-18.667 -1.33301 -37.167 -2.33301 -55.5 -3s-36.833 -1 -55.5 -1c-22.667 0 -45.167 0.333008 -67.5 1
s-44.833 1.66699 -67.5 3v-14c6.66699 -2 15.667 -4 27 -6s22.5 -4.83301 33.5 -8.5s20.5 -8.16699 28.5 -13.5s12 -12.333 12 -21c0 -2.66699 -2.16699 -11.5 -6.5 -26.5l-17 -57l-24.5 -77l-30 -87.5l-33 -89l-32.5 -80.5c-10.333 -24.333 -19.833 -45 -28.5 -62
s-16.334 -28.5 -23.001 -34.5c-18.667 -16.667 -35.667 -29.834 -51 -39.501s-29.666 -17 -42.999 -22s-25.833 -8.16699 -37.5 -9.5s-22.5 -2 -32.5 -2c-17.333 0 -33.833 2.33301 -49.5 7s-29.5 11.834 -41.5 21.501s-21.667 21.5 -29 35.5s-11 30.333 -11 49
c0 11.333 3 28.833 9 52.5s13.667 50.5 23 80.5s19.833 61.667 31.5 95l34.5 95l31 81.5c9.33301 24.333 16.666 42.166 21.999 53.499c8.66699 21.333 21.834 37.166 39.501 47.499s41.5 16.166 71.5 17.499v14c-25.333 -1.33301 -50.5 -2.33301 -75.5 -3
s-50.167 -1 -75.5 -1c-24 0 -47.833 0.333008 -71.5 1s-47.5 1.66699 -71.5 3v-11zM558.998 687.002l-107.001 149.999c-10 14.667 -23.333 22 -40 22c-9.33301 0 -17.166 -3.66699 -23.499 -11s-9.5 -15.666 -9.5 -24.999c0 -6 1.5 -11 4.5 -15s8.16699 -9 15.5 -15
l129 -106h31z" />
    <glyph glyph-name="Uacute" unicode="&#xda;" horiz-adv-x="704" 
d="M132 643c22 -3.33301 39.165 -6.99805 51.498 -10.998s21.666 -8.16699 27.999 -12.5s10.166 -8.5 11.499 -12.5s2 -7.66699 2 -11c0 -7.33301 -3.5 -21.666 -10.5 -42.999s-16 -46.5 -27 -75.5l-35 -93l-35 -96c-11 -31 -20 -59.167 -27 -84.5
s-10.5 -44.666 -10.5 -57.999c0 -26 5.33301 -49.167 16 -69.5s24.834 -37.666 42.501 -51.999s37.834 -25.333 60.501 -33s46 -11.5 70 -11.5c38 0 70.833 5.16699 98.5 15.5s51.834 23.666 72.501 39.999s38 35 52 56s26 42.5 36 64.5l67 152l55.5 132l42 101
c11.667 28 20.834 47.667 27.501 59c3.33301 5.33301 8.16602 10.333 14.499 15s13.333 8.66699 21 12s15.334 6.16602 23.001 8.49902s14.5 3.83301 20.5 4.5v14c-18.667 -1.33301 -37.167 -2.33301 -55.5 -3s-36.833 -1 -55.5 -1c-22.667 0 -45.167 0.333008 -67.5 1
s-44.833 1.66699 -67.5 3v-14c6.66699 -2 15.667 -4 27 -6s22.5 -4.83301 33.5 -8.5s20.5 -8.16699 28.5 -13.5s12 -12.333 12 -21c0 -2.66699 -2.16699 -11.5 -6.5 -26.5l-17 -57l-24.5 -77l-30 -87.5l-33 -89l-32.5 -80.5c-10.333 -24.333 -19.833 -45 -28.5 -62
s-16.334 -28.5 -23.001 -34.5c-18.667 -16.667 -35.667 -29.834 -51 -39.501s-29.666 -17 -42.999 -22s-25.833 -8.16699 -37.5 -9.5s-22.5 -2 -32.5 -2c-17.333 0 -33.833 2.33301 -49.5 7s-29.5 11.834 -41.5 21.501s-21.667 21.5 -29 35.5s-11 30.333 -11 49
c0 11.333 3 28.833 9 52.5s13.667 50.5 23 80.5s19.833 61.667 31.5 95l34.5 95l31 81.5c9.33301 24.333 16.666 42.166 21.999 53.499c8.66699 21.333 21.834 37.166 39.501 47.499s41.5 16.166 71.5 17.499v14c-25.333 -1.33301 -50.5 -2.33301 -75.5 -3
s-50.167 -1 -75.5 -1c-24 0 -47.833 0.333008 -71.5 1s-47.5 1.66699 -71.5 3v-11zM484.998 687.002l115.999 76.002l43 29c12 8 18 17.667 18 29c0 9.33301 -3.66699 17.666 -11 24.999s-15.666 11 -24.999 11c-6.66699 0 -12.167 -1.33301 -16.5 -4
s-7.83301 -5.33398 -10.5 -8.00098l-149 -158h35z" />
    <glyph glyph-name="Ucircumflex" unicode="&#xdb;" horiz-adv-x="704" 
d="M132 643c22 -3.33301 39.165 -6.99805 51.498 -10.998s21.666 -8.16699 27.999 -12.5s10.166 -8.5 11.499 -12.5s2 -7.66699 2 -11c0 -7.33301 -3.5 -21.666 -10.5 -42.999s-16 -46.5 -27 -75.5l-35 -93l-35 -96c-11 -31 -20 -59.167 -27 -84.5
s-10.5 -44.666 -10.5 -57.999c0 -26 5.33301 -49.167 16 -69.5s24.834 -37.666 42.501 -51.999s37.834 -25.333 60.501 -33s46 -11.5 70 -11.5c38 0 70.833 5.16699 98.5 15.5s51.834 23.666 72.501 39.999s38 35 52 56s26 42.5 36 64.5l67 152l55.5 132l42 101
c11.667 28 20.834 47.667 27.501 59c3.33301 5.33301 8.16602 10.333 14.499 15s13.333 8.66699 21 12s15.334 6.16602 23.001 8.49902s14.5 3.83301 20.5 4.5v14c-18.667 -1.33301 -37.167 -2.33301 -55.5 -3s-36.833 -1 -55.5 -1c-22.667 0 -45.167 0.333008 -67.5 1
s-44.833 1.66699 -67.5 3v-14c6.66699 -2 15.667 -4 27 -6s22.5 -4.83301 33.5 -8.5s20.5 -8.16699 28.5 -13.5s12 -12.333 12 -21c0 -2.66699 -2.16699 -11.5 -6.5 -26.5l-17 -57l-24.5 -77l-30 -87.5l-33 -89l-32.5 -80.5c-10.333 -24.333 -19.833 -45 -28.5 -62
s-16.334 -28.5 -23.001 -34.5c-18.667 -16.667 -35.667 -29.834 -51 -39.501s-29.666 -17 -42.999 -22s-25.833 -8.16699 -37.5 -9.5s-22.5 -2 -32.5 -2c-17.333 0 -33.833 2.33301 -49.5 7s-29.5 11.834 -41.5 21.501s-21.667 21.5 -29 35.5s-11 30.333 -11 49
c0 11.333 3 28.833 9 52.5s13.667 50.5 23 80.5s19.833 61.667 31.5 95l34.5 95l31 81.5c9.33301 24.333 16.666 42.166 21.999 53.499c8.66699 21.333 21.834 37.166 39.501 47.499s41.5 16.166 71.5 17.499v14c-25.333 -1.33301 -50.5 -2.33301 -75.5 -3
s-50.167 -1 -75.5 -1c-24 0 -47.833 0.333008 -71.5 1s-47.5 1.66699 -71.5 3v-11zM628.998 687.002l-79 170h-49l-148 -170h39l127 104l73 -104h37z" />
    <glyph glyph-name="Udieresis" unicode="&#xdc;" horiz-adv-x="704" 
d="M132 643c22 -3.33301 39.165 -6.99805 51.498 -10.998s21.666 -8.16699 27.999 -12.5s10.166 -8.5 11.499 -12.5s2 -7.66699 2 -11c0 -7.33301 -3.5 -21.666 -10.5 -42.999s-16 -46.5 -27 -75.5l-35 -93l-35 -96c-11 -31 -20 -59.167 -27 -84.5
s-10.5 -44.666 -10.5 -57.999c0 -26 5.33301 -49.167 16 -69.5s24.834 -37.666 42.501 -51.999s37.834 -25.333 60.501 -33s46 -11.5 70 -11.5c38 0 70.833 5.16699 98.5 15.5s51.834 23.666 72.501 39.999s38 35 52 56s26 42.5 36 64.5l67 152l55.5 132l42 101
c11.667 28 20.834 47.667 27.501 59c3.33301 5.33301 8.16602 10.333 14.499 15s13.333 8.66699 21 12s15.334 6.16602 23.001 8.49902s14.5 3.83301 20.5 4.5v14c-18.667 -1.33301 -37.167 -2.33301 -55.5 -3s-36.833 -1 -55.5 -1c-22.667 0 -45.167 0.333008 -67.5 1
s-44.833 1.66699 -67.5 3v-14c6.66699 -2 15.667 -4 27 -6s22.5 -4.83301 33.5 -8.5s20.5 -8.16699 28.5 -13.5s12 -12.333 12 -21c0 -2.66699 -2.16699 -11.5 -6.5 -26.5l-17 -57l-24.5 -77l-30 -87.5l-33 -89l-32.5 -80.5c-10.333 -24.333 -19.833 -45 -28.5 -62
s-16.334 -28.5 -23.001 -34.5c-18.667 -16.667 -35.667 -29.834 -51 -39.501s-29.666 -17 -42.999 -22s-25.833 -8.16699 -37.5 -9.5s-22.5 -2 -32.5 -2c-17.333 0 -33.833 2.33301 -49.5 7s-29.5 11.834 -41.5 21.501s-21.667 21.5 -29 35.5s-11 30.333 -11 49
c0 11.333 3 28.833 9 52.5s13.667 50.5 23 80.5s19.833 61.667 31.5 95l34.5 95l31 81.5c9.33301 24.333 16.666 42.166 21.999 53.499c8.66699 21.333 21.834 37.166 39.501 47.499s41.5 16.166 71.5 17.499v14c-25.333 -1.33301 -50.5 -2.33301 -75.5 -3
s-50.167 -1 -75.5 -1c-24 0 -47.833 0.333008 -71.5 1s-47.5 1.66699 -71.5 3v-11zM426.998 801.002c-13.333 0 -24.833 -4.66699 -34.5 -14s-14.5 -20.333 -14.5 -33c0 -15.333 5.16699 -27.666 15.5 -36.999s21.5 -14 33.5 -14c13.333 0 24.833 4.66699 34.5 14
s14.5 20.333 14.5 33c0 15.333 -5.16699 27.666 -15.5 36.999s-21.5 14 -33.5 14zM603.998 801.002c-13.333 0 -24.833 -4.66699 -34.5 -14s-14.5 -20.333 -14.5 -33c0 -15.333 5.16699 -27.666 15.5 -36.999s21.5 -14 33.5 -14c13.333 0 24.833 4.66699 34.5 14
s14.5 20.333 14.5 33c0 15.333 -5.16699 27.666 -15.5 36.999s-21.5 14 -33.5 14z" />
    <glyph glyph-name="Yacute" unicode="&#xdd;" horiz-adv-x="630" 
d="M53 -4c10 0.666992 21.998 1.16699 35.998 1.5s28.833 0.666016 44.5 0.999023l48.5 1c16.667 0.333008 32.334 0.5 47.001 0.5c60.667 0 107.667 -0.333008 141 -1s52 -1.66699 56 -3v14c-15.333 2 -31.166 4.33301 -47.499 7s-31.333 5.5 -45 8.5s-25 6.66699 -34 11
s-13.5 9.5 -13.5 15.5c0 10 3 25.5 9 46.5s13.333 44.167 22 69.5l27 77.5c9.33301 26.333 17 49.833 23 70.5c16 20 34.833 41 56.5 63s44.5 44 68.5 66l72.5 64.5l68.5 57.5l56.5 45.5c16.333 13 28.166 22.167 35.499 27.5v14c-18 -0.666992 -36 -1.5 -54 -2.5
s-36 -1.5 -54 -1.5c-23.333 0 -46.666 0.5 -69.999 1.5s-46.666 1.83301 -69.999 2.5v-14l23 -4c11.333 -2 23.166 -4.66699 35.499 -8s23.333 -7.5 33 -12.5s14.5 -11.167 14.5 -18.5c0 -3.33301 -4.66699 -11.333 -14 -24s-21.333 -27.5 -36 -44.5l-48.5 -55l-51.5 -56.5
l-45 -48l-29 -31l-18.5 64l-23 80.5c-7.66699 27 -14.334 51.667 -20.001 74s-8.5 36.833 -8.5 43.5c0 7.33301 2.83301 13.333 8.5 18s13 8.5 22 11.5s18.833 5.33301 29.5 7s21 2.83398 31 3.50098v14c-25.333 -1.33301 -50.5 -2.33301 -75.5 -3s-50.167 -1 -75.5 -1
c-24.667 0 -49 0.333008 -73 1s-48.333 1.66699 -73 3v-14c4.66699 -0.666992 12 -2 22 -4s20.333 -4.66699 31 -8s20.667 -7 30 -11s15.333 -8.33301 18 -13c8.66699 -12.667 17.834 -32 27.501 -58s19 -53.667 28 -83l25.5 -84c8 -26.667 14.333 -47 19 -61l-81 -223
c-6 -16 -12 -28.667 -18 -38s-14.167 -16.833 -24.5 -22.5s-24 -10.167 -41 -13.5s-39.167 -7 -66.5 -11v-14zM432.998 687l115.999 76.002l43 29c12 8 18 17.667 18 29c0 9.33301 -3.66699 17.666 -11 24.999s-15.666 11 -24.999 11c-6.66699 0 -12.167 -1.33301 -16.5 -4
s-7.83301 -5.33398 -10.5 -8.00098l-149 -158h35z" />
    <glyph glyph-name="Thorn" unicode="&#xde;" horiz-adv-x="556" 
d="M229 10c-4 1.33301 -10.666 2.33203 -19.999 2.99902s-18.833 2 -28.5 4s-18 4.83301 -25 8.5s-10.5 8.83398 -10.5 15.501c0 3.33301 1.66699 10.833 5 22.5s7.33301 24.167 12 37.5l13 37c4 11.333 6.33301 18.333 7 21c44 0.666992 87 4 129 10s79.667 17.333 113 34
s60.166 39.834 80.499 69.501s30.5 68.167 30.5 115.5c0 25.333 -5.83301 47.166 -17.5 65.499s-26.834 33.5 -45.501 45.5s-39.834 20.833 -63.501 26.5s-47.167 8.5 -70.5 8.5h-12c-4 0 -8 -0.333008 -12 -1c7.33301 20 14.5 36.833 21.5 50.5s15 24.5 24 32.5
s19.5 13.833 31.5 17.5s26.333 5.83398 43 6.50098l4 14c-21.333 -1.33301 -44.166 -2.33301 -68.499 -3s-47.166 -1 -68.499 -1c-23.333 0 -46.833 0.333008 -70.5 1s-47.167 1.66699 -70.5 3v-14c6 0 13.5 -0.666992 22.5 -2s17.833 -3.5 26.5 -6.5
s16.167 -6.83301 22.5 -11.5s9.5 -10.334 9.5 -17.001c0 -7.33301 -3.83301 -23.666 -11.5 -48.999s-17.5 -55.666 -29.5 -90.999l-39.5 -113l-41.5 -115l-35.5 -97.5l-21.5 -59.5c-4 -10.667 -8 -19.334 -12 -26.001s-9.5 -12.334 -16.5 -17.001s-16.5 -8.66699 -28.5 -12
l-48 -13v-14c22 1.33301 43.833 2.33301 65.5 3s43.5 1 65.5 1c23.333 0 46.833 -0.333008 70.5 -1s47.167 -1.66699 70.5 -3v14zM445.001 387.999c0 -36 -7.00098 -67.166 -21.001 -93.499s-32.833 -48.333 -56.5 -66s-51 -30.834 -82 -39.501
s-63.833 -13.334 -98.5 -14.001l55.5 165l61.5 167c2.66699 0.666992 6.33398 1 11.001 1c39.333 0 70.833 -9.16699 94.5 -27.5s35.5 -49.166 35.5 -92.499z" />
    <glyph glyph-name="germandbls" unicode="&#xdf;" horiz-adv-x="537" 
d="M119 352c-20 -66.667 -38.168 -134.338 -54.501 -203.005s-32.833 -133.667 -49.5 -195l-10.5 -36.5c-4.33301 -15 -10 -29.833 -17 -44.5s-15.333 -27.167 -25 -37.5s-20.5 -15.5 -32.5 -15.5c-6.66699 0 -11.167 2 -13.5 6s-4.66602 8.5 -6.99902 13.5
s-5.66602 9.66699 -9.99902 14s-11.833 6.5 -22.5 6.5c-10 0 -18.333 -3.66699 -25 -11s-10 -15.666 -10 -24.999c0 -13.333 4.66699 -23 14 -29s19.666 -9 30.999 -9c23.333 0 45.666 9 66.999 27s41.333 41.333 60 70s36 60.834 52 96.501s30.667 71.167 44 106.5
s25.166 68.666 35.499 99.999s19.166 56.666 26.499 75.999c4 10 9.16699 27.333 15.5 52s14.333 52.5 24 83.5s20.834 63.167 33.501 96.5s27.167 63.833 43.5 91.5s34.333 50.334 54 68.001s41.167 26.5 64.5 26.5c30 0 50.833 -8 62.5 -24s17.5 -38 17.5 -66
c0 -22.667 -3.66699 -42 -11 -58s-16.333 -30 -27 -42s-22.334 -23 -35.001 -33s-24.334 -21 -35.001 -33s-19.667 -26 -27 -42s-11 -35.333 -11 -58c0 -18 2.5 -35.833 7.5 -53.5s10.5 -35.5 16.5 -53.5c6 -17.333 11.5 -34.833 16.5 -52.5s7.5 -36.167 7.5 -55.5
c0 -12.667 -1.16699 -24.5 -3.5 -35.5s-6.33301 -20.667 -12 -29s-13.167 -14.833 -22.5 -19.5s-21.333 -7 -36 -7c-19.333 0 -34 3.83301 -44 11.5s-16 21.5 -18 41.5c6.66699 1.33301 12.667 5.66602 18 12.999s8 14.333 8 21c0 13.333 -3.66699 23.5 -11 30.5
s-15 10.5 -23 10.5c-19.333 0 -33.5 -6.16699 -42.5 -18.5s-13.5 -27.833 -13.5 -46.5c0 -27.333 8.16699 -49.666 24.5 -66.999s38.5 -26 66.5 -26c21.333 0 42.333 5.66699 63 17s39.167 26 55.5 44s29.5 37.833 39.5 59.5s15 42.834 15 63.501
c0 18 -2.33301 35.833 -7 53.5l-15 54.5c-5.33301 18.667 -10.333 37.334 -15 56.001s-7 37.667 -7 57c0 17.333 3.83301 32 11.5 44s17 22.667 28 32s23.167 18.333 36.5 27s25.5 18.334 36.5 29.001s20.333 23 28 37s11.5 31.667 11.5 53
c0 12.667 -2.33301 24.834 -7 36.501s-11 22 -19 31s-17.667 16.167 -29 21.5s-23.666 8 -36.999 8c-38 0 -75.167 -10.833 -111.5 -32.5s-69.666 -49 -99.999 -82s-56.666 -69.333 -78.999 -109s-39.166 -77.167 -50.499 -112.5h-89l-7 -24h87z" />
    <glyph glyph-name="agrave" unicode="&#xe0;" horiz-adv-x="463" 
d="M57 78c0 20 3.33496 40.4971 10.002 61.4971s15.167 41.833 25.5 62.5s21.666 40.334 33.999 59.001l35.5 52c5.33301 6.66699 9.66602 12.334 12.999 17.001s7 8.5 11 11.5s8.83301 5.16699 14.5 6.5s12.834 2 21.501 2c6.66699 0 14.167 -1.5 22.5 -4.5
s16.166 -7.16699 23.499 -12.5s13.5 -11.5 18.5 -18.5s7.5 -14.5 7.5 -22.5c0 -3.33301 -2.16699 -10.666 -6.5 -21.999l-14.5 -36.5c-5.33301 -13 -10.833 -25.5 -16.5 -37.5s-9.5 -20.667 -11.5 -26c-5.33301 -12 -13 -25.833 -23 -41.5s-21.5 -30.334 -34.5 -44.001
s-26.833 -25.167 -41.5 -34.5s-29.667 -14 -45 -14c-12 0 -22.333 3.83301 -31 11.5s-13 17.834 -13 30.501zM331.002 381.997c-3.33301 -10 -8.00293 -20.6641 -14.0029 -31.9971c-3.33301 10.667 -9.16602 19.667 -17.499 27s-18.166 11 -29.499 11
c-13.333 0 -29.833 -4.5 -49.5 -13.5s-40.167 -21.167 -61.5 -36.5s-42.833 -33.333 -64.5 -54s-41 -42.834 -58 -66.501s-30.833 -48.167 -41.5 -73.5s-16 -50.333 -16 -75c0 -9.33301 1 -18.833 3 -28.5s5.33301 -18.334 10 -26.001s10.834 -14 18.501 -19
s17.167 -7.5 28.5 -7.5c18.667 0 38.167 5.33301 58.5 16s39.833 24 58.5 40s35.834 33.167 51.501 51.5s28.167 34.833 37.5 49.5l2 -2c-2.66699 -6 -6.66699 -14.167 -12 -24.5l-16 -31.5c-5.33301 -10.667 -10 -21.167 -14 -31.5s-6 -18.5 -6 -24.5
c0 -14.667 6.66699 -25.5 20 -32.5s26 -10.5 38 -10.5c20.667 0 40.667 4.33301 60 13s36.5 18.5 51.5 29.5s27 21.5 36 31.5s13.5 16 13.5 18c0 2.66699 -2 4 -6 4c-3.33301 0 -8 -2.83301 -14 -8.5s-13 -11.834 -21 -18.501s-16.667 -12.834 -26 -18.501
s-19 -8.5 -29 -8.5c-8.66699 0 -17.667 2.16699 -27 6.5s-14 11.5 -14 21.5c0 3.33301 2.16699 12.333 6.5 27s10.166 32.5 17.499 53.5l24 68l26 71.5l24 63c7.33301 18.667 13.333 32.334 18 41.001h-66zM350.999 433l-107.001 149.999c-10 14.667 -23.333 22 -40 22
c-9.33301 0 -17.166 -3.66699 -23.499 -11s-9.5 -15.666 -9.5 -24.999c0 -6 1.5 -11 4.5 -15s8.16699 -9 15.5 -15l129 -106h31z" />
    <glyph glyph-name="aacute" unicode="&#xe1;" horiz-adv-x="463" 
d="M57 78c0 20 3.33496 40.4971 10.002 61.4971s15.167 41.833 25.5 62.5s21.666 40.334 33.999 59.001l35.5 52c5.33301 6.66699 9.66602 12.334 12.999 17.001s7 8.5 11 11.5s8.83301 5.16699 14.5 6.5s12.834 2 21.501 2c6.66699 0 14.167 -1.5 22.5 -4.5
s16.166 -7.16699 23.499 -12.5s13.5 -11.5 18.5 -18.5s7.5 -14.5 7.5 -22.5c0 -3.33301 -2.16699 -10.666 -6.5 -21.999l-14.5 -36.5c-5.33301 -13 -10.833 -25.5 -16.5 -37.5s-9.5 -20.667 -11.5 -26c-5.33301 -12 -13 -25.833 -23 -41.5s-21.5 -30.334 -34.5 -44.001
s-26.833 -25.167 -41.5 -34.5s-29.667 -14 -45 -14c-12 0 -22.333 3.83301 -31 11.5s-13 17.834 -13 30.501zM331.002 381.997c-3.33301 -10 -8.00293 -20.6641 -14.0029 -31.9971c-3.33301 10.667 -9.16602 19.667 -17.499 27s-18.166 11 -29.499 11
c-13.333 0 -29.833 -4.5 -49.5 -13.5s-40.167 -21.167 -61.5 -36.5s-42.833 -33.333 -64.5 -54s-41 -42.834 -58 -66.501s-30.833 -48.167 -41.5 -73.5s-16 -50.333 -16 -75c0 -9.33301 1 -18.833 3 -28.5s5.33301 -18.334 10 -26.001s10.834 -14 18.501 -19
s17.167 -7.5 28.5 -7.5c18.667 0 38.167 5.33301 58.5 16s39.833 24 58.5 40s35.834 33.167 51.501 51.5s28.167 34.833 37.5 49.5l2 -2c-2.66699 -6 -6.66699 -14.167 -12 -24.5l-16 -31.5c-5.33301 -10.667 -10 -21.167 -14 -31.5s-6 -18.5 -6 -24.5
c0 -14.667 6.66699 -25.5 20 -32.5s26 -10.5 38 -10.5c20.667 0 40.667 4.33301 60 13s36.5 18.5 51.5 29.5s27 21.5 36 31.5s13.5 16 13.5 18c0 2.66699 -2 4 -6 4c-3.33301 0 -8 -2.83301 -14 -8.5s-13 -11.834 -21 -18.501s-16.667 -12.834 -26 -18.501
s-19 -8.5 -29 -8.5c-8.66699 0 -17.667 2.16699 -27 6.5s-14 11.5 -14 21.5c0 3.33301 2.16699 12.333 6.5 27s10.166 32.5 17.499 53.5l24 68l26 71.5l24 63c7.33301 18.667 13.333 32.334 18 41.001h-66zM276.999 433l115.999 76.002l43 29c12 8 18 17.667 18 29
c0 9.33301 -3.66699 17.666 -11 24.999s-15.666 11 -24.999 11c-6.66699 0 -12.167 -1.33301 -16.5 -4s-7.83301 -5.33398 -10.5 -8.00098l-149 -158h35z" />
    <glyph glyph-name="acircumflex" unicode="&#xe2;" horiz-adv-x="463" 
d="M57 78c0 20 3.33496 40.4971 10.002 61.4971s15.167 41.833 25.5 62.5s21.666 40.334 33.999 59.001l35.5 52c5.33301 6.66699 9.66602 12.334 12.999 17.001s7 8.5 11 11.5s8.83301 5.16699 14.5 6.5s12.834 2 21.501 2c6.66699 0 14.167 -1.5 22.5 -4.5
s16.166 -7.16699 23.499 -12.5s13.5 -11.5 18.5 -18.5s7.5 -14.5 7.5 -22.5c0 -3.33301 -2.16699 -10.666 -6.5 -21.999l-14.5 -36.5c-5.33301 -13 -10.833 -25.5 -16.5 -37.5s-9.5 -20.667 -11.5 -26c-5.33301 -12 -13 -25.833 -23 -41.5s-21.5 -30.334 -34.5 -44.001
s-26.833 -25.167 -41.5 -34.5s-29.667 -14 -45 -14c-12 0 -22.333 3.83301 -31 11.5s-13 17.834 -13 30.501zM331.002 381.997c-3.33301 -10 -8.00293 -20.6641 -14.0029 -31.9971c-3.33301 10.667 -9.16602 19.667 -17.499 27s-18.166 11 -29.499 11
c-13.333 0 -29.833 -4.5 -49.5 -13.5s-40.167 -21.167 -61.5 -36.5s-42.833 -33.333 -64.5 -54s-41 -42.834 -58 -66.501s-30.833 -48.167 -41.5 -73.5s-16 -50.333 -16 -75c0 -9.33301 1 -18.833 3 -28.5s5.33301 -18.334 10 -26.001s10.834 -14 18.501 -19
s17.167 -7.5 28.5 -7.5c18.667 0 38.167 5.33301 58.5 16s39.833 24 58.5 40s35.834 33.167 51.501 51.5s28.167 34.833 37.5 49.5l2 -2c-2.66699 -6 -6.66699 -14.167 -12 -24.5l-16 -31.5c-5.33301 -10.667 -10 -21.167 -14 -31.5s-6 -18.5 -6 -24.5
c0 -14.667 6.66699 -25.5 20 -32.5s26 -10.5 38 -10.5c20.667 0 40.667 4.33301 60 13s36.5 18.5 51.5 29.5s27 21.5 36 31.5s13.5 16 13.5 18c0 2.66699 -2 4 -6 4c-3.33301 0 -8 -2.83301 -14 -8.5s-13 -11.834 -21 -18.501s-16.667 -12.834 -26 -18.501
s-19 -8.5 -29 -8.5c-8.66699 0 -17.667 2.16699 -27 6.5s-14 11.5 -14 21.5c0 3.33301 2.16699 12.333 6.5 27s10.166 32.5 17.499 53.5l24 68l26 71.5l24 63c7.33301 18.667 13.333 32.334 18 41.001h-66zM420.999 433l-79 170h-49l-148 -170h39l127 104l73 -104h37z" />
    <glyph glyph-name="atilde" unicode="&#xe3;" horiz-adv-x="463" 
d="M57 78c0 20 3.33496 40.4971 10.002 61.4971s15.167 41.833 25.5 62.5s21.666 40.334 33.999 59.001l35.5 52c5.33301 6.66699 9.66602 12.334 12.999 17.001s7 8.5 11 11.5s8.83301 5.16699 14.5 6.5s12.834 2 21.501 2c6.66699 0 14.167 -1.5 22.5 -4.5
s16.166 -7.16699 23.499 -12.5s13.5 -11.5 18.5 -18.5s7.5 -14.5 7.5 -22.5c0 -3.33301 -2.16699 -10.666 -6.5 -21.999l-14.5 -36.5c-5.33301 -13 -10.833 -25.5 -16.5 -37.5s-9.5 -20.667 -11.5 -26c-5.33301 -12 -13 -25.833 -23 -41.5s-21.5 -30.334 -34.5 -44.001
s-26.833 -25.167 -41.5 -34.5s-29.667 -14 -45 -14c-12 0 -22.333 3.83301 -31 11.5s-13 17.834 -13 30.501zM331.002 381.997c-3.33301 -10 -8.00293 -20.6641 -14.0029 -31.9971c-3.33301 10.667 -9.16602 19.667 -17.499 27s-18.166 11 -29.499 11
c-13.333 0 -29.833 -4.5 -49.5 -13.5s-40.167 -21.167 -61.5 -36.5s-42.833 -33.333 -64.5 -54s-41 -42.834 -58 -66.501s-30.833 -48.167 -41.5 -73.5s-16 -50.333 -16 -75c0 -9.33301 1 -18.833 3 -28.5s5.33301 -18.334 10 -26.001s10.834 -14 18.501 -19
s17.167 -7.5 28.5 -7.5c18.667 0 38.167 5.33301 58.5 16s39.833 24 58.5 40s35.834 33.167 51.501 51.5s28.167 34.833 37.5 49.5l2 -2c-2.66699 -6 -6.66699 -14.167 -12 -24.5l-16 -31.5c-5.33301 -10.667 -10 -21.167 -14 -31.5s-6 -18.5 -6 -24.5
c0 -14.667 6.66699 -25.5 20 -32.5s26 -10.5 38 -10.5c20.667 0 40.667 4.33301 60 13s36.5 18.5 51.5 29.5s27 21.5 36 31.5s13.5 16 13.5 18c0 2.66699 -2 4 -6 4c-3.33301 0 -8 -2.83301 -14 -8.5s-13 -11.834 -21 -18.501s-16.667 -12.834 -26 -18.501
s-19 -8.5 -29 -8.5c-8.66699 0 -17.667 2.16699 -27 6.5s-14 11.5 -14 21.5c0 3.33301 2.16699 12.333 6.5 27s10.166 32.5 17.499 53.5l24 68l26 71.5l24 63c7.33301 18.667 13.333 32.334 18 41.001h-66zM435.999 564c-3.33301 -11.333 -7.49609 -21.5 -12.4961 -30.5
s-14.5 -13.5 -28.5 -13.5c-10.667 0 -22 2.33301 -34 7l-37 15c-12.667 5.33301 -25.334 10.333 -38.001 15s-25 7 -37 7c-14.667 0 -26.834 -3.33301 -36.501 -10s-17.667 -15.167 -24 -25.5s-11.166 -21.666 -14.499 -33.999s-6 -24.5 -8 -36.5h27
c3.33301 11.333 8.16602 22 14.499 32s15.833 15 28.5 15c7.33301 0 17.5 -2.33301 30.5 -7l41.5 -15l42 -15.5c14 -5 25.667 -7.5 35 -7.5c13.333 0 24.666 3.33301 33.999 10s16.833 15.167 22.5 25.5s10.167 21.666 13.5 33.999s5.66602 23.833 6.99902 34.5h-26z" />
    <glyph glyph-name="adieresis" unicode="&#xe4;" horiz-adv-x="463" 
d="M57 78c0 20 3.33496 40.4971 10.002 61.4971s15.167 41.833 25.5 62.5s21.666 40.334 33.999 59.001l35.5 52c5.33301 6.66699 9.66602 12.334 12.999 17.001s7 8.5 11 11.5s8.83301 5.16699 14.5 6.5s12.834 2 21.501 2c6.66699 0 14.167 -1.5 22.5 -4.5
s16.166 -7.16699 23.499 -12.5s13.5 -11.5 18.5 -18.5s7.5 -14.5 7.5 -22.5c0 -3.33301 -2.16699 -10.666 -6.5 -21.999l-14.5 -36.5c-5.33301 -13 -10.833 -25.5 -16.5 -37.5s-9.5 -20.667 -11.5 -26c-5.33301 -12 -13 -25.833 -23 -41.5s-21.5 -30.334 -34.5 -44.001
s-26.833 -25.167 -41.5 -34.5s-29.667 -14 -45 -14c-12 0 -22.333 3.83301 -31 11.5s-13 17.834 -13 30.501zM331.002 381.997c-3.33301 -10 -8.00293 -20.6641 -14.0029 -31.9971c-3.33301 10.667 -9.16602 19.667 -17.499 27s-18.166 11 -29.499 11
c-13.333 0 -29.833 -4.5 -49.5 -13.5s-40.167 -21.167 -61.5 -36.5s-42.833 -33.333 -64.5 -54s-41 -42.834 -58 -66.501s-30.833 -48.167 -41.5 -73.5s-16 -50.333 -16 -75c0 -9.33301 1 -18.833 3 -28.5s5.33301 -18.334 10 -26.001s10.834 -14 18.501 -19
s17.167 -7.5 28.5 -7.5c18.667 0 38.167 5.33301 58.5 16s39.833 24 58.5 40s35.834 33.167 51.501 51.5s28.167 34.833 37.5 49.5l2 -2c-2.66699 -6 -6.66699 -14.167 -12 -24.5l-16 -31.5c-5.33301 -10.667 -10 -21.167 -14 -31.5s-6 -18.5 -6 -24.5
c0 -14.667 6.66699 -25.5 20 -32.5s26 -10.5 38 -10.5c20.667 0 40.667 4.33301 60 13s36.5 18.5 51.5 29.5s27 21.5 36 31.5s13.5 16 13.5 18c0 2.66699 -2 4 -6 4c-3.33301 0 -8 -2.83301 -14 -8.5s-13 -11.834 -21 -18.501s-16.667 -12.834 -26 -18.501
s-19 -8.5 -29 -8.5c-8.66699 0 -17.667 2.16699 -27 6.5s-14 11.5 -14 21.5c0 3.33301 2.16699 12.333 6.5 27s10.166 32.5 17.499 53.5l24 68l26 71.5l24 63c7.33301 18.667 13.333 32.334 18 41.001h-66zM218.999 547c-13.333 0 -24.833 -4.66699 -34.5 -14
s-14.5 -20.333 -14.5 -33c0 -15.333 5.16699 -27.666 15.5 -36.999s21.5 -14 33.5 -14c13.333 0 24.833 4.66699 34.5 14s14.5 20.333 14.5 33c0 15.333 -5.16699 27.666 -15.5 36.999s-21.5 14 -33.5 14zM395.999 547c-13.333 0 -24.833 -4.66699 -34.5 -14
s-14.5 -20.333 -14.5 -33c0 -15.333 5.16699 -27.666 15.5 -36.999s21.5 -14 33.5 -14c13.333 0 24.833 4.66699 34.5 14s14.5 20.333 14.5 33c0 15.333 -5.16699 27.666 -15.5 36.999s-21.5 14 -33.5 14z" />
    <glyph glyph-name="aring" unicode="&#xe5;" horiz-adv-x="463" 
d="M57 78c0 20 3.33496 40.4971 10.002 61.4971s15.167 41.833 25.5 62.5s21.666 40.334 33.999 59.001l35.5 52c5.33301 6.66699 9.66602 12.334 12.999 17.001s7 8.5 11 11.5s8.83301 5.16699 14.5 6.5s12.834 2 21.501 2c6.66699 0 14.167 -1.5 22.5 -4.5
s16.166 -7.16699 23.499 -12.5s13.5 -11.5 18.5 -18.5s7.5 -14.5 7.5 -22.5c0 -3.33301 -2.16699 -10.666 -6.5 -21.999l-14.5 -36.5c-5.33301 -13 -10.833 -25.5 -16.5 -37.5s-9.5 -20.667 -11.5 -26c-5.33301 -12 -13 -25.833 -23 -41.5s-21.5 -30.334 -34.5 -44.001
s-26.833 -25.167 -41.5 -34.5s-29.667 -14 -45 -14c-12 0 -22.333 3.83301 -31 11.5s-13 17.834 -13 30.501zM331.002 381.997c-3.33301 -10 -8.00293 -20.6641 -14.0029 -31.9971c-3.33301 10.667 -9.16602 19.667 -17.499 27s-18.166 11 -29.499 11
c-13.333 0 -29.833 -4.5 -49.5 -13.5s-40.167 -21.167 -61.5 -36.5s-42.833 -33.333 -64.5 -54s-41 -42.834 -58 -66.501s-30.833 -48.167 -41.5 -73.5s-16 -50.333 -16 -75c0 -9.33301 1 -18.833 3 -28.5s5.33301 -18.334 10 -26.001s10.834 -14 18.501 -19
s17.167 -7.5 28.5 -7.5c18.667 0 38.167 5.33301 58.5 16s39.833 24 58.5 40s35.834 33.167 51.501 51.5s28.167 34.833 37.5 49.5l2 -2c-2.66699 -6 -6.66699 -14.167 -12 -24.5l-16 -31.5c-5.33301 -10.667 -10 -21.167 -14 -31.5s-6 -18.5 -6 -24.5
c0 -14.667 6.66699 -25.5 20 -32.5s26 -10.5 38 -10.5c20.667 0 40.667 4.33301 60 13s36.5 18.5 51.5 29.5s27 21.5 36 31.5s13.5 16 13.5 18c0 2.66699 -2 4 -6 4c-3.33301 0 -8 -2.83301 -14 -8.5s-13 -11.834 -21 -18.501s-16.667 -12.834 -26 -18.501
s-19 -8.5 -29 -8.5c-8.66699 0 -17.667 2.16699 -27 6.5s-14 11.5 -14 21.5c0 3.33301 2.16699 12.333 6.5 27s10.166 32.5 17.499 53.5l24 68l26 71.5l24 63c7.33301 18.667 13.333 32.334 18 41.001h-66zM307.999 632c-13.333 0 -26 -2.5 -38 -7.5s-22.5 -12 -31.5 -21
s-16.167 -19.5 -21.5 -31.5s-8 -25 -8 -39c0 -13.333 2.5 -26.166 7.5 -38.499s12 -23 21 -32s19.5 -16.167 31.5 -21.5s25 -8 39 -8c13.333 0 26 2.5 38 7.5s22.5 12 31.5 21s16.167 19.5 21.5 31.5s8 25 8 39c0 13.333 -2.5 26.166 -7.5 38.499s-12 23 -21 32
s-19.5 16.167 -31.5 21.5s-25 8 -39 8zM307.999 598c18 0 33.333 -6.5 46 -19.5s19 -28.5 19 -46.5c0 -18.667 -6.33301 -34.167 -19 -46.5s-28 -18.5 -46 -18.5s-33.333 6.5 -46 19.5s-19 28.5 -19 46.5c0 18.667 6.33301 34.167 19 46.5s28 18.5 46 18.5z" />
    <glyph glyph-name="ae" unicode="&#xe6;" horiz-adv-x="574" 
d="M324 381l-6.99512 -29.9971h-2c-0.666992 3.33301 -1.83398 7.16602 -3.50098 11.499s-4 8.33301 -7 12s-7 6.83398 -12 9.50098s-11.833 4 -20.5 4c-10.667 0 -25.167 -4.33301 -43.5 -13s-38.166 -20.667 -59.499 -36s-43 -33.333 -65 -54s-41.833 -43.167 -59.5 -67.5
s-32.167 -49.833 -43.5 -76.5s-17 -53.334 -17 -80.001c0 -20 5.16699 -37.167 15.5 -51.5s26.166 -21.5 47.499 -21.5c15.333 0 32.666 4.83301 51.999 14.5s38.333 21.667 57 36s35.5 29.666 50.5 45.999s25.833 31.166 32.5 44.499l2 -2
c-3.33301 -6 -5.33301 -13.167 -6 -21.5s-1 -16.166 -1 -23.499c0 -30 7.83301 -53.167 23.5 -69.5s38.5 -24.5 68.5 -24.5c24.667 0 49.5 6.83301 74.5 20.5s47.667 29 68 46s37 33.667 50 50s19.5 26.833 19.5 31.5c0 4 -2.33301 6 -7 6c-2 0 -7.16699 -5.33301 -15.5 -16
s-19 -22.334 -32 -35.001s-28.5 -24.334 -46.5 -35.001s-37.667 -16 -59 -16c-24.667 0 -41.834 6.33301 -51.501 19s-14.5 31 -14.5 55c0 12 0.5 23 1.5 33s4.16699 20.667 9.5 32l60 22.5c24 9 47.167 20.167 69.5 33.5s41.5 28.5 57.5 45.5s24 36.5 24 58.5
c0 13.333 -4.33301 24.833 -13 34.5s-20.334 14.5 -35.001 14.5c-12 0 -22.833 -1.66699 -32.5 -5s-18.834 -7.66602 -27.501 -12.999s-17 -11.333 -25 -18l-24 -20l-2 2l20 47h-71zM110.005 38.0029c-13.333 0 -24.665 3.83203 -33.998 11.499s-14 18.834 -14 33.501
c0 15.333 2.83301 31.833 8.5 49.5s13 35.667 22 54s19 36.5 30 54.5s21.833 34.333 32.5 49c10 14.667 19.333 27.334 28 38.001s22.334 16 41.001 16c12.667 0 23.167 -2 31.5 -6s15.166 -8.83301 20.499 -14.5s9.16602 -11.334 11.499 -17.001s3.5 -10.5 3.5 -14.5
c0 -2 -2.33301 -10 -7 -24s-10.667 -30.5 -18 -49.5s-16 -38.5 -26 -58.5s-20 -37 -30 -51c-4.66699 -6.66699 -10.834 -14.167 -18.501 -22.5s-16 -16 -25 -23s-18.333 -13 -28 -18s-19.167 -7.5 -28.5 -7.5zM456.006 317.002c0 -12.667 -4.66406 -25.166 -13.9971 -37.499
s-20.666 -23.833 -33.999 -34.5s-27.333 -19.834 -42 -27.501s-27.334 -13.167 -38.001 -16.5c2.66699 11.333 6.66699 25.333 12 42s12.166 32.5 20.499 47.5s18.166 27.833 29.499 38.5s24.333 16 39 16c7.33301 0 13.666 -2.83301 18.999 -8.5s8 -12.167 8 -19.5z" />
    <glyph glyph-name="ccedilla" unicode="&#xe7;" horiz-adv-x="333" 
d="M66 107c0 10 1.49805 23.165 4.49805 39.498s7.16699 33.666 12.5 51.999s11.833 36.833 19.5 55.5s16.167 35.5 25.5 50.5s19.5 27.333 30.5 37s22.5 14.5 34.5 14.5c11.333 0 21.5 -2.33301 30.5 -7s15.167 -12.667 18.5 -24c-4 -3.33301 -7.5 -7.16602 -10.5 -11.499
s-4.5 -9.16602 -4.5 -14.499c0 -11.333 3.33301 -19.833 10 -25.5s15.334 -8.5 26.001 -8.5c17.333 0 29.333 6.33301 36 19s10 26.334 10 41.001c0 17.333 -5.33301 32.166 -16 44.499s-25 18.5 -43 18.5c-30 0 -60.833 -9.66699 -92.5 -29s-60.5 -43.666 -86.5 -72.999
s-47.333 -60.833 -64 -94.5s-25 -65.167 -25 -94.5c0 -30 8.83301 -55.667 26.5 -77s42.5 -32 74.5 -32c19.333 0 39.5 4.66699 60.5 14s40.333 20 58 32s32.334 23.667 44.001 35s17.5 19 17.5 23c0 3.33301 -0.833008 5.33301 -2.5 6s-3.5 1 -5.5 1
s-6.5 -3.66699 -13.5 -11s-15.833 -15.5 -26.5 -24.5s-22.167 -17.167 -34.5 -24.5s-24.833 -11 -37.5 -11c-25.333 0 -44.5 6.83301 -57.5 20.5s-19.5 33.167 -19.5 58.5zM6.99805 -105.002c5.33301 1.33301 11.0049 3.16504 17.0049 5.49805s11.667 3.5 17 3.5
c12.667 0 23.667 -4.16699 33 -12.5s14 -19.166 14 -32.499c0 -9.33301 -2 -16.833 -6 -22.5s-9.33301 -10.167 -16 -13.5s-13.834 -5.66602 -21.501 -6.99902s-14.834 -2 -21.501 -2c-8.66699 0 -18.834 1.83301 -30.501 5.5s-21.5 7.16699 -29.5 10.5l-16 -27
c5.33301 -3.33301 12 -6.16602 20 -8.49902s16.167 -4.5 24.5 -6.5s16.666 -3.5 24.999 -4.5s15.5 -1.5 21.5 -1.5c14.667 0 29.167 1.5 43.5 4.5s27.166 8 38.499 15s20.5 16.167 27.5 27.5s10.5 25.333 10.5 42c0 21.333 -8 37.5 -24 48.5s-33.667 16.5 -53 16.5
c-5.33301 0 -10.333 -0.333008 -15 -1s-9.66699 -1.33398 -15 -2.00098l43 67h-35l-62 -97z" />
    <glyph glyph-name="egrave" unicode="&#xe8;" horiz-adv-x="333" 
d="M223 325c0 -14 -5.16699 -27.667 -15.5 -41s-22.833 -25.333 -37.5 -36s-30.167 -19.667 -46.5 -27s-30.5 -12 -42.5 -14c3.33301 10 8.33301 23 15 39s15 31.5 25 46.5s21 28 33 39s24.333 16.5 37 16.5c9.33301 0 17 -1.5 23 -4.5s9 -9.16699 9 -18.5zM55 110
c0 10.667 1.83496 23.668 5.50195 39.001s8.16699 28 13.5 38c16.667 4 37.667 10 63 18s49.833 18.333 73.5 31s44 27.667 61 45s25.5 37 25.5 59c0 32 -16 48 -48 48c-18 0 -37.167 -4.66699 -57.5 -14s-40.666 -22.166 -60.999 -38.499s-39.833 -35 -58.5 -56
s-35.167 -43 -49.5 -66s-25.833 -46.5 -34.5 -70.5s-13 -46.667 -13 -68c0 -28 8.16699 -49.5 24.5 -64.5s38.5 -22.5 66.5 -22.5c25.333 0 50.166 5.5 74.499 16.5s46.166 23.5 65.499 37.5s35 27.5 47 40.5s18 21.167 18 24.5c0 2.66699 -2.33301 4 -7 4
c-1.33301 0 -3 -1.33301 -5 -4s-4.66699 -5.33398 -8 -8.00098c-8 -6.66699 -16.333 -14 -25 -22s-18 -15.333 -28 -22s-20.833 -12.167 -32.5 -16.5s-24.834 -6.5 -39.501 -6.5c-25.333 0 -43.5 7.16699 -54.5 21.5s-16.5 33.166 -16.5 56.499zM309.002 433.001
l-107.001 149.999c-10 14.667 -23.333 22 -40 22c-9.33301 0 -17.166 -3.66699 -23.499 -11s-9.5 -15.666 -9.5 -24.999c0 -6 1.5 -11 4.5 -15s8.16699 -9 15.5 -15l129 -106h31z" />
    <glyph glyph-name="eacute" unicode="&#xe9;" horiz-adv-x="333" 
d="M223 325c0 -14 -5.16699 -27.667 -15.5 -41s-22.833 -25.333 -37.5 -36s-30.167 -19.667 -46.5 -27s-30.5 -12 -42.5 -14c3.33301 10 8.33301 23 15 39s15 31.5 25 46.5s21 28 33 39s24.333 16.5 37 16.5c9.33301 0 17 -1.5 23 -4.5s9 -9.16699 9 -18.5zM55 110
c0 10.667 1.83496 23.668 5.50195 39.001s8.16699 28 13.5 38c16.667 4 37.667 10 63 18s49.833 18.333 73.5 31s44 27.667 61 45s25.5 37 25.5 59c0 32 -16 48 -48 48c-18 0 -37.167 -4.66699 -57.5 -14s-40.666 -22.166 -60.999 -38.499s-39.833 -35 -58.5 -56
s-35.167 -43 -49.5 -66s-25.833 -46.5 -34.5 -70.5s-13 -46.667 -13 -68c0 -28 8.16699 -49.5 24.5 -64.5s38.5 -22.5 66.5 -22.5c25.333 0 50.166 5.5 74.499 16.5s46.166 23.5 65.499 37.5s35 27.5 47 40.5s18 21.167 18 24.5c0 2.66699 -2.33301 4 -7 4
c-1.33301 0 -3 -1.33301 -5 -4s-4.66699 -5.33398 -8 -8.00098c-8 -6.66699 -16.333 -14 -25 -22s-18 -15.333 -28 -22s-20.833 -12.167 -32.5 -16.5s-24.834 -6.5 -39.501 -6.5c-25.333 0 -43.5 7.16699 -54.5 21.5s-16.5 33.166 -16.5 56.499zM235.002 433.001
l115.999 76.002l43 29c12 8 18 17.667 18 29c0 9.33301 -3.66699 17.666 -11 24.999s-15.666 11 -24.999 11c-6.66699 0 -12.167 -1.33301 -16.5 -4s-7.83301 -5.33398 -10.5 -8.00098l-149 -158h35z" />
    <glyph glyph-name="ecircumflex" unicode="&#xea;" horiz-adv-x="333" 
d="M223 325c0 -14 -5.16699 -27.667 -15.5 -41s-22.833 -25.333 -37.5 -36s-30.167 -19.667 -46.5 -27s-30.5 -12 -42.5 -14c3.33301 10 8.33301 23 15 39s15 31.5 25 46.5s21 28 33 39s24.333 16.5 37 16.5c9.33301 0 17 -1.5 23 -4.5s9 -9.16699 9 -18.5zM55 110
c0 10.667 1.83496 23.668 5.50195 39.001s8.16699 28 13.5 38c16.667 4 37.667 10 63 18s49.833 18.333 73.5 31s44 27.667 61 45s25.5 37 25.5 59c0 32 -16 48 -48 48c-18 0 -37.167 -4.66699 -57.5 -14s-40.666 -22.166 -60.999 -38.499s-39.833 -35 -58.5 -56
s-35.167 -43 -49.5 -66s-25.833 -46.5 -34.5 -70.5s-13 -46.667 -13 -68c0 -28 8.16699 -49.5 24.5 -64.5s38.5 -22.5 66.5 -22.5c25.333 0 50.166 5.5 74.499 16.5s46.166 23.5 65.499 37.5s35 27.5 47 40.5s18 21.167 18 24.5c0 2.66699 -2.33301 4 -7 4
c-1.33301 0 -3 -1.33301 -5 -4s-4.66699 -5.33398 -8 -8.00098c-8 -6.66699 -16.333 -14 -25 -22s-18 -15.333 -28 -22s-20.833 -12.167 -32.5 -16.5s-24.834 -6.5 -39.501 -6.5c-25.333 0 -43.5 7.16699 -54.5 21.5s-16.5 33.166 -16.5 56.499zM379.002 433.001l-79 170
h-49l-148 -170h39l127 104l73 -104h37z" />
    <glyph glyph-name="edieresis" unicode="&#xeb;" horiz-adv-x="333" 
d="M223 325c0 -14 -5.16699 -27.667 -15.5 -41s-22.833 -25.333 -37.5 -36s-30.167 -19.667 -46.5 -27s-30.5 -12 -42.5 -14c3.33301 10 8.33301 23 15 39s15 31.5 25 46.5s21 28 33 39s24.333 16.5 37 16.5c9.33301 0 17 -1.5 23 -4.5s9 -9.16699 9 -18.5zM55 110
c0 10.667 1.83496 23.668 5.50195 39.001s8.16699 28 13.5 38c16.667 4 37.667 10 63 18s49.833 18.333 73.5 31s44 27.667 61 45s25.5 37 25.5 59c0 32 -16 48 -48 48c-18 0 -37.167 -4.66699 -57.5 -14s-40.666 -22.166 -60.999 -38.499s-39.833 -35 -58.5 -56
s-35.167 -43 -49.5 -66s-25.833 -46.5 -34.5 -70.5s-13 -46.667 -13 -68c0 -28 8.16699 -49.5 24.5 -64.5s38.5 -22.5 66.5 -22.5c25.333 0 50.166 5.5 74.499 16.5s46.166 23.5 65.499 37.5s35 27.5 47 40.5s18 21.167 18 24.5c0 2.66699 -2.33301 4 -7 4
c-1.33301 0 -3 -1.33301 -5 -4s-4.66699 -5.33398 -8 -8.00098c-8 -6.66699 -16.333 -14 -25 -22s-18 -15.333 -28 -22s-20.833 -12.167 -32.5 -16.5s-24.834 -6.5 -39.501 -6.5c-25.333 0 -43.5 7.16699 -54.5 21.5s-16.5 33.166 -16.5 56.499zM177.002 547.001
c-13.333 0 -24.833 -4.66699 -34.5 -14s-14.5 -20.333 -14.5 -33c0 -15.333 5.16699 -27.666 15.5 -36.999s21.5 -14 33.5 -14c13.333 0 24.833 4.66699 34.5 14s14.5 20.333 14.5 33c0 15.333 -5.16699 27.666 -15.5 36.999s-21.5 14 -33.5 14zM354.002 547.001
c-13.333 0 -24.833 -4.66699 -34.5 -14s-14.5 -20.333 -14.5 -33c0 -15.333 5.16699 -27.666 15.5 -36.999s21.5 -14 33.5 -14c13.333 0 24.833 4.66699 34.5 14s14.5 20.333 14.5 33c0 15.333 -5.16699 27.666 -15.5 36.999s-21.5 14 -33.5 14z" />
    <glyph glyph-name="igrave" unicode="&#xec;" 
d="M121 388l-47.002 -133.999l-38 -104l-25.5 -70.5c-6.33301 -17.667 -9.5 -28.834 -9.5 -33.501c0 -9.33301 2.33301 -17.666 7 -24.999s10.834 -13.5 18.501 -18.5s15.834 -8.66699 24.501 -11s17 -3.5 25 -3.5c18 0 36.667 5.16699 56 15.5s37 22 53 35
s29.167 25.5 39.5 37.5s15.5 19.667 15.5 23c0 4 -1.66699 6 -5 6c-2.66699 0 -7.5 -3.66699 -14.5 -11s-15.333 -15.5 -25 -24.5s-20.334 -17.167 -32.001 -24.5s-24.167 -11 -37.5 -11c-9.33301 0 -18.5 3 -27.5 9s-13.5 14 -13.5 24c0 15.333 4.83301 37.166 14.5 65.499
s20.834 58.333 33.501 90l38 92.5c12.667 30 21.667 54.333 27 73h-77zM238.998 433.001l-107.001 149.999c-10 14.667 -23.333 22 -40 22c-9.33301 0 -17.166 -3.66699 -23.499 -11s-9.5 -15.666 -9.5 -24.999c0 -6 1.5 -11 4.5 -15s8.16699 -9 15.5 -15l129 -106h31z" />
    <glyph glyph-name="iacute" unicode="&#xed;" 
d="M121 388l-47.002 -133.999l-38 -104l-25.5 -70.5c-6.33301 -17.667 -9.5 -28.834 -9.5 -33.501c0 -9.33301 2.33301 -17.666 7 -24.999s10.834 -13.5 18.501 -18.5s15.834 -8.66699 24.501 -11s17 -3.5 25 -3.5c18 0 36.667 5.16699 56 15.5s37 22 53 35
s29.167 25.5 39.5 37.5s15.5 19.667 15.5 23c0 4 -1.66699 6 -5 6c-2.66699 0 -7.5 -3.66699 -14.5 -11s-15.333 -15.5 -25 -24.5s-20.334 -17.167 -32.001 -24.5s-24.167 -11 -37.5 -11c-9.33301 0 -18.5 3 -27.5 9s-13.5 14 -13.5 24c0 15.333 4.83301 37.166 14.5 65.499
s20.834 58.333 33.501 90l38 92.5c12.667 30 21.667 54.333 27 73h-77zM164.998 433.001l115.999 76.002l43 29c12 8 18 17.667 18 29c0 9.33301 -3.66699 17.666 -11 24.999s-15.666 11 -24.999 11c-6.66699 0 -12.167 -1.33301 -16.5 -4s-7.83301 -5.33398 -10.5 -8.00098
l-149 -158h35z" />
    <glyph glyph-name="icircumflex" unicode="&#xee;" 
d="M121 388l-47.002 -133.999l-38 -104l-25.5 -70.5c-6.33301 -17.667 -9.5 -28.834 -9.5 -33.501c0 -9.33301 2.33301 -17.666 7 -24.999s10.834 -13.5 18.501 -18.5s15.834 -8.66699 24.501 -11s17 -3.5 25 -3.5c18 0 36.667 5.16699 56 15.5s37 22 53 35
s29.167 25.5 39.5 37.5s15.5 19.667 15.5 23c0 4 -1.66699 6 -5 6c-2.66699 0 -7.5 -3.66699 -14.5 -11s-15.333 -15.5 -25 -24.5s-20.334 -17.167 -32.001 -24.5s-24.167 -11 -37.5 -11c-9.33301 0 -18.5 3 -27.5 9s-13.5 14 -13.5 24c0 15.333 4.83301 37.166 14.5 65.499
s20.834 58.333 33.501 90l38 92.5c12.667 30 21.667 54.333 27 73h-77zM308.998 433.001l-79 170h-49l-148 -170h39l127 104l73 -104h37z" />
    <glyph glyph-name="idieresis" unicode="&#xef;" 
d="M121 388l-47.002 -133.999l-38 -104l-25.5 -70.5c-6.33301 -17.667 -9.5 -28.834 -9.5 -33.501c0 -9.33301 2.33301 -17.666 7 -24.999s10.834 -13.5 18.501 -18.5s15.834 -8.66699 24.501 -11s17 -3.5 25 -3.5c18 0 36.667 5.16699 56 15.5s37 22 53 35
s29.167 25.5 39.5 37.5s15.5 19.667 15.5 23c0 4 -1.66699 6 -5 6c-2.66699 0 -7.5 -3.66699 -14.5 -11s-15.333 -15.5 -25 -24.5s-20.334 -17.167 -32.001 -24.5s-24.167 -11 -37.5 -11c-9.33301 0 -18.5 3 -27.5 9s-13.5 14 -13.5 24c0 15.333 4.83301 37.166 14.5 65.499
s20.834 58.333 33.501 90l38 92.5c12.667 30 21.667 54.333 27 73h-77zM106.998 547.001c-13.333 0 -24.833 -4.66699 -34.5 -14s-14.5 -20.333 -14.5 -33c0 -15.333 5.16699 -27.666 15.5 -36.999s21.5 -14 33.5 -14c13.333 0 24.833 4.66699 34.5 14s14.5 20.333 14.5 33
c0 15.333 -5.16699 27.666 -15.5 36.999s-21.5 14 -33.5 14zM283.998 547.001c-13.333 0 -24.833 -4.66699 -34.5 -14s-14.5 -20.333 -14.5 -33c0 -15.333 5.16699 -27.666 15.5 -36.999s21.5 -14 33.5 -14c13.333 0 24.833 4.66699 34.5 14s14.5 20.333 14.5 33
c0 15.333 -5.16699 27.666 -15.5 36.999s-21.5 14 -33.5 14z" />
    <glyph glyph-name="eth" unicode="&#xf0;" horiz-adv-x="407" 
d="M520 609l-12.9971 29.9951l-115 -38c-12.667 32.667 -32.167 59.334 -58.5 80.001s-60.5 31 -102.5 31c-28.667 0 -54.167 -5.33301 -76.5 -16s-41.166 -22.667 -56.499 -36s-27 -26 -35 -38s-12 -19.333 -12 -22c0 -4 2 -6 6 -6c3.33301 0 8.5 5.5 15.5 16.5
s16.833 23 29.5 36s28.834 24.833 48.501 35.5s43.5 16 71.5 16c19.333 0 35.666 -3 48.999 -9s24.5 -14.333 33.5 -25s16.167 -23 21.5 -37s9 -28.667 11 -44l-127 -42l13 -30l117 39c0 -26.667 -2.66699 -58.5 -8 -95.5s-13 -75 -23 -114s-21.833 -77.667 -35.5 -116
s-28.834 -72.666 -45.501 -102.999s-34.5 -54.833 -53.5 -73.5s-38.833 -28 -59.5 -28c-10 0 -18.167 2.5 -24.5 7.5s-11.166 11.167 -14.499 18.5s-5.5 15.5 -6.5 24.5s-1.5 17.5 -1.5 25.5c0 27.333 5.66699 55.666 17 84.999s26.166 57 44.499 83s39.5 49 63.5 69
s49 34.667 75 44l24.5 8.5c5 1.66699 7.5 3.83398 7.5 6.50098c0 4 -2.66699 6 -8 6c-10 0 -24.333 -3.16699 -43 -9.5s-39.334 -15.5 -62.001 -27.5s-45.5 -26.833 -68.5 -44.5s-44.167 -38 -63.5 -61s-35 -48.667 -47 -77s-18 -59.166 -18 -92.499
c0 -27.333 6.66699 -50.5 20 -69.5s34.666 -28.5 63.999 -28.5c23.333 0 47.666 7 72.999 21s50.5 33.167 75.5 57.5s48.833 53 71.5 86s42.5 68.333 59.5 106s30.667 76.834 41 117.501s15.5 80.667 15.5 120c0 26.667 -3 51.334 -9 74.001z" />
    <glyph glyph-name="ntilde" unicode="&#xf1;" horiz-adv-x="481" 
d="M110 376l-63.4971 -187.994c-21 -62 -41.167 -124.667 -60.5 -188h67c6 19.333 13.667 41.166 23 65.499s20.166 49.166 32.499 74.499s25.833 50.166 40.5 74.499s29.667 46.166 45 65.499s31 34.833 47 46.5s31.667 17.5 47 17.5c24 0 36 -11.333 36 -34
c0 -8 -2.33301 -19.167 -7 -33.5s-10.667 -30 -18 -47l-23.5 -53.5l-23.5 -53.5c-7.33301 -17 -13.333 -32.5 -18 -46.5s-7 -25 -7 -33c0 -17.333 6.83301 -29.5 20.5 -36.5s28.167 -10.5 43.5 -10.5c14 0 29 3 45 9s30.667 13 44 21s24.333 15.667 33 23s13 12 13 14
s-0.666992 3.5 -2 4.5s-2.66602 1.5 -3.99902 1.5c-2.66699 0 -6.33398 -1.83301 -11.001 -5.5s-10.334 -7.66699 -17.001 -12s-14 -8.33301 -22 -12s-16.667 -5.5 -26 -5.5c-8.66699 0 -16.334 2.66699 -23.001 8s-10 12.666 -10 21.999c0 6.66699 2.33301 16.834 7 30.501
s10.667 29 18 46l23.5 54l23.5 54.5c7.33301 17.333 13.333 33.333 18 48s7 26 7 34c0 10 -2.16699 18.667 -6.5 26s-10 13.166 -17 17.499s-14.833 7.66602 -23.5 9.99902s-17.334 3.5 -26.001 3.5c-22.667 0 -45 -7.33301 -67 -22s-42.5 -32.5 -61.5 -53.5
s-36.167 -43.167 -51.5 -66.5s-27.666 -44 -36.999 -62l-2 2l70 190h-76zM433.003 564.006c-3.33301 -11.333 -7.49609 -21.5 -12.4961 -30.5s-14.5 -13.5 -28.5 -13.5c-10.667 0 -22 2.33301 -34 7l-37 15c-12.667 5.33301 -25.334 10.333 -38.001 15s-25 7 -37 7
c-14.667 0 -26.834 -3.33301 -36.501 -10s-17.667 -15.167 -24 -25.5s-11.166 -21.666 -14.499 -33.999s-6 -24.5 -8 -36.5h27c3.33301 11.333 8.16602 22 14.499 32s15.833 15 28.5 15c7.33301 0 17.5 -2.33301 30.5 -7l41.5 -15l42 -15.5c14 -5 25.667 -7.5 35 -7.5
c13.333 0 24.666 3.33301 33.999 10s16.833 15.167 22.5 25.5s10.167 21.666 13.5 33.999s5.66602 23.833 6.99902 34.5h-26z" />
    <glyph glyph-name="ograve" unicode="&#xf2;" horiz-adv-x="389" 
d="M346 296c0 13.333 -1.16504 25.666 -3.49805 36.999s-6.83301 21 -13.5 29s-15.5 14.333 -26.5 19s-25.167 7 -42.5 7c-16.667 0 -35.334 -4.5 -56.001 -13.5s-41.334 -21.167 -62.001 -36.5s-40.667 -33.166 -60 -53.499s-36.5 -42 -51.5 -65s-27 -46.5 -36 -70.5
s-13.5 -47 -13.5 -69c0 -13.333 1.16699 -25.666 3.5 -36.999s6.83301 -21 13.5 -29s15.5 -14.333 26.5 -19s25.167 -7 42.5 -7c21.333 0 43.166 4.5 65.499 13.5s43.833 21.167 64.5 36.5s40 33.166 58 53.499s33.833 42 47.5 65s24.334 46.5 32.001 70.5s11.5 47 11.5 69z
M212.002 356c37.333 0 56 -19 56 -57c0 -11.333 -1.66699 -26.166 -5 -44.499s-8.16602 -38.166 -14.499 -59.499s-13.833 -42.833 -22.5 -64.5s-18.667 -41.334 -30 -59.001s-23.833 -32 -37.5 -43s-28.167 -16.5 -43.5 -16.5c-37.333 0 -56 19 -56 57
c0 11.333 1.66699 26.166 5 44.499s8.16602 38.166 14.499 59.499s13.833 42.833 22.5 64.5s18.667 41.334 30 59.001s23.833 32 37.5 43s28.167 16.5 43.5 16.5zM326.002 433l-107.001 149.999c-10 14.667 -23.333 22 -40 22c-9.33301 0 -17.166 -3.66699 -23.499 -11
s-9.5 -15.666 -9.5 -24.999c0 -6 1.5 -11 4.5 -15s8.16699 -9 15.5 -15l129 -106h31z" />
    <glyph glyph-name="oacute" unicode="&#xf3;" horiz-adv-x="389" 
d="M346 296c0 13.333 -1.16504 25.666 -3.49805 36.999s-6.83301 21 -13.5 29s-15.5 14.333 -26.5 19s-25.167 7 -42.5 7c-16.667 0 -35.334 -4.5 -56.001 -13.5s-41.334 -21.167 -62.001 -36.5s-40.667 -33.166 -60 -53.499s-36.5 -42 -51.5 -65s-27 -46.5 -36 -70.5
s-13.5 -47 -13.5 -69c0 -13.333 1.16699 -25.666 3.5 -36.999s6.83301 -21 13.5 -29s15.5 -14.333 26.5 -19s25.167 -7 42.5 -7c21.333 0 43.166 4.5 65.499 13.5s43.833 21.167 64.5 36.5s40 33.166 58 53.499s33.833 42 47.5 65s24.334 46.5 32.001 70.5s11.5 47 11.5 69z
M212.002 356c37.333 0 56 -19 56 -57c0 -11.333 -1.66699 -26.166 -5 -44.499s-8.16602 -38.166 -14.499 -59.499s-13.833 -42.833 -22.5 -64.5s-18.667 -41.334 -30 -59.001s-23.833 -32 -37.5 -43s-28.167 -16.5 -43.5 -16.5c-37.333 0 -56 19 -56 57
c0 11.333 1.66699 26.166 5 44.499s8.16602 38.166 14.499 59.499s13.833 42.833 22.5 64.5s18.667 41.334 30 59.001s23.833 32 37.5 43s28.167 16.5 43.5 16.5zM252.002 433l115.999 76.002l43 29c12 8 18 17.667 18 29c0 9.33301 -3.66699 17.666 -11 24.999
s-15.666 11 -24.999 11c-6.66699 0 -12.167 -1.33301 -16.5 -4s-7.83301 -5.33398 -10.5 -8.00098l-149 -158h35z" />
    <glyph glyph-name="ocircumflex" unicode="&#xf4;" horiz-adv-x="389" 
d="M346 296c0 13.333 -1.16504 25.666 -3.49805 36.999s-6.83301 21 -13.5 29s-15.5 14.333 -26.5 19s-25.167 7 -42.5 7c-16.667 0 -35.334 -4.5 -56.001 -13.5s-41.334 -21.167 -62.001 -36.5s-40.667 -33.166 -60 -53.499s-36.5 -42 -51.5 -65s-27 -46.5 -36 -70.5
s-13.5 -47 -13.5 -69c0 -13.333 1.16699 -25.666 3.5 -36.999s6.83301 -21 13.5 -29s15.5 -14.333 26.5 -19s25.167 -7 42.5 -7c21.333 0 43.166 4.5 65.499 13.5s43.833 21.167 64.5 36.5s40 33.166 58 53.499s33.833 42 47.5 65s24.334 46.5 32.001 70.5s11.5 47 11.5 69z
M212.002 356c37.333 0 56 -19 56 -57c0 -11.333 -1.66699 -26.166 -5 -44.499s-8.16602 -38.166 -14.499 -59.499s-13.833 -42.833 -22.5 -64.5s-18.667 -41.334 -30 -59.001s-23.833 -32 -37.5 -43s-28.167 -16.5 -43.5 -16.5c-37.333 0 -56 19 -56 57
c0 11.333 1.66699 26.166 5 44.499s8.16602 38.166 14.499 59.499s13.833 42.833 22.5 64.5s18.667 41.334 30 59.001s23.833 32 37.5 43s28.167 16.5 43.5 16.5zM396.002 433l-79 170h-49l-148 -170h39l127 104l73 -104h37z" />
    </font>
</defs>
</svg>
