<?xml version="1.0" encoding="UTF-8"?>
<svg width="32px" height="26px" viewBox="0 0 32 26" version="1.1" xmlns="http://www.w3.org/2000/svg" xmlns:xlink="http://www.w3.org/1999/xlink">
    <!-- Generator: Sketch 52.5 (67469) - http://www.bohemiancoding.com/sketch -->
    <title>2.4 Icon/Download@1x</title>
    <desc>Created with Sketch.</desc>
    <defs>
        <path d="M20,23.5107143 C20.2392857,23.5107143 20.3714286,23.7857143 20.225,23.9714286 L16.225,29.0321429 C16.1107143,29.1785714 15.8892857,29.1785714 15.775,29.0321429 L11.775,23.9714286 C11.6285714,23.7857143 11.7607143,23.5107143 12,23.5107143 L14.6392857,23.5107143 L14.6392857,14.8571429 C14.6392857,14.7 14.7678571,14.5714286 14.925,14.5714286 L17.0678571,14.5714286 C17.225,14.5714286 17.3535714,14.7 17.3535714,14.8571429 L17.3535714,23.5107143 L20,23.5107143 Z M26.6928571,11.3821429 C29.7464286,12.1892857 32,14.975 32,18.2857143 C32,22.2321429 28.8035714,25.4285714 24.8607143,25.4285714 L23.4285714,25.4285714 C23.2714286,25.4285714 23.1428571,25.3 23.1428571,25.1428571 L23.1428571,23 C23.1428571,22.8428571 23.2714286,22.7142857 23.4285714,22.7142857 L24.8607143,22.7142857 C26.0428571,22.7142857 27.1535714,22.2535714 27.9892857,21.4178571 C28.825,20.5821429 29.2857143,19.4678571 29.2857143,18.2857143 C29.2857143,16.2785714 27.9321429,14.5178571 25.9964286,13.9964286 L24.6464286,13.6392857 L24.1535714,12.3357143 C23.8464286,11.525 23.4178571,10.7607143 22.8785714,10.0714286 C22.3464286,9.38928571 21.7178571,8.78928571 21.0071429,8.28928571 C19.5392857,7.25714286 17.8107143,6.71071429 16.0071429,6.71071429 C14.2035714,6.71071429 12.475,7.25714286 11.0071429,8.28928571 C10.3,8.78928571 9.66785714,9.38571429 9.13571429,10.0714286 C8.59642857,10.7607143 8.16785714,11.5214286 7.86071429,12.3357143 L7.36428571,13.6428571 L6.01071429,13.9964286 C5.08214286,14.2428571 4.24642857,14.7964286 3.65,15.5571429 C3.06785714,16.3035714 2.74642857,17.1892857 2.71428571,18.1321429 C2.675,19.3392857 3.12142857,20.5035714 3.96071429,21.3678571 C4.80357143,22.2357143 5.93571429,22.7142857 7.13928571,22.7142857 L8.57142857,22.7142857 C8.72857143,22.7142857 8.85714286,22.8428571 8.85714286,23 L8.85714286,25.1428571 C8.85714286,25.3 8.72857143,25.4285714 8.57142857,25.4285714 L7.13928571,25.4285714 C3.19642857,25.4285714 0,22.2321429 0,18.2857143 C0,14.9714286 2.26071429,12.1821429 5.32142857,11.3785714 C6.95714286,7.06428571 11.125,4 16.0071429,4 C20.8892857,4 25.0571429,7.06785714 26.6928571,11.3821429 Z" id="path-1"></path>
    </defs>
    <g id="Cube-Design" stroke="none" stroke-width="1" fill="none" fill-rule="evenodd">
        <g id="1.3-å“ç‰Œèµ„æº-èµ„æºä¸‹è½½" transform="translate(-603.000000, -415.000000)">
            <g id="2.2-Icons/Download" transform="translate(603.000000, 411.000000)">
                <mask id="mask-2" fill="white">
                    <use xlink:href="#path-1"></use>
                </mask>
                <use id="ðŸŽ¨Color" fill="#1976A1" fill-rule="evenodd" xlink:href="#path-1"></use>
            </g>
        </g>
    </g>
</svg>