<?xml version="1.0" encoding="UTF-8"?>
<svg width="14px" height="14px" viewBox="0 0 14 14" version="1.1" xmlns="http://www.w3.org/2000/svg" xmlns:xlink="http://www.w3.org/1999/xlink">
    <!-- Generator: Sketch 52.5 (67469) - http://www.bohemiancoding.com/sketch -->
    <title>2.2 Icons/Search@1x</title>
    <desc>Created with Sketch.</desc>
    <defs>
        <path d="M9.5,1.75 C6.8765625,1.75 4.75,3.8765625 4.75,6.5 C4.75,7.5984375 5.1234375,8.609375 5.7484375,9.4140625 L1.7859375,13.3765625 C1.7375,13.425 1.7375,13.5046875 1.7859375,13.553125 L2.446875,14.2140625 C2.4953125,14.2625 2.575,14.2625 2.6234375,14.2140625 L6.5859375,10.2515625 C7.390625,10.8765625 8.4015625,11.25 9.5,11.25 C12.1234375,11.25 14.25,9.1234375 14.25,6.5 C14.25,3.8765625 12.1234375,1.75 9.5,1.75 Z M12.01875,9.01875 C11.346875,9.6921875 10.4515625,10.0625 9.5,10.0625 C8.5484375,10.0625 7.653125,9.6921875 6.98125,9.01875 C6.3078125,8.346875 5.9375,7.4515625 5.9375,6.5 C5.9375,5.5484375 6.3078125,4.653125 6.98125,3.98125 C7.653125,3.3078125 8.5484375,2.9375 9.5,2.9375 C10.4515625,2.9375 11.346875,3.3078125 12.01875,3.98125 C12.6921875,4.653125 13.0625,5.5484375 13.0625,6.5 C13.0625,7.4515625 12.6921875,8.346875 12.01875,9.01875 Z" id="path-1"></path>
    </defs>
    <g id="Page-1" stroke="none" stroke-width="1" fill="none" fill-rule="evenodd">
        <g id="TEXTFIELDS-(INPUTS)" transform="translate(-1071.000000, -734.000000)">
            <g id="2.2-Icons/Search" transform="translate(1070.000000, 733.000000)">
                <mask id="mask-2" fill="white">
                    <use xlink:href="#path-1"></use>
                </mask>
                <use id="🎨Color" fill="#FFFFFF" fill-rule="evenodd" xlink:href="#path-1"></use>
            </g>
        </g>
    </g>
</svg>