<?xml version="1.0" encoding="UTF-8"?>
<svg width="16px" height="16px" viewBox="0 0 16 16" version="1.1" xmlns="http://www.w3.org/2000/svg" xmlns:xlink="http://www.w3.org/1999/xlink">
    <!-- Generator: Sketch 52.5 (67469) - http://www.bohemiancoding.com/sketch -->
    <title>2.2 Icons/Arrow/Down@1x</title>
    <desc>Created with Sketch.</desc>
    <defs>
        <path d="M13.46875,7.2703125 L12.203125,7.2703125 C12.13125,7.2703125 12.0625,7.3015625 12.0140625,7.35625 L8.59375,11.2984375 L8.59375,2.5 C8.59375,2.43125 8.5375,2.375 8.46875,2.375 L7.53125,2.375 C7.4625,2.375 7.40625,2.43125 7.40625,2.5 L7.40625,11.2984375 L3.9859375,7.35625 C3.9390625,7.3015625 3.8703125,7.2703125 3.796875,7.2703125 L2.53125,7.2703125 C2.425,7.2703125 2.3671875,7.396875 2.4375,7.4765625 L7.6234375,13.453125 C7.821875,13.6828125 8.178125,13.6828125 8.378125,13.453125 L13.5625,7.4765625 C13.6328125,7.3953125 13.575,7.2703125 13.46875,7.2703125 Z" id="path-1"></path>
    </defs>
    <g id="2.2-Icons/Arrow/Down" stroke="none" stroke-width="1" fill="none" fill-rule="evenodd">
        <mask id="mask-2" fill="white">
            <use xlink:href="#path-1"></use>
        </mask>
        <use id="🎨Color" fill="#465DD4" xlink:href="#path-1"></use>
    </g>
</svg>