<?xml version="1.0" encoding="UTF-8"?>
<svg width="16px" height="16px" viewBox="0 0 16 16" version="1.1" xmlns="http://www.w3.org/2000/svg" xmlns:xlink="http://www.w3.org/1999/xlink">
    <!-- Generator: Sketch 52.5 (67469) - http://www.bohemiancoding.com/sketch -->
    <title>2.2 Icons/Arrow/Up@1x</title>
    <desc>Created with Sketch.</desc>
    <defs>
        <path d="M13.5625,8.5234375 L8.3765625,2.546875 C8.178125,2.3171875 7.821875,2.3171875 7.621875,2.546875 L2.4375,8.5234375 C2.3671875,8.6046875 2.425,8.7296875 2.53125,8.7296875 L3.796875,8.7296875 C3.86875,8.7296875 3.9375,8.6984375 3.9859375,8.64375 L7.40625,4.7015625 L7.40625,13.5 C7.40625,13.56875 7.4625,13.625 7.53125,13.625 L8.46875,13.625 C8.5375,13.625 8.59375,13.56875 8.59375,13.5 L8.59375,4.7015625 L12.0140625,8.64375 C12.0609375,8.6984375 12.1296875,8.7296875 12.203125,8.7296875 L13.46875,8.7296875 C13.575,8.7296875 13.6328125,8.6046875 13.5625,8.5234375 Z" id="path-1"></path>
    </defs>
    <g id="2.2-Icons/Arrow/Up" stroke="none" stroke-width="1" fill="none" fill-rule="evenodd">
        <mask id="mask-2" fill="white">
            <use xlink:href="#path-1"></use>
        </mask>
        <use id="🎨Color" fill="#465DD4" xlink:href="#path-1"></use>
    </g>
</svg>